M48
;Layer_Color=9474304
;FILE_FORMAT=2:5
INCH,LZ
;TYPE=PLATED
T1F00S00C0.01181
T2F00S00C0.02559
T4F00S00C0.03200
T5F00S00C0.03543
T6F00S00C0.04200
T7F00S00C0.12598
%
T01
X0158268Y0185039
X0166354Y0187008
X0169504
X0181322Y020706
X019333Y0207087
X0197614Y0208782
X0199213Y0198425
X019333Y0201
X0209449Y0200787
X0216445Y0214719
X0215201Y0232628
X0221511
X0223823Y024799
X0214951Y0244447
X0236028Y0235982
X0236221Y025748
X0247051Y0246851
Y0268111
X0218755Y0281907
X0227127Y0295838
X0181322Y0295276
X0179157Y0292126
X0175277Y0280499
X0168195Y0273189
X0161338Y0273373
Y0285236
Y0291806
X0171968Y0306457
X0186897Y0275781
X0193376
X0186897Y0256086
X0181322Y025173
X0178436Y0248777
X0174622Y0236221
X0166354Y0226139
X0247403Y0222211
X0240492Y0214228
X0151983Y0222211
X0144882Y0229017
X0137795
X0122664Y0232784
X0106104Y0233268
X0088581Y0232874
X0080904Y021756
X0067659Y0211861
X0098425Y0203937
X0094965Y0188425
Y0184833
X0102366Y0186067
X0111566Y0188711
X011937Y0187963
X0126894Y0187265
X0126303Y0208979
X011004Y0214223
X010453Y0259646
X0088581Y0258465
X0070866Y0269291
X0068504Y0272441
Y0275197
X0078942Y0297852
X0096063Y0295276
X0099215Y0278689
X0120472Y0266717
X0135269Y0259044
X0137795Y0250169
X0119685Y0305276
X0128347Y0321994
X0119685Y0333881
X0114961Y0343307
X0155779Y0336894
Y0317364
X0086014Y0317852
X0076378Y0324838
X0164633Y0335866
X0166104Y035961
X0165748Y0365354
X0218935Y0337485
X0227127Y0320528
T02
X0082892Y0234291
Y0257047
T04
X0189449Y0187963
X0199449
X0209449
X0219449
T05
X0245477Y0289449
Y0299449
Y0309449
Y0319449
Y0329449
X021685Y0363779
X020685
X019685
X018685
X017685
T06
X0138583Y0188425
Y0198425
Y0208425
T07
X0236221Y019685
X007874
Y0354331
X0236221
M30
