G04*
G04 #@! TF.GenerationSoftware,Altium Limited,Altium Designer,20.2.7 (254)*
G04*
G04 Layer_Physical_Order=1*
G04 Layer_Color=255*
%FSLAX25Y25*%
%MOIN*%
G70*
G04*
G04 #@! TF.SameCoordinates,FBE84B92-D195-4989-AC34-508FE9173FC9*
G04*
G04*
G04 #@! TF.FilePolarity,Positive*
G04*
G01*
G75*
%ADD11C,0.00787*%
G04:AMPARAMS|DCode=16|XSize=70.87mil|YSize=51.18mil|CornerRadius=6.4mil|HoleSize=0mil|Usage=FLASHONLY|Rotation=270.000|XOffset=0mil|YOffset=0mil|HoleType=Round|Shape=RoundedRectangle|*
%AMROUNDEDRECTD16*
21,1,0.07087,0.03839,0,0,270.0*
21,1,0.05807,0.05118,0,0,270.0*
1,1,0.01280,-0.01919,-0.02904*
1,1,0.01280,-0.01919,0.02904*
1,1,0.01280,0.01919,0.02904*
1,1,0.01280,0.01919,-0.02904*
%
%ADD16ROUNDEDRECTD16*%
G04:AMPARAMS|DCode=17|XSize=39.37mil|YSize=35.43mil|CornerRadius=4.43mil|HoleSize=0mil|Usage=FLASHONLY|Rotation=270.000|XOffset=0mil|YOffset=0mil|HoleType=Round|Shape=RoundedRectangle|*
%AMROUNDEDRECTD17*
21,1,0.03937,0.02657,0,0,270.0*
21,1,0.03051,0.03543,0,0,270.0*
1,1,0.00886,-0.01329,-0.01526*
1,1,0.00886,-0.01329,0.01526*
1,1,0.00886,0.01329,0.01526*
1,1,0.00886,0.01329,-0.01526*
%
%ADD17ROUNDEDRECTD17*%
G04:AMPARAMS|DCode=18|XSize=39.37mil|YSize=35.43mil|CornerRadius=4.43mil|HoleSize=0mil|Usage=FLASHONLY|Rotation=180.000|XOffset=0mil|YOffset=0mil|HoleType=Round|Shape=RoundedRectangle|*
%AMROUNDEDRECTD18*
21,1,0.03937,0.02657,0,0,180.0*
21,1,0.03051,0.03543,0,0,180.0*
1,1,0.00886,-0.01526,0.01329*
1,1,0.00886,0.01526,0.01329*
1,1,0.00886,0.01526,-0.01329*
1,1,0.00886,-0.01526,-0.01329*
%
%ADD18ROUNDEDRECTD18*%
%ADD19R,0.01181X0.05807*%
%ADD20R,0.05807X0.01181*%
%ADD21O,0.05512X0.09449*%
%ADD22O,0.09449X0.05512*%
%ADD23O,0.05709X0.02362*%
%ADD24O,0.05709X0.01181*%
G04:AMPARAMS|DCode=25|XSize=23.62mil|YSize=39.37mil|CornerRadius=2.95mil|HoleSize=0mil|Usage=FLASHONLY|Rotation=180.000|XOffset=0mil|YOffset=0mil|HoleType=Round|Shape=RoundedRectangle|*
%AMROUNDEDRECTD25*
21,1,0.02362,0.03347,0,0,180.0*
21,1,0.01772,0.03937,0,0,180.0*
1,1,0.00591,-0.00886,0.01673*
1,1,0.00591,0.00886,0.01673*
1,1,0.00591,0.00886,-0.01673*
1,1,0.00591,-0.00886,-0.01673*
%
%ADD25ROUNDEDRECTD25*%
G04:AMPARAMS|DCode=26|XSize=55.12mil|YSize=39.37mil|CornerRadius=4.92mil|HoleSize=0mil|Usage=FLASHONLY|Rotation=270.000|XOffset=0mil|YOffset=0mil|HoleType=Round|Shape=RoundedRectangle|*
%AMROUNDEDRECTD26*
21,1,0.05512,0.02953,0,0,270.0*
21,1,0.04528,0.03937,0,0,270.0*
1,1,0.00984,-0.01476,-0.02264*
1,1,0.00984,-0.01476,0.02264*
1,1,0.00984,0.01476,0.02264*
1,1,0.00984,0.01476,-0.02264*
%
%ADD26ROUNDEDRECTD26*%
G04:AMPARAMS|DCode=27|XSize=51.18mil|YSize=31.5mil|CornerRadius=3.94mil|HoleSize=0mil|Usage=FLASHONLY|Rotation=180.000|XOffset=0mil|YOffset=0mil|HoleType=Round|Shape=RoundedRectangle|*
%AMROUNDEDRECTD27*
21,1,0.05118,0.02362,0,0,180.0*
21,1,0.04331,0.03150,0,0,180.0*
1,1,0.00787,-0.02165,0.01181*
1,1,0.00787,0.02165,0.01181*
1,1,0.00787,0.02165,-0.01181*
1,1,0.00787,-0.02165,-0.01181*
%
%ADD27ROUNDEDRECTD27*%
G04:AMPARAMS|DCode=28|XSize=50mil|YSize=50mil|CornerRadius=6.25mil|HoleSize=0mil|Usage=FLASHONLY|Rotation=90.000|XOffset=0mil|YOffset=0mil|HoleType=Round|Shape=RoundedRectangle|*
%AMROUNDEDRECTD28*
21,1,0.05000,0.03750,0,0,90.0*
21,1,0.03750,0.05000,0,0,90.0*
1,1,0.01250,0.01875,0.01875*
1,1,0.01250,0.01875,-0.01875*
1,1,0.01250,-0.01875,-0.01875*
1,1,0.01250,-0.01875,0.01875*
%
%ADD28ROUNDEDRECTD28*%
%ADD29R,0.03937X0.03937*%
G04:AMPARAMS|DCode=30|XSize=78.74mil|YSize=47.24mil|CornerRadius=5.91mil|HoleSize=0mil|Usage=FLASHONLY|Rotation=180.000|XOffset=0mil|YOffset=0mil|HoleType=Round|Shape=RoundedRectangle|*
%AMROUNDEDRECTD30*
21,1,0.07874,0.03543,0,0,180.0*
21,1,0.06693,0.04724,0,0,180.0*
1,1,0.01181,-0.03347,0.01772*
1,1,0.01181,0.03347,0.01772*
1,1,0.01181,0.03347,-0.01772*
1,1,0.01181,-0.03347,-0.01772*
%
%ADD30ROUNDEDRECTD30*%
G04:AMPARAMS|DCode=31|XSize=55.12mil|YSize=39.37mil|CornerRadius=4.92mil|HoleSize=0mil|Usage=FLASHONLY|Rotation=180.000|XOffset=0mil|YOffset=0mil|HoleType=Round|Shape=RoundedRectangle|*
%AMROUNDEDRECTD31*
21,1,0.05512,0.02953,0,0,180.0*
21,1,0.04528,0.03937,0,0,180.0*
1,1,0.00984,-0.02264,0.01476*
1,1,0.00984,0.02264,0.01476*
1,1,0.00984,0.02264,-0.01476*
1,1,0.00984,-0.02264,-0.01476*
%
%ADD31ROUNDEDRECTD31*%
%ADD60C,0.02362*%
%ADD61C,0.03937*%
%ADD62C,0.01181*%
%ADD63C,0.01575*%
%ADD64C,0.22047*%
%ADD65R,0.05906X0.05906*%
%ADD66C,0.05906*%
%ADD67R,0.05906X0.05906*%
%ADD68O,0.08268X0.03937*%
%ADD69O,0.06299X0.03937*%
%ADD70C,0.03150*%
%ADD71C,0.07500*%
G04:AMPARAMS|DCode=72|XSize=75mil|YSize=75mil|CornerRadius=9.38mil|HoleSize=0mil|Usage=FLASHONLY|Rotation=0.000|XOffset=0mil|YOffset=0mil|HoleType=Round|Shape=RoundedRectangle|*
%AMROUNDEDRECTD72*
21,1,0.07500,0.05625,0,0,0.0*
21,1,0.05625,0.07500,0,0,0.0*
1,1,0.01875,0.02813,-0.02813*
1,1,0.01875,-0.02813,-0.02813*
1,1,0.01875,-0.02813,0.02813*
1,1,0.01875,0.02813,0.02813*
%
%ADD72ROUNDEDRECTD72*%
%ADD73O,0.06000X0.08000*%
G04:AMPARAMS|DCode=74|XSize=60mil|YSize=80mil|CornerRadius=7.5mil|HoleSize=0mil|Usage=FLASHONLY|Rotation=180.000|XOffset=0mil|YOffset=0mil|HoleType=Round|Shape=RoundedRectangle|*
%AMROUNDEDRECTD74*
21,1,0.06000,0.06500,0,0,180.0*
21,1,0.04500,0.08000,0,0,180.0*
1,1,0.01500,-0.02250,0.03250*
1,1,0.01500,0.02250,0.03250*
1,1,0.01500,0.02250,-0.03250*
1,1,0.01500,-0.02250,-0.03250*
%
%ADD74ROUNDEDRECTD74*%
%ADD75C,0.25197*%
%ADD76C,0.01968*%
%ADD77C,0.02362*%
G36*
X233657Y367886D02*
X231949Y367476D01*
X229945Y366646D01*
X228096Y365513D01*
X226447Y364104D01*
X225038Y362455D01*
X223905Y360606D01*
X223075Y358602D01*
X222568Y356493D01*
X222398Y354331D01*
X222568Y352168D01*
X223075Y350059D01*
X223905Y348056D01*
X225038Y346206D01*
X226447Y344557D01*
X228096Y343148D01*
X229945Y342015D01*
X231949Y341185D01*
X234058Y340679D01*
X236221Y340509D01*
X238383Y340679D01*
X240492Y341185D01*
X242496Y342015D01*
X244345Y343148D01*
X245994Y344557D01*
X247403Y346206D01*
X248536Y348056D01*
X249366Y350059D01*
X249776Y351767D01*
X250564Y351674D01*
Y318358D01*
X249776Y318032D01*
X249485Y318323D01*
X249505Y318370D01*
X249647Y319449D01*
X249505Y320528D01*
X249088Y321534D01*
X248426Y322397D01*
X247562Y323060D01*
X246556Y323476D01*
X245477Y323618D01*
X244398Y323476D01*
X243393Y323060D01*
X242529Y322397D01*
X241866Y321534D01*
X241450Y320528D01*
X241308Y319449D01*
X241450Y318370D01*
X241866Y317364D01*
X242529Y316500D01*
X243393Y315838D01*
X244398Y315421D01*
X245477Y315279D01*
X246556Y315421D01*
X246835Y315537D01*
X247991Y314381D01*
X247934Y313611D01*
X247214Y313204D01*
X246556Y313476D01*
X245477Y313618D01*
X244398Y313476D01*
X243393Y313060D01*
X242529Y312397D01*
X241866Y311534D01*
X241450Y310528D01*
X241308Y309449D01*
X241450Y308370D01*
X241648Y307891D01*
X236979Y303221D01*
X236251Y303522D01*
Y317952D01*
X243614Y325315D01*
X249611D01*
Y333583D01*
X241343D01*
Y327586D01*
X233510Y319753D01*
X233162Y319232D01*
X233040Y318617D01*
X233040Y318617D01*
Y284917D01*
X205410Y257287D01*
X205045Y257439D01*
Y257439D01*
X202566D01*
Y286102D01*
X202443Y286717D01*
X202095Y287238D01*
X202095Y287238D01*
X198749Y290584D01*
X198228Y290932D01*
X197614Y291055D01*
X197614Y291055D01*
X181920D01*
X181308Y291842D01*
X181365Y292126D01*
X181325Y292327D01*
X181322Y293009D01*
X181896Y293182D01*
X182167Y293236D01*
X182883Y293714D01*
X183362Y294431D01*
X183530Y295276D01*
X183362Y296121D01*
X182928Y296770D01*
Y347586D01*
X195292Y359950D01*
X195771Y359752D01*
X196850Y359610D01*
X197930Y359752D01*
X198935Y360169D01*
X199799Y360831D01*
X200461Y361695D01*
X200878Y362700D01*
X201020Y363779D01*
X200878Y364859D01*
X200461Y365864D01*
X199799Y366728D01*
X198935Y367390D01*
X197930Y367807D01*
X197326Y367886D01*
X197378Y368674D01*
X206323D01*
X206374Y367886D01*
X205771Y367807D01*
X204766Y367390D01*
X203902Y366728D01*
X203239Y365864D01*
X202823Y364859D01*
X202681Y363779D01*
X202823Y362700D01*
X203239Y361695D01*
X203902Y360831D01*
X204766Y360169D01*
X205771Y359752D01*
X206850Y359610D01*
X207929Y359752D01*
X208935Y360169D01*
X209799Y360831D01*
X210461Y361695D01*
X210878Y362700D01*
X211020Y363779D01*
X210878Y364859D01*
X210461Y365864D01*
X209799Y366728D01*
X208935Y367390D01*
X207929Y367807D01*
X207326Y367886D01*
X207378Y368674D01*
X216323D01*
X216374Y367886D01*
X215771Y367807D01*
X214766Y367390D01*
X213902Y366728D01*
X213240Y365864D01*
X212823Y364859D01*
X212759Y364370D01*
X220942D01*
X220878Y364859D01*
X220461Y365864D01*
X219799Y366728D01*
X218935Y367390D01*
X217930Y367807D01*
X217326Y367886D01*
X217378Y368674D01*
X233564D01*
X233657Y367886D01*
D02*
G37*
G36*
X172716Y367913D02*
X172716D01*
Y359646D01*
X177551D01*
Y339501D01*
X176764Y339113D01*
X176513Y339305D01*
X175555Y339702D01*
X174528Y339837D01*
X170847D01*
X170822Y339874D01*
X170822Y339874D01*
X158653Y352042D01*
X158617Y352067D01*
Y355748D01*
X158481Y356776D01*
X158085Y357733D01*
X157454Y358556D01*
X156631Y359187D01*
X156251Y359344D01*
Y360280D01*
X158144Y362173D01*
X160384D01*
X161018Y362299D01*
X161466Y362598D01*
X163337D01*
X163786Y362299D01*
X164419Y362173D01*
X164625D01*
X164864Y361385D01*
X164543Y361171D01*
X164065Y360455D01*
X164014Y360201D01*
X168195D01*
X168144Y360455D01*
X167666Y361171D01*
X167301Y361415D01*
X167467Y362251D01*
X167710Y362299D01*
X168248Y362658D01*
X168607Y363195D01*
X168733Y363829D01*
Y364764D01*
X165748D01*
Y365945D01*
X168733D01*
Y366880D01*
X168607Y367514D01*
X168358Y367886D01*
X168555Y368468D01*
X168706Y368674D01*
X172651D01*
X172716Y367913D01*
D02*
G37*
G36*
X196374Y367886D02*
X195771Y367807D01*
X194766Y367390D01*
X193902Y366728D01*
X193239Y365864D01*
X192823Y364859D01*
X192681Y363779D01*
X192823Y362700D01*
X193021Y362221D01*
X181490Y350690D01*
X180763Y350991D01*
Y359646D01*
X180984D01*
Y367913D01*
X180984D01*
X181049Y368674D01*
X186323D01*
X186374Y367886D01*
X185771Y367807D01*
X184766Y367390D01*
X183902Y366728D01*
X183239Y365864D01*
X182823Y364859D01*
X182681Y363779D01*
X182823Y362700D01*
X183239Y361695D01*
X183902Y360831D01*
X184766Y360169D01*
X185771Y359752D01*
X186850Y359610D01*
X187929Y359752D01*
X188935Y360169D01*
X189799Y360831D01*
X190461Y361695D01*
X190878Y362700D01*
X191020Y363779D01*
X190878Y364859D01*
X190461Y365864D01*
X189799Y366728D01*
X188935Y367390D01*
X187929Y367807D01*
X187326Y367886D01*
X187378Y368674D01*
X196323D01*
X196374Y367886D01*
D02*
G37*
G36*
X142862Y368468D02*
X143060Y367886D01*
X142811Y367514D01*
X142685Y366880D01*
Y363829D01*
X142811Y363195D01*
X143170Y362658D01*
X143707Y362299D01*
X144064Y362228D01*
Y359642D01*
X143618Y359584D01*
X142660Y359187D01*
X141838Y358556D01*
X141207Y357733D01*
X140810Y356776D01*
X140675Y355748D01*
Y351811D01*
X140810Y350783D01*
X141207Y349826D01*
X141838Y349003D01*
X142660Y348372D01*
X143040Y348215D01*
Y308499D01*
X143040Y308499D01*
X143162Y307884D01*
X143510Y307363D01*
X159031Y291842D01*
X158940Y291398D01*
X158659Y291055D01*
X140630D01*
X140015Y290932D01*
X139495Y290584D01*
X139495Y290584D01*
X133510Y284600D01*
X133162Y284079D01*
X133052Y283522D01*
X132660Y283360D01*
X131838Y282729D01*
X131207Y281907D01*
X130810Y280949D01*
X130675Y279921D01*
Y275984D01*
X130810Y274956D01*
X131207Y273999D01*
X131838Y273176D01*
X132660Y272545D01*
X133618Y272149D01*
X134646Y272013D01*
X135673Y272149D01*
X136631Y272545D01*
X137454Y273176D01*
X138085Y273999D01*
X138481Y274956D01*
X138617Y275984D01*
Y279921D01*
X138481Y280949D01*
X138085Y281907D01*
X137454Y282729D01*
X137207Y282918D01*
X137156Y283704D01*
X141295Y287843D01*
X144111D01*
X144412Y287116D01*
X144247Y286951D01*
X143899Y286430D01*
X143777Y285815D01*
X143777Y285815D01*
Y283778D01*
X143618Y283757D01*
X142660Y283360D01*
X141838Y282729D01*
X141207Y281907D01*
X140810Y280949D01*
X140675Y279921D01*
Y275984D01*
X140810Y274956D01*
X141207Y273999D01*
X141838Y273176D01*
X142660Y272545D01*
X143618Y272149D01*
X144646Y272013D01*
X145673Y272149D01*
X146631Y272545D01*
X147454Y273176D01*
X148085Y273999D01*
X148481Y274956D01*
X148617Y275984D01*
Y279921D01*
X148481Y280949D01*
X148085Y281907D01*
X147454Y282729D01*
X146988Y283086D01*
Y285150D01*
X147634Y285796D01*
X158671D01*
X159130Y285236D01*
X159298Y284391D01*
X159777Y283675D01*
X160493Y283196D01*
X161338Y283029D01*
X162183Y283196D01*
X162899Y283675D01*
X163044Y283893D01*
X164558D01*
X177933Y270518D01*
X178454Y270170D01*
X179068Y270048D01*
X179068Y270048D01*
X185425D01*
Y267579D01*
X165211D01*
Y271105D01*
X165089Y271719D01*
X164741Y272240D01*
X164741Y272240D01*
X163530Y273451D01*
X163377Y274218D01*
X162899Y274934D01*
X162183Y275413D01*
X161338Y275581D01*
X160493Y275413D01*
X159777Y274934D01*
X159298Y274218D01*
X159130Y273373D01*
X159298Y272528D01*
X159777Y271812D01*
X160493Y271333D01*
X161259Y271181D01*
X162000Y270440D01*
Y267579D01*
X161834D01*
Y259409D01*
X165377D01*
Y263494D01*
X165771D01*
Y259409D01*
X190968D01*
Y263494D01*
X191361D01*
Y259409D01*
X194905D01*
Y263290D01*
X195058Y263321D01*
X195579Y263669D01*
X198627Y266717D01*
X199354Y266415D01*
Y257439D01*
X196875D01*
Y253895D01*
Y251367D01*
X194960D01*
X194836Y251552D01*
X188600Y257789D01*
X187818Y258311D01*
X186897Y258494D01*
X185975Y258311D01*
X185193Y257789D01*
X184671Y257008D01*
X184488Y256086D01*
X184671Y255164D01*
X185193Y254383D01*
X190725Y248852D01*
Y231510D01*
X187763Y228548D01*
X166354D01*
X165433Y228365D01*
X164651Y227842D01*
X164129Y227061D01*
X163946Y226139D01*
X164129Y225218D01*
X164651Y224436D01*
X165433Y223914D01*
X166354Y223731D01*
X188761D01*
X189682Y223914D01*
X190464Y224436D01*
X190561Y224534D01*
X191528D01*
Y222397D01*
X162943D01*
Y229017D01*
X162943Y229017D01*
X162821Y229632D01*
X162473Y230153D01*
X162473Y230153D01*
X161414Y231212D01*
X160893Y231560D01*
X160279Y231682D01*
X159863Y232280D01*
Y234376D01*
X173484D01*
X173777Y234181D01*
X174622Y234013D01*
X175467Y234181D01*
X176183Y234659D01*
X176662Y235376D01*
X176830Y236221D01*
X176662Y237065D01*
X176183Y237782D01*
X175467Y238260D01*
X174622Y238428D01*
X173777Y238260D01*
X173061Y237782D01*
X172931Y237588D01*
X170241D01*
X169940Y238315D01*
X178234Y246610D01*
X178436Y246569D01*
X179280Y246738D01*
X179997Y247216D01*
X180475Y247932D01*
X180643Y248777D01*
X180627Y248858D01*
X181297Y249527D01*
X181322Y249522D01*
X182167Y249690D01*
X182883Y250169D01*
X183362Y250885D01*
X183530Y251730D01*
X183362Y252575D01*
X182883Y253291D01*
X182167Y253770D01*
X181322Y253938D01*
X180477Y253770D01*
X179828Y253336D01*
X176444D01*
X175829Y253214D01*
X175308Y252865D01*
X175308Y252865D01*
X163968Y241525D01*
X159863D01*
Y246021D01*
Y249958D01*
Y253895D01*
Y257439D01*
X151694D01*
Y253895D01*
Y251927D01*
Y247990D01*
Y244053D01*
Y240116D01*
Y235619D01*
X137538D01*
X128756Y244401D01*
X128235Y244749D01*
X127621Y244871D01*
X127621Y244871D01*
X109463D01*
X109027Y245307D01*
Y247547D01*
X108900Y248181D01*
X108542Y248718D01*
X108004Y249077D01*
X107371Y249203D01*
X104713D01*
X104079Y249077D01*
X103631Y248777D01*
X101760D01*
X101311Y249077D01*
X100678Y249203D01*
X98020D01*
X97387Y249077D01*
X96849Y248718D01*
X96491Y248181D01*
X96364Y247547D01*
Y246291D01*
X94222D01*
Y247387D01*
X94100Y248002D01*
X93946Y248232D01*
X94179Y248985D01*
X94286Y249102D01*
X94312Y249107D01*
X94833Y249455D01*
X98884Y253506D01*
X99232Y254027D01*
X99354Y254642D01*
Y256502D01*
X99799Y256590D01*
X100247Y256890D01*
X102119D01*
X102567Y256590D01*
X103201Y256464D01*
X103939D01*
Y259646D01*
Y262827D01*
X103201D01*
X102567Y262701D01*
X102119Y262402D01*
X100247D01*
X99799Y262701D01*
X99165Y262827D01*
X96508D01*
X95874Y262701D01*
X95337Y262342D01*
X94978Y261805D01*
X94852Y261171D01*
Y258120D01*
X94978Y257486D01*
X95337Y256949D01*
X95874Y256590D01*
X96143Y256537D01*
Y255307D01*
X93393Y252557D01*
X93390D01*
X92590Y252867D01*
X92514Y253250D01*
X92122Y253836D01*
X92119Y253853D01*
X92479Y254393D01*
X92663Y255315D01*
X92479Y256237D01*
X92043Y256890D01*
X92479Y257543D01*
X92545Y257874D01*
X88581D01*
Y259055D01*
X92545D01*
X92479Y259386D01*
X91957Y260168D01*
X91176Y260690D01*
X90627Y260799D01*
X90157Y261500D01*
X90132Y261660D01*
X90213Y261855D01*
X90321Y262677D01*
X90213Y263499D01*
X89895Y264265D01*
X89390Y264924D01*
X88732Y265428D01*
X87966Y265746D01*
X87144Y265854D01*
X82813D01*
X81991Y265746D01*
X81725Y265635D01*
X81279Y266303D01*
X82319Y267343D01*
X82549Y267389D01*
X83152Y267792D01*
X83554Y268394D01*
X83696Y269104D01*
Y274911D01*
X83554Y275622D01*
X83152Y276224D01*
X82549Y276627D01*
X81839Y276768D01*
X78000D01*
X77290Y276627D01*
X76688Y276224D01*
X76285Y275622D01*
X76144Y274911D01*
Y270153D01*
X75311Y269320D01*
X74806Y268663D01*
X74489Y267896D01*
X74381Y267074D01*
Y255512D01*
Y253898D01*
Y239764D01*
X74489Y238942D01*
X74806Y238175D01*
X75311Y237517D01*
X75969Y237013D01*
X76735Y236695D01*
X77557Y236587D01*
X77856Y236626D01*
X78461Y236022D01*
X79112Y235587D01*
X79557Y235498D01*
X79966Y235191D01*
X80159Y234647D01*
X80112Y234291D01*
X80207Y233572D01*
X80485Y232902D01*
X80927Y232326D01*
X81083Y232206D01*
X81129Y231950D01*
X81025Y231259D01*
X80567Y230908D01*
X80075Y230267D01*
X72441D01*
X71949Y230908D01*
X71292Y231413D01*
X70525Y231730D01*
X69703Y231838D01*
X67341D01*
X66519Y231730D01*
X65753Y231413D01*
X65184Y230977D01*
X64820Y231059D01*
X64397Y231292D01*
Y260046D01*
X64820Y260279D01*
X65184Y260362D01*
X65753Y259926D01*
X66519Y259609D01*
X67341Y259500D01*
X69703D01*
X70525Y259609D01*
X71292Y259926D01*
X71949Y260431D01*
X72454Y261089D01*
X72772Y261855D01*
X72880Y262677D01*
X72772Y263499D01*
X72454Y264265D01*
X71949Y264924D01*
X71292Y265428D01*
X70525Y265746D01*
X69703Y265854D01*
X67341D01*
X66519Y265746D01*
X65753Y265428D01*
X65184Y264992D01*
X64820Y265075D01*
X64397Y265308D01*
Y267681D01*
X65184Y267920D01*
X65270Y267792D01*
X65873Y267389D01*
X66583Y267248D01*
X70041D01*
X70866Y267084D01*
X71711Y267252D01*
X72427Y267730D01*
X72906Y268446D01*
X73074Y269291D01*
X72906Y270136D01*
X72427Y270852D01*
X72278Y270952D01*
Y274911D01*
X72137Y275622D01*
X71734Y276224D01*
X71132Y276627D01*
X70422Y276768D01*
X70050D01*
X69349Y277237D01*
X68504Y277405D01*
X67659Y277237D01*
X66958Y276768D01*
X66583D01*
X65873Y276627D01*
X65270Y276224D01*
X65184Y276096D01*
X64397Y276335D01*
Y351674D01*
X65184Y351767D01*
X65595Y350059D01*
X66425Y348056D01*
X67558Y346206D01*
X68966Y344557D01*
X70616Y343148D01*
X72465Y342015D01*
X74469Y341185D01*
X76578Y340679D01*
X78740Y340509D01*
X80902Y340679D01*
X83011Y341185D01*
X85015Y342015D01*
X86865Y343148D01*
X88514Y344557D01*
X89922Y346206D01*
X91056Y348056D01*
X91886Y350059D01*
X92392Y352168D01*
X92562Y354331D01*
X92392Y356493D01*
X91886Y358602D01*
X91056Y360606D01*
X89922Y362455D01*
X88514Y364104D01*
X86865Y365513D01*
X85015Y366646D01*
X83011Y367476D01*
X81304Y367886D01*
X81397Y368674D01*
X142711D01*
X142862Y368468D01*
D02*
G37*
G36*
X150400Y362299D02*
X151033Y362173D01*
X151417D01*
X151441Y362052D01*
X151789Y361531D01*
X153040Y360280D01*
Y359344D01*
X152660Y359187D01*
X151838Y358556D01*
X151207Y357733D01*
X150810Y356776D01*
X150675Y355748D01*
Y351811D01*
X150810Y350783D01*
X151207Y349826D01*
X151838Y349003D01*
X152660Y348372D01*
X153618Y347975D01*
X154646Y347840D01*
X155673Y347975D01*
X156631Y348372D01*
X157283Y348872D01*
X167092Y339062D01*
X166766Y338275D01*
X164633D01*
X163711Y338091D01*
X162930Y337569D01*
X162408Y336788D01*
X162224Y335866D01*
X162408Y334945D01*
X162930Y334163D01*
X163711Y333641D01*
X164633Y333458D01*
X167476D01*
X167783Y333058D01*
X168605Y332427D01*
X169563Y332031D01*
X170591Y331895D01*
X174528D01*
X175555Y332031D01*
X176513Y332427D01*
X176764Y332620D01*
X177551Y332231D01*
Y329501D01*
X176764Y329113D01*
X176513Y329305D01*
X175555Y329702D01*
X174528Y329837D01*
X170591D01*
X169563Y329702D01*
X168605Y329305D01*
X167783Y328674D01*
X167152Y327852D01*
X166755Y326894D01*
X166620Y325866D01*
X166755Y324838D01*
X167152Y323881D01*
X167783Y323058D01*
X168605Y322427D01*
X169563Y322030D01*
X170591Y321895D01*
X174528D01*
X175555Y322030D01*
X176513Y322427D01*
X176764Y322620D01*
X177551Y322231D01*
Y319501D01*
X176764Y319113D01*
X176513Y319305D01*
X175555Y319702D01*
X174528Y319837D01*
X170591D01*
X169563Y319702D01*
X168605Y319305D01*
X167783Y318674D01*
X167152Y317852D01*
X166755Y316894D01*
X166620Y315866D01*
X166755Y314838D01*
X167152Y313881D01*
X167783Y313058D01*
X168605Y312427D01*
X169563Y312031D01*
X170591Y311895D01*
X174528D01*
X175555Y312031D01*
X176513Y312427D01*
X176764Y312620D01*
X177551Y312231D01*
Y309501D01*
X176764Y309113D01*
X176513Y309305D01*
X175555Y309702D01*
X174528Y309837D01*
X173150D01*
Y305866D01*
X172559D01*
D01*
X173150D01*
Y301895D01*
X174528D01*
X175555Y302030D01*
X176513Y302427D01*
X176764Y302620D01*
X177551Y302231D01*
Y299501D01*
X176764Y299113D01*
X176513Y299305D01*
X175555Y299702D01*
X174528Y299837D01*
X170591D01*
X169563Y299702D01*
X168605Y299305D01*
X167783Y298674D01*
X167152Y297852D01*
X166755Y296894D01*
X166620Y295866D01*
X166755Y294838D01*
X167152Y293881D01*
X167783Y293058D01*
X168605Y292427D01*
X169563Y292031D01*
X170591Y291895D01*
X174528D01*
X175555Y292031D01*
X175596Y292047D01*
X176302Y291663D01*
X175797Y291055D01*
X164017D01*
X163517Y291663D01*
X163546Y291806D01*
X163377Y292651D01*
X162899Y293368D01*
X162183Y293846D01*
X161416Y293999D01*
X146251Y309164D01*
Y348215D01*
X146631Y348372D01*
X147454Y349003D01*
X148085Y349826D01*
X148481Y350783D01*
X148617Y351811D01*
Y355748D01*
X148481Y356776D01*
X148085Y357733D01*
X147454Y358556D01*
X147275Y358693D01*
Y362228D01*
X147632Y362299D01*
X148080Y362598D01*
X149952D01*
X150400Y362299D01*
D02*
G37*
G36*
X248002Y305249D02*
Y303649D01*
X247214Y303204D01*
X246556Y303476D01*
X245477Y303618D01*
X244398Y303476D01*
X243393Y303060D01*
X242529Y302397D01*
X241866Y301534D01*
X241450Y300528D01*
X241308Y299449D01*
X241450Y298370D01*
X241866Y297364D01*
X242529Y296500D01*
X243393Y295838D01*
X244398Y295421D01*
X245477Y295279D01*
X246556Y295421D01*
X247214Y295694D01*
X248002Y295249D01*
Y293649D01*
X247214Y293204D01*
X246556Y293476D01*
X246068Y293541D01*
Y289449D01*
Y285357D01*
X246556Y285421D01*
X247214Y285694D01*
X248002Y285249D01*
Y277502D01*
X242427Y271927D01*
X242036Y271341D01*
X241898Y270650D01*
Y232420D01*
X218172Y208693D01*
X217780Y208107D01*
X217642Y207416D01*
Y193182D01*
X217199D01*
X216445Y193032D01*
X215807Y192605D01*
X215380Y191966D01*
X215230Y191213D01*
Y184713D01*
X215380Y183960D01*
X215807Y183321D01*
X215846Y183295D01*
X215607Y182507D01*
X211675D01*
X211518Y183295D01*
X211557Y183311D01*
X212431Y183981D01*
X213101Y184854D01*
X213522Y185872D01*
X213666Y186963D01*
Y188963D01*
X213522Y190055D01*
X213101Y191072D01*
X212431Y191945D01*
X211557Y192615D01*
X211054Y192824D01*
Y199293D01*
X211489Y199943D01*
X211657Y200787D01*
X211489Y201632D01*
X211010Y202348D01*
X210294Y202827D01*
X209449Y202995D01*
X208604Y202827D01*
X207888Y202348D01*
X207409Y201632D01*
X207241Y200787D01*
X207409Y199943D01*
X207843Y199293D01*
Y192824D01*
X207340Y192615D01*
X206467Y191945D01*
X205797Y191072D01*
X205375Y190055D01*
X205232Y188963D01*
Y186963D01*
X205375Y185872D01*
X205797Y184854D01*
X206467Y183981D01*
X207340Y183311D01*
X207379Y183295D01*
X207223Y182507D01*
X201675D01*
X201519Y183295D01*
X201557Y183311D01*
X202431Y183981D01*
X203101Y184854D01*
X203522Y185872D01*
X203666Y186963D01*
Y188963D01*
X203522Y190055D01*
X203101Y191072D01*
X202431Y191945D01*
X201557Y192615D01*
X201055Y192824D01*
Y197284D01*
X201252Y197580D01*
X201420Y198425D01*
X201252Y199270D01*
X200774Y199986D01*
X200058Y200465D01*
X199213Y200633D01*
X198368Y200465D01*
X197652Y199986D01*
X197173Y199270D01*
X197005Y198425D01*
X197173Y197580D01*
X197652Y196864D01*
X197843Y196736D01*
Y192824D01*
X197340Y192615D01*
X196467Y191945D01*
X195797Y191072D01*
X195375Y190055D01*
X195232Y188963D01*
Y186963D01*
X195375Y185872D01*
X195797Y184854D01*
X196467Y183981D01*
X197340Y183311D01*
X197379Y183295D01*
X197223Y182507D01*
X191675D01*
X191518Y183295D01*
X191557Y183311D01*
X192431Y183981D01*
X193101Y184854D01*
X193522Y185872D01*
X193666Y186963D01*
Y187373D01*
X189449D01*
X185232D01*
Y186963D01*
X185375Y185872D01*
X185797Y184854D01*
X186467Y183981D01*
X187340Y183311D01*
X187379Y183295D01*
X187223Y182507D01*
X160147D01*
X159908Y183295D01*
X159971Y183336D01*
X160493Y184118D01*
X160676Y185039D01*
X160493Y185961D01*
X159971Y186742D01*
X159189Y187265D01*
X158268Y187448D01*
X158056Y188209D01*
Y189743D01*
X158326D01*
X159030Y189883D01*
X159628Y190283D01*
X160027Y190880D01*
X160167Y191585D01*
Y195335D01*
X160027Y196040D01*
X159628Y196637D01*
X159451Y196755D01*
Y197664D01*
X159628Y197783D01*
X160027Y198380D01*
X160167Y199085D01*
Y202406D01*
X163215Y205454D01*
X166054D01*
X166132Y204666D01*
X165680Y204577D01*
X165082Y204177D01*
X164683Y203580D01*
X164543Y202875D01*
Y199125D01*
X164683Y198421D01*
X165082Y197823D01*
X165260Y197705D01*
Y196796D01*
X165082Y196677D01*
X164683Y196080D01*
X164543Y195375D01*
Y191625D01*
X164683Y190921D01*
X164749Y190823D01*
Y188776D01*
X164651Y188711D01*
X164129Y187930D01*
X163946Y187008D01*
X164129Y186086D01*
X164651Y185305D01*
X165433Y184783D01*
X166354Y184599D01*
X167276Y184783D01*
X167929Y185219D01*
X168582Y184783D01*
X169504Y184599D01*
X170426Y184783D01*
X171207Y185305D01*
X171272Y185402D01*
X173619D01*
X173619Y185402D01*
X174233Y185524D01*
X174754Y185872D01*
X178625Y189743D01*
X181946D01*
X182650Y189883D01*
X183248Y190283D01*
X183647Y190880D01*
X183787Y191585D01*
Y194284D01*
X184337Y194509D01*
X184574Y194559D01*
X185069Y194229D01*
X185702Y194103D01*
X186637D01*
Y197088D01*
X187228D01*
Y197678D01*
X190409D01*
Y198416D01*
X190283Y199050D01*
X189984Y199498D01*
Y201370D01*
X190283Y201818D01*
X190409Y202452D01*
Y205109D01*
X190283Y205743D01*
X189924Y206280D01*
X189387Y206639D01*
X188753Y206765D01*
X186865D01*
Y214228D01*
X190968D01*
Y218313D01*
X191361D01*
Y214228D01*
X193175D01*
X193330Y214197D01*
X193330Y214197D01*
X196817D01*
X198264Y212750D01*
X197938Y211963D01*
X196285D01*
X195651Y211837D01*
X195114Y211478D01*
X194755Y210941D01*
X194629Y210307D01*
Y209698D01*
X193842Y209193D01*
X193330Y209294D01*
X192485Y209126D01*
X191769Y208648D01*
X191290Y207931D01*
X191122Y207087D01*
X191290Y206242D01*
X191724Y205592D01*
Y202495D01*
X191290Y201845D01*
X191122Y201000D01*
X191290Y200155D01*
X191769Y199439D01*
X192485Y198961D01*
X193330Y198793D01*
X194175Y198961D01*
X194891Y199439D01*
X195370Y200155D01*
X195538Y201000D01*
X195370Y201845D01*
X194936Y202495D01*
Y205257D01*
X195651Y205726D01*
X196285Y205600D01*
X197023D01*
Y208782D01*
X198204D01*
Y205600D01*
X198942D01*
X199576Y205726D01*
X200024Y206026D01*
X201896D01*
X202344Y205726D01*
X202978Y205600D01*
X205635D01*
X206269Y205726D01*
X206806Y206085D01*
X207165Y206622D01*
X207291Y207256D01*
Y210307D01*
X207165Y210941D01*
X206806Y211478D01*
X206269Y211837D01*
X205635Y211963D01*
X203593D01*
X198617Y216938D01*
X198096Y217286D01*
X197482Y217408D01*
X197482Y217408D01*
X194905D01*
Y222397D01*
X194739D01*
Y224534D01*
X196875D01*
Y224368D01*
X205045D01*
Y224534D01*
X212034D01*
X212146Y223973D01*
X212505Y223435D01*
X213042Y223076D01*
X213676Y222950D01*
X216727D01*
X217360Y223076D01*
X217898Y223435D01*
X218814D01*
X219351Y223076D01*
X219985Y222950D01*
X223036D01*
X223670Y223076D01*
X224207Y223435D01*
X224566Y223973D01*
X224692Y224606D01*
Y227264D01*
X224566Y227897D01*
X224266Y228345D01*
Y230217D01*
X224566Y230665D01*
X224692Y231299D01*
Y232037D01*
X221511D01*
Y233218D01*
X224692D01*
Y233957D01*
X224566Y234590D01*
X224207Y235127D01*
X223670Y235486D01*
X223312Y235558D01*
X223390Y236345D01*
X227127D01*
X227127Y236345D01*
X227741Y236467D01*
X228262Y236815D01*
X234013Y242566D01*
X234013Y242566D01*
X234361Y243087D01*
X234484Y243701D01*
X236028D01*
Y250001D01*
X234484D01*
Y251181D01*
X234484Y251181D01*
X234361Y251796D01*
X234013Y252316D01*
X228973Y257357D01*
Y258785D01*
X234013Y263825D01*
X234361Y264346D01*
X234484Y264961D01*
X235225Y264961D01*
X236028D01*
Y271260D01*
X229728D01*
Y266330D01*
X228941Y266252D01*
X228847Y266726D01*
X228488Y267263D01*
X227951Y267622D01*
X227317Y267748D01*
X226382D01*
Y264764D01*
X225791D01*
Y264173D01*
X222610D01*
Y263435D01*
X222736Y262801D01*
X223035Y262353D01*
Y260481D01*
X222736Y260033D01*
X222610Y259400D01*
Y256742D01*
X222736Y256108D01*
X223095Y255571D01*
X223632Y255212D01*
X224266Y255086D01*
X226702D01*
X231000Y250788D01*
X230674Y250001D01*
X229728D01*
Y243702D01*
X229728D01*
X229986Y243080D01*
X226462Y239556D01*
X205045D01*
Y244053D01*
Y248156D01*
X212195D01*
Y246857D01*
X211895Y246409D01*
X211769Y245775D01*
Y245037D01*
X214951D01*
X218132D01*
Y245775D01*
X218006Y246409D01*
X217706Y246857D01*
Y248729D01*
X218006Y249177D01*
X218132Y249811D01*
Y252468D01*
X218006Y253102D01*
X217647Y253639D01*
X217110Y253998D01*
X216476Y254124D01*
X213425D01*
X212791Y253998D01*
X212254Y253639D01*
X211895Y253102D01*
X211769Y252468D01*
Y251367D01*
X208210D01*
X207909Y252095D01*
X221822Y266008D01*
X222610Y265682D01*
Y265354D01*
X225201D01*
Y267748D01*
X224676D01*
X224350Y268536D01*
X237356Y281542D01*
X237356Y281542D01*
X237704Y282063D01*
X237826Y282677D01*
X237826Y282677D01*
Y299527D01*
X243919Y305620D01*
X244398Y305421D01*
X245477Y305279D01*
X246556Y305421D01*
X247214Y305694D01*
X248002Y305249D01*
D02*
G37*
G36*
X196992Y284833D02*
Y269623D01*
X195445Y268077D01*
X194905Y267579D01*
Y267579D01*
X194905Y267579D01*
X190802D01*
Y269909D01*
X190848Y270141D01*
X190848Y270141D01*
Y273435D01*
X190848Y273435D01*
X190726Y274050D01*
X190378Y274571D01*
X189282Y275666D01*
X189305Y275781D01*
X189122Y276703D01*
X188600Y277484D01*
X183882Y282202D01*
X183101Y282724D01*
X182179Y282907D01*
X175277D01*
X174355Y282724D01*
X173574Y282202D01*
X173052Y281420D01*
X172991Y281115D01*
X172137Y280855D01*
X167924Y285068D01*
X168225Y285796D01*
X196029D01*
X196992Y284833D01*
D02*
G37*
G36*
X247642Y243701D02*
X250201D01*
X250564Y243064D01*
Y193495D01*
X247564Y190496D01*
X246941Y190986D01*
X247129Y191292D01*
X247864Y193067D01*
X248312Y194935D01*
X248463Y196850D01*
X248312Y198766D01*
X247864Y200634D01*
X247129Y202408D01*
X246125Y204046D01*
X244877Y205507D01*
X243416Y206755D01*
X241778Y207758D01*
X240004Y208494D01*
X238136Y208942D01*
X236221Y209093D01*
X234305Y208942D01*
X232437Y208494D01*
X230662Y207758D01*
X229025Y206755D01*
X227564Y205507D01*
X226316Y204046D01*
X225312Y202408D01*
X224577Y200634D01*
X224129Y198766D01*
X223978Y196850D01*
X224129Y194935D01*
X224577Y193067D01*
X225312Y191292D01*
X226316Y189654D01*
X227564Y188194D01*
X229025Y186946D01*
X230662Y185942D01*
X232437Y185207D01*
X234305Y184759D01*
X236221Y184608D01*
X238136Y184759D01*
X240004Y185207D01*
X241778Y185942D01*
X242085Y186130D01*
X242575Y185507D01*
X239576Y182507D01*
X223291D01*
X223052Y183295D01*
X223091Y183321D01*
X223518Y183960D01*
X223668Y184713D01*
Y191213D01*
X223518Y191966D01*
X223091Y192605D01*
X222452Y193032D01*
X221699Y193182D01*
X221255D01*
Y206667D01*
X244982Y230394D01*
X245374Y230980D01*
X245511Y231671D01*
Y243701D01*
X246461D01*
Y246851D01*
X247642D01*
Y243701D01*
D02*
G37*
G36*
X135008Y231381D02*
X134740Y230980D01*
X134614Y230346D01*
Y229608D01*
X137795D01*
Y228427D01*
X134614D01*
Y227689D01*
X134740Y227055D01*
X135039Y226607D01*
Y224735D01*
X135038Y224733D01*
X124037D01*
X124036Y226388D01*
X123989Y226623D01*
X123945Y226848D01*
X123945Y226848D01*
X123944Y226848D01*
X123813Y227045D01*
X123684Y227239D01*
X123684Y227239D01*
X123683Y227239D01*
X123489Y227369D01*
X123293Y227500D01*
X123293Y227500D01*
X123293Y227500D01*
X123067Y227545D01*
X122832Y227591D01*
X91339Y227591D01*
X90929Y227510D01*
X90676Y227626D01*
X90236Y228018D01*
X90321Y228661D01*
X90213Y229484D01*
X90132Y229678D01*
X90157Y229839D01*
X90627Y230540D01*
X91176Y230649D01*
X91957Y231171D01*
X92479Y231952D01*
X92545Y232283D01*
X88581D01*
Y233465D01*
X92545D01*
X92479Y233796D01*
X92043Y234449D01*
X92456Y235066D01*
X92550Y235167D01*
X93294Y235341D01*
X96427Y232208D01*
Y231742D01*
X96553Y231109D01*
X96912Y230571D01*
X97449Y230212D01*
X98083Y230086D01*
X99281D01*
X99410Y230061D01*
X99539Y230086D01*
X100740D01*
X101374Y230212D01*
X101822Y230512D01*
X103694D01*
X104142Y230212D01*
X104776Y230086D01*
X105514D01*
Y233268D01*
X106104D01*
Y233858D01*
X109089D01*
Y234793D01*
X108963Y235427D01*
X108604Y235964D01*
X108128Y236282D01*
X108067Y236666D01*
X108094Y237121D01*
X108542Y237419D01*
X108900Y237957D01*
X109027Y238590D01*
Y240085D01*
X126303D01*
X135008Y231381D01*
D02*
G37*
G36*
X122833Y223669D02*
X120472Y221309D01*
X92913D01*
X91339Y222884D01*
X91339Y226387D01*
X122832Y226387D01*
X122833Y223669D01*
D02*
G37*
G36*
X80567Y226415D02*
X81225Y225910D01*
X81991Y225593D01*
X82813Y225485D01*
X87144D01*
X87966Y225593D01*
X88732Y225910D01*
X89347Y226382D01*
X89543Y226349D01*
X90134Y226091D01*
X90134Y222884D01*
X90226Y222423D01*
X90487Y222033D01*
X90487Y222033D01*
X92062Y220458D01*
X92062Y220458D01*
X92453Y220197D01*
X92913Y220105D01*
X92913Y220105D01*
X93444D01*
X93502Y220094D01*
X100195D01*
X100253Y220105D01*
X106070D01*
Y219833D01*
X106200Y219180D01*
X106570Y218627D01*
X107123Y218257D01*
X107573Y218167D01*
Y217365D01*
X107123Y217275D01*
X106570Y216905D01*
X106200Y216352D01*
X106070Y215699D01*
Y214813D01*
X110040D01*
X114010D01*
Y215699D01*
X113880Y216352D01*
X113510Y216905D01*
X112957Y217275D01*
X112507Y217365D01*
Y218167D01*
X112957Y218257D01*
X113510Y218627D01*
X113880Y219180D01*
X114010Y219833D01*
Y220105D01*
X117764D01*
Y215189D01*
X117205D01*
X116590Y215067D01*
X116069Y214719D01*
X115721Y214198D01*
X115599Y213584D01*
Y211221D01*
X115721Y210607D01*
X116069Y210086D01*
X116590Y209738D01*
X117205Y209616D01*
X121535D01*
X122150Y209738D01*
X122671Y210086D01*
X123019Y210607D01*
X123141Y211221D01*
Y213584D01*
X123019Y214198D01*
X122671Y214719D01*
X122150Y215067D01*
X121535Y215189D01*
X120976D01*
Y219916D01*
X135038D01*
X135099Y219825D01*
X135636Y219466D01*
X136270Y219340D01*
X139321D01*
X139954Y219466D01*
X140492Y219825D01*
X140553Y219916D01*
X142125D01*
X142185Y219825D01*
X142723Y219466D01*
X143356Y219340D01*
X146407D01*
X147041Y219466D01*
X147578Y219825D01*
X147639Y219916D01*
X151415D01*
X151983Y219803D01*
X152905Y219986D01*
X153687Y220508D01*
X154209Y221290D01*
X154392Y222211D01*
X154209Y223133D01*
X153910Y223581D01*
X154317Y224368D01*
X159732D01*
Y219984D01*
X149779Y210031D01*
X143555D01*
Y211238D01*
X143391Y212064D01*
X142923Y212765D01*
X142222Y213233D01*
X141395Y213398D01*
X135770D01*
X134943Y213233D01*
X134243Y212765D01*
X133774Y212064D01*
X133610Y211238D01*
Y205613D01*
X133774Y204786D01*
X134243Y204085D01*
X134943Y203617D01*
X135770Y203453D01*
X135787D01*
X135994Y202969D01*
X136008Y202665D01*
X135066Y201942D01*
X134275Y200912D01*
X133779Y199713D01*
X133687Y199016D01*
X138583D01*
Y197835D01*
X133687D01*
X133779Y197138D01*
X134275Y195938D01*
X135066Y194908D01*
X136096Y194118D01*
X136739Y193851D01*
Y192999D01*
X136096Y192733D01*
X135066Y191942D01*
X134275Y190912D01*
X133779Y189713D01*
X133609Y188425D01*
X133779Y187138D01*
X134275Y185938D01*
X135066Y184908D01*
X136096Y184118D01*
X137295Y183621D01*
X138583Y183451D01*
X139870Y183621D01*
X141069Y184118D01*
X142100Y184908D01*
X142890Y185938D01*
X143387Y187138D01*
X143556Y188425D01*
X143387Y189713D01*
X143022Y190594D01*
X145781Y193353D01*
X145781Y193353D01*
X146129Y193874D01*
X146251Y194488D01*
Y198688D01*
X161293Y213730D01*
X161834Y214228D01*
Y214228D01*
X161834Y214228D01*
X171843D01*
Y209081D01*
X171427Y208665D01*
X162550D01*
X161936Y208543D01*
X161415Y208195D01*
X161415Y208195D01*
X157896Y204676D01*
X154576D01*
X153871Y204536D01*
X153273Y204137D01*
X152874Y203540D01*
X152734Y202835D01*
Y199085D01*
X152874Y198380D01*
X153273Y197783D01*
X153451Y197664D01*
Y196755D01*
X153273Y196637D01*
X152874Y196040D01*
X152734Y195335D01*
Y191585D01*
X152874Y190880D01*
X153273Y190283D01*
X153871Y189883D01*
X154576Y189743D01*
X154845D01*
Y186856D01*
X154845Y186856D01*
X154967Y186242D01*
X155315Y185721D01*
X155882Y185154D01*
X155859Y185039D01*
X156043Y184118D01*
X156565Y183336D01*
X156627Y183295D01*
X156388Y182507D01*
X105936D01*
X105725Y182769D01*
X105447Y183295D01*
X105548Y183803D01*
Y185476D01*
X102366D01*
Y186658D01*
X105548D01*
Y188331D01*
X105418Y188984D01*
X105049Y189537D01*
X104495Y189907D01*
X103990Y190007D01*
X103845Y190474D01*
X103847Y190822D01*
X104118Y191004D01*
X104444Y191492D01*
X104558Y192068D01*
Y192135D01*
X105995D01*
X106706Y191425D01*
X107227Y191077D01*
X107842Y190954D01*
X107842Y190954D01*
X109608D01*
X109814Y190599D01*
X109934Y190167D01*
X109526Y189556D01*
X109475Y189302D01*
X113656D01*
X113605Y189556D01*
X113197Y190167D01*
X113317Y190599D01*
X113523Y190954D01*
X115562D01*
X115562Y190954D01*
X115704Y190982D01*
X116014Y190386D01*
X116048Y190248D01*
X115721Y189759D01*
X115599Y189144D01*
Y188554D01*
X118780D01*
Y190750D01*
X117205D01*
X117135Y190736D01*
X116734Y191377D01*
X116732Y191458D01*
X118323Y193050D01*
X121535D01*
X122150Y193173D01*
X122671Y193521D01*
X123019Y194042D01*
X123141Y194656D01*
Y197018D01*
X123019Y197633D01*
X122671Y198153D01*
X122150Y198502D01*
X121535Y198624D01*
X120976D01*
Y201742D01*
X121535D01*
X122150Y201864D01*
X122671Y202212D01*
X123019Y202733D01*
X123141Y203347D01*
Y205710D01*
X123019Y206324D01*
X122671Y206845D01*
X122150Y207193D01*
X121535Y207315D01*
X117205D01*
X116590Y207193D01*
X116069Y206845D01*
X115721Y206324D01*
X115599Y205710D01*
Y203347D01*
X115721Y202733D01*
X116069Y202212D01*
X116590Y201864D01*
X117205Y201742D01*
X117764D01*
Y198624D01*
X117205D01*
X116590Y198502D01*
X116069Y198153D01*
X115721Y197633D01*
X115599Y197018D01*
Y194867D01*
X114897Y194166D01*
X113236D01*
X113221Y194184D01*
Y196841D01*
X113095Y197475D01*
X112796Y197923D01*
Y199795D01*
X113095Y200243D01*
X113221Y200877D01*
Y203534D01*
X113095Y204168D01*
X112736Y204705D01*
X112199Y205064D01*
X111566Y205190D01*
X109064D01*
X108659Y205461D01*
X108045Y205583D01*
X108045Y205583D01*
X104558D01*
Y205650D01*
X104444Y206227D01*
X104118Y206715D01*
X103629Y207041D01*
X103053Y207156D01*
X101281D01*
X100705Y207041D01*
X100297Y206768D01*
X99889Y207041D01*
X99313Y207156D01*
X98943D01*
X98603Y207455D01*
X98419Y207943D01*
X98650Y208283D01*
X100195D01*
X100886Y208420D01*
X101256Y208667D01*
X101575D01*
X102036Y208759D01*
X102426Y209020D01*
X102687Y209411D01*
X102779Y209872D01*
X102779Y213723D01*
X102774Y213747D01*
X102778Y213771D01*
X102729Y213976D01*
X102687Y214184D01*
X102674Y214204D01*
X102668Y214228D01*
X102437Y214727D01*
X102313Y214898D01*
X102196Y215074D01*
X102175Y215088D01*
X102161Y215107D01*
X101981Y215218D01*
X101805Y215335D01*
X101781Y215340D01*
X101760Y215353D01*
X101551Y215386D01*
X101344Y215427D01*
X100253D01*
X100195Y215439D01*
X93502D01*
X93444Y215427D01*
X92167D01*
X91941Y215382D01*
X91710Y215337D01*
X91708Y215336D01*
X91706Y215335D01*
X91514Y215207D01*
X91318Y215077D01*
X91317Y215075D01*
X91316Y215074D01*
X91187Y214882D01*
X91056Y214687D01*
X91056Y214685D01*
X91055Y214684D01*
X91009Y214455D01*
X90963Y214226D01*
X90935Y204830D01*
X90147Y204609D01*
X89922Y204975D01*
X88514Y206624D01*
X86865Y208033D01*
X85015Y209166D01*
X83011Y209996D01*
X80902Y210502D01*
X78740Y210672D01*
X76578Y210502D01*
X74469Y209996D01*
X72465Y209166D01*
X70616Y208033D01*
X68966Y206624D01*
X67558Y204975D01*
X66425Y203126D01*
X65595Y201122D01*
X65184Y199414D01*
X64397Y199507D01*
Y226031D01*
X64820Y226264D01*
X65184Y226346D01*
X65753Y225910D01*
X66519Y225593D01*
X67341Y225485D01*
X69428D01*
X72605Y222307D01*
Y220686D01*
X72249Y220615D01*
X71711Y220256D01*
X71352Y219719D01*
X71226Y219085D01*
Y216034D01*
X71352Y215401D01*
X71711Y214863D01*
X72249Y214505D01*
X72882Y214378D01*
X75540D01*
X76173Y214505D01*
X76622Y214804D01*
X78493D01*
X78942Y214505D01*
X79575Y214378D01*
X80313D01*
Y217560D01*
Y220741D01*
X79575D01*
X78942Y220615D01*
X78493Y220316D01*
X76622D01*
X76173Y220615D01*
X75817Y220686D01*
Y222972D01*
X75817Y222972D01*
X75694Y223587D01*
X75346Y224108D01*
X73186Y226268D01*
X73512Y227056D01*
X80075D01*
X80567Y226415D01*
D02*
G37*
G36*
X101575Y213723D02*
X101575Y209872D01*
X98649D01*
X97133Y208979D01*
X96069Y207060D01*
X96063Y205946D01*
X96063Y202597D01*
X95474Y202009D01*
X94109Y202009D01*
X92137Y203982D01*
X92167Y214223D01*
X101344D01*
X101575Y213723D01*
D02*
G37*
%LPC*%
G36*
X220942Y363189D02*
X217441D01*
Y359688D01*
X217930Y359752D01*
X218935Y360169D01*
X219799Y360831D01*
X220461Y361695D01*
X220878Y362700D01*
X220942Y363189D01*
D02*
G37*
G36*
X216260D02*
X212759D01*
X212823Y362700D01*
X213240Y361695D01*
X213902Y360831D01*
X214766Y360169D01*
X215771Y359752D01*
X216260Y359688D01*
Y363189D01*
D02*
G37*
G36*
X219526Y339575D02*
Y338075D01*
X221025D01*
X220975Y338329D01*
X220496Y339046D01*
X219780Y339524D01*
X219526Y339575D01*
D02*
G37*
G36*
X218345D02*
X218090Y339524D01*
X217374Y339046D01*
X216895Y338329D01*
X216845Y338075D01*
X218345D01*
Y339575D01*
D02*
G37*
G36*
X221025Y336894D02*
X219526D01*
Y335394D01*
X219780Y335445D01*
X220496Y335923D01*
X220975Y336640D01*
X221025Y336894D01*
D02*
G37*
G36*
X218345D02*
X216845D01*
X216895Y336640D01*
X217374Y335923D01*
X218090Y335445D01*
X218345Y335394D01*
Y336894D01*
D02*
G37*
G36*
X227717Y322618D02*
Y321118D01*
X229217D01*
X229167Y321373D01*
X228688Y322089D01*
X227972Y322568D01*
X227717Y322618D01*
D02*
G37*
G36*
X226536D02*
X226282Y322568D01*
X225566Y322089D01*
X225087Y321373D01*
X225037Y321118D01*
X226536D01*
Y322618D01*
D02*
G37*
G36*
X229217Y319937D02*
X227717D01*
Y318438D01*
X227972Y318488D01*
X228688Y318967D01*
X229167Y319683D01*
X229217Y319937D01*
D02*
G37*
G36*
X226536D02*
X225037D01*
X225087Y319683D01*
X225566Y318967D01*
X226282Y318488D01*
X226536Y318438D01*
Y319937D01*
D02*
G37*
G36*
X227717Y297928D02*
Y296428D01*
X229217D01*
X229167Y296683D01*
X228688Y297399D01*
X227972Y297878D01*
X227717Y297928D01*
D02*
G37*
G36*
X226536D02*
X226282Y297878D01*
X225566Y297399D01*
X225087Y296683D01*
X225037Y296428D01*
X226536D01*
Y297928D01*
D02*
G37*
G36*
X229217Y295247D02*
X227717D01*
Y293748D01*
X227972Y293798D01*
X228688Y294277D01*
X229167Y294993D01*
X229217Y295247D01*
D02*
G37*
G36*
X226536D02*
X225037D01*
X225087Y294993D01*
X225566Y294277D01*
X226282Y293798D01*
X226536Y293748D01*
Y295247D01*
D02*
G37*
G36*
X219345Y283997D02*
Y282497D01*
X220845D01*
X220794Y282752D01*
X220316Y283468D01*
X219599Y283946D01*
X219345Y283997D01*
D02*
G37*
G36*
X218164D02*
X217910Y283946D01*
X217193Y283468D01*
X216715Y282752D01*
X216664Y282497D01*
X218164D01*
Y283997D01*
D02*
G37*
G36*
X220845Y281316D02*
X219345D01*
Y279817D01*
X219599Y279867D01*
X220316Y280346D01*
X220794Y281062D01*
X220845Y281316D01*
D02*
G37*
G36*
X218164D02*
X216664D01*
X216715Y281062D01*
X217193Y280346D01*
X217910Y279867D01*
X218164Y279817D01*
Y281316D01*
D02*
G37*
G36*
X168195Y359019D02*
X166695D01*
Y357520D01*
X166949Y357570D01*
X167666Y358049D01*
X168144Y358765D01*
X168195Y359019D01*
D02*
G37*
G36*
X165514D02*
X164014D01*
X164065Y358765D01*
X164543Y358049D01*
X165260Y357570D01*
X165514Y357520D01*
Y359019D01*
D02*
G37*
G36*
X115236Y359641D02*
Y354370D01*
X118617D01*
Y355748D01*
X118481Y356776D01*
X118085Y357733D01*
X117454Y358556D01*
X116631Y359187D01*
X115673Y359584D01*
X115236Y359641D01*
D02*
G37*
G36*
X114055D02*
X113618Y359584D01*
X112660Y359187D01*
X111838Y358556D01*
X111207Y357733D01*
X110810Y356776D01*
X110675Y355748D01*
Y354370D01*
X114055D01*
Y359641D01*
D02*
G37*
G36*
X118617Y353189D02*
X115236D01*
Y347918D01*
X115673Y347975D01*
X116631Y348372D01*
X117454Y349003D01*
X118085Y349826D01*
X118481Y350783D01*
X118617Y351811D01*
Y353189D01*
D02*
G37*
G36*
X114055D02*
X110675D01*
Y351811D01*
X110810Y350783D01*
X111207Y349826D01*
X111838Y349003D01*
X112660Y348372D01*
X113618Y347975D01*
X114055Y347918D01*
Y353189D01*
D02*
G37*
G36*
X134646Y359719D02*
X133618Y359584D01*
X132660Y359187D01*
X131838Y358556D01*
X131207Y357733D01*
X130810Y356776D01*
X130675Y355748D01*
Y351811D01*
X130810Y350783D01*
X131207Y349826D01*
X131838Y349003D01*
X132660Y348372D01*
X133618Y347975D01*
X134646Y347840D01*
X135673Y347975D01*
X136631Y348372D01*
X137454Y349003D01*
X138085Y349826D01*
X138481Y350783D01*
X138617Y351811D01*
Y355748D01*
X138481Y356776D01*
X138085Y357733D01*
X137454Y358556D01*
X136631Y359187D01*
X135673Y359584D01*
X134646Y359719D01*
D02*
G37*
G36*
X124646D02*
X123618Y359584D01*
X122660Y359187D01*
X121838Y358556D01*
X121207Y357733D01*
X120810Y356776D01*
X120675Y355748D01*
Y351811D01*
X120810Y350783D01*
X121207Y349826D01*
X121838Y349003D01*
X122660Y348372D01*
X123618Y347975D01*
X124646Y347840D01*
X125673Y347975D01*
X126631Y348372D01*
X127454Y349003D01*
X128085Y349826D01*
X128481Y350783D01*
X128617Y351811D01*
Y355748D01*
X128481Y356776D01*
X128085Y357733D01*
X127454Y358556D01*
X126631Y359187D01*
X125673Y359584D01*
X124646Y359719D01*
D02*
G37*
G36*
X115551Y345397D02*
Y343898D01*
X117051D01*
X117000Y344152D01*
X116522Y344868D01*
X115805Y345347D01*
X115551Y345397D01*
D02*
G37*
G36*
X114370D02*
X114116Y345347D01*
X113400Y344868D01*
X112921Y344152D01*
X112870Y343898D01*
X114370D01*
Y345397D01*
D02*
G37*
G36*
X117051Y342717D02*
X115551D01*
Y341217D01*
X115805Y341267D01*
X116522Y341746D01*
X117000Y342462D01*
X117051Y342717D01*
D02*
G37*
G36*
X114370D02*
X112870D01*
X112921Y342462D01*
X113400Y341746D01*
X114116Y341267D01*
X114370Y341217D01*
Y342717D01*
D02*
G37*
G36*
X120276Y335971D02*
Y334471D01*
X121775D01*
X121725Y334725D01*
X121246Y335442D01*
X120530Y335920D01*
X120276Y335971D01*
D02*
G37*
G36*
X119095D02*
X118840Y335920D01*
X118124Y335442D01*
X117645Y334725D01*
X117595Y334471D01*
X119095D01*
Y335971D01*
D02*
G37*
G36*
X98701Y339837D02*
X94764D01*
X93736Y339702D01*
X92778Y339305D01*
X91956Y338674D01*
X91325Y337852D01*
X90928Y336894D01*
X90793Y335866D01*
X90928Y334838D01*
X91325Y333881D01*
X91956Y333058D01*
X92778Y332427D01*
X93736Y332031D01*
X94764Y331895D01*
X98701D01*
X99729Y332031D01*
X100686Y332427D01*
X101509Y333058D01*
X102140Y333881D01*
X102536Y334838D01*
X102672Y335866D01*
X102536Y336894D01*
X102140Y337852D01*
X101509Y338674D01*
X100686Y339305D01*
X99729Y339702D01*
X98701Y339837D01*
D02*
G37*
G36*
X121775Y333290D02*
X120276D01*
Y331790D01*
X120530Y331841D01*
X121246Y332319D01*
X121725Y333036D01*
X121775Y333290D01*
D02*
G37*
G36*
X119095D02*
X117595D01*
X117645Y333036D01*
X118124Y332319D01*
X118840Y331841D01*
X119095Y331790D01*
Y333290D01*
D02*
G37*
G36*
X76968Y326929D02*
Y325429D01*
X78468D01*
X78418Y325683D01*
X77939Y326399D01*
X77223Y326878D01*
X76968Y326929D01*
D02*
G37*
G36*
X75787D02*
X75533Y326878D01*
X74817Y326399D01*
X74338Y325683D01*
X74288Y325429D01*
X75787D01*
Y326929D01*
D02*
G37*
G36*
X78468Y324248D02*
X76968D01*
Y322748D01*
X77223Y322799D01*
X77939Y323277D01*
X78418Y323993D01*
X78468Y324248D01*
D02*
G37*
G36*
X75787D02*
X74288D01*
X74338Y323993D01*
X74817Y323277D01*
X75533Y322799D01*
X75787Y322748D01*
Y324248D01*
D02*
G37*
G36*
X128937Y324084D02*
Y322584D01*
X130437D01*
X130386Y322838D01*
X129908Y323555D01*
X129191Y324033D01*
X128937Y324084D01*
D02*
G37*
G36*
X127756D02*
X127502Y324033D01*
X126785Y323555D01*
X126307Y322838D01*
X126256Y322584D01*
X127756D01*
Y324084D01*
D02*
G37*
G36*
X98701Y329837D02*
X94764D01*
X93736Y329702D01*
X92778Y329305D01*
X91956Y328674D01*
X91325Y327852D01*
X90928Y326894D01*
X90793Y325866D01*
X90928Y324838D01*
X91325Y323881D01*
X91956Y323058D01*
X92778Y322427D01*
X93736Y322030D01*
X94764Y321895D01*
X98701D01*
X99729Y322030D01*
X100686Y322427D01*
X101509Y323058D01*
X102140Y323881D01*
X102536Y324838D01*
X102672Y325866D01*
X102536Y326894D01*
X102140Y327852D01*
X101509Y328674D01*
X100686Y329305D01*
X99729Y329702D01*
X98701Y329837D01*
D02*
G37*
G36*
X130437Y321403D02*
X128937D01*
Y319903D01*
X129191Y319954D01*
X129908Y320432D01*
X130386Y321149D01*
X130437Y321403D01*
D02*
G37*
G36*
X127756D02*
X126256D01*
X126307Y321149D01*
X126785Y320432D01*
X127502Y319954D01*
X127756Y319903D01*
Y321403D01*
D02*
G37*
G36*
X86604Y319942D02*
Y318442D01*
X88104D01*
X88054Y318696D01*
X87575Y319413D01*
X86859Y319891D01*
X86604Y319942D01*
D02*
G37*
G36*
X85423D02*
X85169Y319891D01*
X84453Y319413D01*
X83974Y318696D01*
X83924Y318442D01*
X85423D01*
Y319942D01*
D02*
G37*
G36*
X88104Y317261D02*
X86604D01*
Y315761D01*
X86859Y315812D01*
X87575Y316290D01*
X88054Y317007D01*
X88104Y317261D01*
D02*
G37*
G36*
X85423D02*
X83924D01*
X83974Y317007D01*
X84453Y316290D01*
X85169Y315812D01*
X85423Y315761D01*
Y317261D01*
D02*
G37*
G36*
X98701Y319837D02*
X94764D01*
X93736Y319702D01*
X92778Y319305D01*
X91956Y318674D01*
X91325Y317852D01*
X90928Y316894D01*
X90793Y315866D01*
X90928Y314838D01*
X91325Y313881D01*
X91956Y313058D01*
X92778Y312427D01*
X93736Y312031D01*
X94764Y311895D01*
X98701D01*
X99729Y312031D01*
X100686Y312427D01*
X101509Y313058D01*
X102140Y313881D01*
X102536Y314838D01*
X102672Y315866D01*
X102536Y316894D01*
X102140Y317852D01*
X101509Y318674D01*
X100686Y319305D01*
X99729Y319702D01*
X98701Y319837D01*
D02*
G37*
G36*
X120276Y307366D02*
Y305866D01*
X121775D01*
X121725Y306120D01*
X121246Y306837D01*
X120530Y307315D01*
X120276Y307366D01*
D02*
G37*
G36*
X119095D02*
X118840Y307315D01*
X118124Y306837D01*
X117645Y306120D01*
X117595Y305866D01*
X119095D01*
Y307366D01*
D02*
G37*
G36*
X121775Y304685D02*
X120276D01*
Y303185D01*
X120530Y303236D01*
X121246Y303714D01*
X121725Y304431D01*
X121775Y304685D01*
D02*
G37*
G36*
X119095D02*
X117595D01*
X117645Y304431D01*
X118124Y303714D01*
X118840Y303236D01*
X119095Y303185D01*
Y304685D01*
D02*
G37*
G36*
X98701Y309837D02*
X94764D01*
X93736Y309702D01*
X92778Y309305D01*
X91956Y308674D01*
X91325Y307852D01*
X90928Y306894D01*
X90793Y305866D01*
X90928Y304838D01*
X91325Y303881D01*
X91956Y303058D01*
X92778Y302427D01*
X93736Y302030D01*
X94764Y301895D01*
X98701D01*
X99729Y302030D01*
X100686Y302427D01*
X101509Y303058D01*
X102140Y303881D01*
X102536Y304838D01*
X102672Y305866D01*
X102536Y306894D01*
X102140Y307852D01*
X101509Y308674D01*
X100686Y309305D01*
X99729Y309702D01*
X98701Y309837D01*
D02*
G37*
G36*
X79532Y299942D02*
Y298442D01*
X81032D01*
X80981Y298696D01*
X80503Y299413D01*
X79786Y299891D01*
X79532Y299942D01*
D02*
G37*
G36*
X78351D02*
X78097Y299891D01*
X77380Y299413D01*
X76902Y298696D01*
X76851Y298442D01*
X78351D01*
Y299942D01*
D02*
G37*
G36*
X98701Y299837D02*
X97323D01*
Y296457D01*
X102594D01*
X102536Y296894D01*
X102140Y297852D01*
X101509Y298674D01*
X100686Y299305D01*
X99729Y299702D01*
X98701Y299837D01*
D02*
G37*
G36*
X96142D02*
X94764D01*
X93736Y299702D01*
X92778Y299305D01*
X91956Y298674D01*
X91325Y297852D01*
X90928Y296894D01*
X90871Y296457D01*
X96142D01*
Y299837D01*
D02*
G37*
G36*
X81032Y297261D02*
X79532D01*
Y295761D01*
X79786Y295812D01*
X80503Y296290D01*
X80981Y297007D01*
X81032Y297261D01*
D02*
G37*
G36*
X78351D02*
X76851D01*
X76902Y297007D01*
X77380Y296290D01*
X78097Y295812D01*
X78351Y295761D01*
Y297261D01*
D02*
G37*
G36*
X102594Y295276D02*
X97323D01*
Y291895D01*
X98701D01*
X99729Y292031D01*
X100686Y292427D01*
X101509Y293058D01*
X102140Y293881D01*
X102536Y294838D01*
X102594Y295276D01*
D02*
G37*
G36*
X96142D02*
X90871D01*
X90928Y294838D01*
X91325Y293881D01*
X91956Y293058D01*
X92778Y292427D01*
X93736Y292031D01*
X94764Y291895D01*
X96142D01*
Y295276D01*
D02*
G37*
G36*
X99805Y280780D02*
Y279280D01*
X101305D01*
X101254Y279534D01*
X100776Y280251D01*
X100059Y280729D01*
X99805Y280780D01*
D02*
G37*
G36*
X98624D02*
X98370Y280729D01*
X97653Y280251D01*
X97175Y279534D01*
X97124Y279280D01*
X98624D01*
Y280780D01*
D02*
G37*
G36*
X155236Y283815D02*
Y278543D01*
X158617D01*
Y279921D01*
X158481Y280949D01*
X158085Y281907D01*
X157454Y282729D01*
X156631Y283360D01*
X155673Y283757D01*
X155236Y283815D01*
D02*
G37*
G36*
X154055D02*
X153618Y283757D01*
X152660Y283360D01*
X151838Y282729D01*
X151207Y281907D01*
X150810Y280949D01*
X150675Y279921D01*
Y278543D01*
X154055D01*
Y283815D01*
D02*
G37*
G36*
X101305Y278099D02*
X99805D01*
Y276599D01*
X100059Y276650D01*
X100776Y277128D01*
X101254Y277845D01*
X101305Y278099D01*
D02*
G37*
G36*
X98624D02*
X97124D01*
X97175Y277845D01*
X97653Y277128D01*
X98370Y276650D01*
X98624Y276599D01*
Y278099D01*
D02*
G37*
G36*
X168785Y275279D02*
Y273779D01*
X170285D01*
X170234Y274033D01*
X169756Y274750D01*
X169040Y275228D01*
X168785Y275279D01*
D02*
G37*
G36*
X167604D02*
X167350Y275228D01*
X166633Y274750D01*
X166155Y274033D01*
X166104Y273779D01*
X167604D01*
Y275279D01*
D02*
G37*
G36*
X158617Y277362D02*
X155236D01*
Y272091D01*
X155673Y272149D01*
X156631Y272545D01*
X157454Y273176D01*
X158085Y273999D01*
X158481Y274956D01*
X158617Y275984D01*
Y277362D01*
D02*
G37*
G36*
X154055D02*
X150675D01*
Y275984D01*
X150810Y274956D01*
X151207Y273999D01*
X151838Y273176D01*
X152660Y272545D01*
X153618Y272149D01*
X154055Y272091D01*
Y277362D01*
D02*
G37*
G36*
X124646Y283892D02*
X123618Y283757D01*
X122660Y283360D01*
X121838Y282729D01*
X121207Y281907D01*
X120810Y280949D01*
X120675Y279921D01*
Y275984D01*
X120810Y274956D01*
X121207Y273999D01*
X121838Y273176D01*
X122660Y272545D01*
X123618Y272149D01*
X124646Y272013D01*
X125673Y272149D01*
X126631Y272545D01*
X127454Y273176D01*
X128085Y273999D01*
X128481Y274956D01*
X128617Y275984D01*
Y279921D01*
X128481Y280949D01*
X128085Y281907D01*
X127454Y282729D01*
X126631Y283360D01*
X125673Y283757D01*
X124646Y283892D01*
D02*
G37*
G36*
X114646D02*
X113618Y283757D01*
X112660Y283360D01*
X111838Y282729D01*
X111207Y281907D01*
X110810Y280949D01*
X110675Y279921D01*
Y275984D01*
X110810Y274956D01*
X111207Y273999D01*
X111838Y273176D01*
X112660Y272545D01*
X113618Y272149D01*
X114646Y272013D01*
X115673Y272149D01*
X116631Y272545D01*
X117454Y273176D01*
X118085Y273999D01*
X118481Y274956D01*
X118617Y275984D01*
Y279921D01*
X118481Y280949D01*
X118085Y281907D01*
X117454Y282729D01*
X116631Y283360D01*
X115673Y283757D01*
X114646Y283892D01*
D02*
G37*
G36*
X170285Y272598D02*
X168785D01*
Y271098D01*
X169040Y271149D01*
X169756Y271627D01*
X170234Y272344D01*
X170285Y272598D01*
D02*
G37*
G36*
X167604D02*
X166104D01*
X166155Y272344D01*
X166633Y271627D01*
X167350Y271149D01*
X167604Y271098D01*
Y272598D01*
D02*
G37*
G36*
X121063Y268807D02*
Y267307D01*
X122563D01*
X122512Y267562D01*
X122034Y268278D01*
X121317Y268757D01*
X121063Y268807D01*
D02*
G37*
G36*
X119882D02*
X119628Y268757D01*
X118911Y268278D01*
X118433Y267562D01*
X118382Y267307D01*
X119882D01*
Y268807D01*
D02*
G37*
G36*
X122563Y266126D02*
X121063D01*
Y264627D01*
X121317Y264677D01*
X122034Y265156D01*
X122512Y265872D01*
X122563Y266126D01*
D02*
G37*
G36*
X119882D02*
X118382D01*
X118433Y265872D01*
X118911Y265156D01*
X119628Y264677D01*
X119882Y264627D01*
Y266126D01*
D02*
G37*
G36*
X105858Y262827D02*
X105120D01*
Y260236D01*
X107514D01*
Y261171D01*
X107388Y261805D01*
X107029Y262342D01*
X106492Y262701D01*
X105858Y262827D01*
D02*
G37*
G36*
X135859Y261134D02*
Y259635D01*
X137359D01*
X137308Y259889D01*
X136830Y260605D01*
X136114Y261084D01*
X135859Y261134D01*
D02*
G37*
G36*
X134678D02*
X134424Y261084D01*
X133707Y260605D01*
X133229Y259889D01*
X133178Y259635D01*
X134678D01*
Y261134D01*
D02*
G37*
G36*
X137359Y258454D02*
X135859D01*
Y256954D01*
X136114Y257004D01*
X136830Y257483D01*
X137308Y258199D01*
X137359Y258454D01*
D02*
G37*
G36*
X134678D02*
X133178D01*
X133229Y258199D01*
X133707Y257483D01*
X134424Y257004D01*
X134678Y256954D01*
Y258454D01*
D02*
G37*
G36*
X107514Y259055D02*
X105120D01*
Y256464D01*
X105858D01*
X106492Y256590D01*
X107029Y256949D01*
X107388Y257486D01*
X107514Y258120D01*
Y259055D01*
D02*
G37*
G36*
X138386Y252259D02*
Y250760D01*
X139886D01*
X139835Y251014D01*
X139356Y251730D01*
X138640Y252209D01*
X138386Y252259D01*
D02*
G37*
G36*
X137205D02*
X136950Y252209D01*
X136234Y251730D01*
X135756Y251014D01*
X135705Y250760D01*
X137205D01*
Y252259D01*
D02*
G37*
G36*
X139886Y249578D02*
X138386D01*
Y248079D01*
X138640Y248129D01*
X139356Y248608D01*
X139835Y249324D01*
X139886Y249578D01*
D02*
G37*
G36*
X137205D02*
X135705D01*
X135756Y249324D01*
X136234Y248608D01*
X136950Y248129D01*
X137205Y248079D01*
Y249578D01*
D02*
G37*
G36*
X156369Y338984D02*
Y337485D01*
X157869D01*
X157819Y337739D01*
X157340Y338455D01*
X156624Y338934D01*
X156369Y338984D01*
D02*
G37*
G36*
X155188D02*
X154934Y338934D01*
X154218Y338455D01*
X153739Y337739D01*
X153689Y337485D01*
X155188D01*
Y338984D01*
D02*
G37*
G36*
X157869Y336303D02*
X156369D01*
Y334804D01*
X156624Y334854D01*
X157340Y335333D01*
X157819Y336049D01*
X157869Y336303D01*
D02*
G37*
G36*
X155188D02*
X153689D01*
X153739Y336049D01*
X154218Y335333D01*
X154934Y334854D01*
X155188Y334804D01*
Y336303D01*
D02*
G37*
G36*
X156369Y319454D02*
Y317955D01*
X157869D01*
X157819Y318209D01*
X157340Y318925D01*
X156624Y319404D01*
X156369Y319454D01*
D02*
G37*
G36*
X155188D02*
X154934Y319404D01*
X154218Y318925D01*
X153739Y318209D01*
X153689Y317955D01*
X155188D01*
Y319454D01*
D02*
G37*
G36*
X157869Y316774D02*
X156369D01*
Y315274D01*
X156624Y315324D01*
X157340Y315803D01*
X157819Y316519D01*
X157869Y316774D01*
D02*
G37*
G36*
X155188D02*
X153689D01*
X153739Y316519D01*
X154218Y315803D01*
X154934Y315324D01*
X155188Y315274D01*
Y316774D01*
D02*
G37*
G36*
X171968Y309837D02*
X170591D01*
X169563Y309702D01*
X168605Y309305D01*
X167783Y308674D01*
X167152Y307852D01*
X166755Y306894D01*
X166697Y306457D01*
X171968D01*
Y309837D01*
D02*
G37*
G36*
Y305276D02*
X166697D01*
X166755Y304838D01*
X167152Y303881D01*
X167783Y303058D01*
X168605Y302427D01*
X169563Y302030D01*
X170591Y301895D01*
X171968D01*
Y305276D01*
D02*
G37*
G36*
X244887Y293541D02*
X244398Y293476D01*
X243393Y293060D01*
X242529Y292397D01*
X241866Y291534D01*
X241450Y290528D01*
X241386Y290039D01*
X244887D01*
Y293541D01*
D02*
G37*
G36*
Y288858D02*
X241386D01*
X241450Y288370D01*
X241866Y287364D01*
X242529Y286501D01*
X243393Y285838D01*
X244398Y285421D01*
X244887Y285357D01*
Y288858D01*
D02*
G37*
G36*
X236811Y259571D02*
Y258071D01*
X238311D01*
X238260Y258325D01*
X237782Y259041D01*
X237065Y259520D01*
X236811Y259571D01*
D02*
G37*
G36*
X235630D02*
X235376Y259520D01*
X234659Y259041D01*
X234181Y258325D01*
X234130Y258071D01*
X235630D01*
Y259571D01*
D02*
G37*
G36*
X238311Y256890D02*
X236811D01*
Y255390D01*
X237065Y255441D01*
X237782Y255919D01*
X238260Y256635D01*
X238311Y256890D01*
D02*
G37*
G36*
X235630D02*
X234130D01*
X234181Y256635D01*
X234659Y255919D01*
X235376Y255441D01*
X235630Y255390D01*
Y256890D01*
D02*
G37*
G36*
X224413Y250080D02*
Y248581D01*
X225913D01*
X225862Y248835D01*
X225384Y249551D01*
X224668Y250030D01*
X224413Y250080D01*
D02*
G37*
G36*
X223232D02*
X222978Y250030D01*
X222262Y249551D01*
X221783Y248835D01*
X221732Y248581D01*
X223232D01*
Y250080D01*
D02*
G37*
G36*
X225913Y247399D02*
X224413D01*
Y245900D01*
X224668Y245950D01*
X225384Y246429D01*
X225862Y247145D01*
X225913Y247399D01*
D02*
G37*
G36*
X223232D02*
X221732D01*
X221783Y247145D01*
X222262Y246429D01*
X222978Y245950D01*
X223232Y245900D01*
Y247399D01*
D02*
G37*
G36*
X218132Y243856D02*
X215541D01*
Y241462D01*
X216476D01*
X217110Y241588D01*
X217647Y241947D01*
X218006Y242484D01*
X218132Y243118D01*
Y243856D01*
D02*
G37*
G36*
X214360D02*
X211769D01*
Y243118D01*
X211895Y242484D01*
X212254Y241947D01*
X212791Y241588D01*
X213425Y241462D01*
X214360D01*
Y243856D01*
D02*
G37*
G36*
X236618Y238072D02*
Y236573D01*
X238118D01*
X238067Y236827D01*
X237589Y237543D01*
X236872Y238022D01*
X236618Y238072D01*
D02*
G37*
G36*
X235437D02*
X235183Y238022D01*
X234466Y237543D01*
X233988Y236827D01*
X233937Y236573D01*
X235437D01*
Y238072D01*
D02*
G37*
G36*
X238118Y235391D02*
X236618D01*
Y233892D01*
X236872Y233942D01*
X237589Y234421D01*
X238067Y235137D01*
X238118Y235391D01*
D02*
G37*
G36*
X235437D02*
X233937D01*
X233988Y235137D01*
X234466Y234421D01*
X235183Y233942D01*
X235437Y233892D01*
Y235391D01*
D02*
G37*
G36*
X217036Y216809D02*
Y215310D01*
X218536D01*
X218485Y215564D01*
X218006Y216280D01*
X217290Y216759D01*
X217036Y216809D01*
D02*
G37*
G36*
X215855D02*
X215600Y216759D01*
X214884Y216280D01*
X214406Y215564D01*
X214355Y215310D01*
X215855D01*
Y216809D01*
D02*
G37*
G36*
X218536Y214128D02*
X217036D01*
Y212629D01*
X217290Y212679D01*
X218006Y213158D01*
X218485Y213874D01*
X218536Y214128D01*
D02*
G37*
G36*
X215855D02*
X214355D01*
X214406Y213874D01*
X214884Y213158D01*
X215600Y212679D01*
X215855Y212629D01*
Y214128D01*
D02*
G37*
G36*
X190409Y196497D02*
X187818D01*
Y194103D01*
X188753D01*
X189387Y194229D01*
X189924Y194588D01*
X190283Y195125D01*
X190409Y195759D01*
Y196497D01*
D02*
G37*
G36*
X190039Y193103D02*
Y188554D01*
X193666D01*
Y188963D01*
X193522Y190055D01*
X193101Y191072D01*
X192431Y191945D01*
X191557Y192615D01*
X190540Y193036D01*
X190039Y193103D01*
D02*
G37*
G36*
X188858D02*
X188357Y193036D01*
X187340Y192615D01*
X186467Y191945D01*
X185797Y191072D01*
X185375Y190055D01*
X185232Y188963D01*
Y188554D01*
X188858D01*
Y193103D01*
D02*
G37*
G36*
X193967Y277871D02*
Y276372D01*
X195466D01*
X195416Y276626D01*
X194937Y277342D01*
X194221Y277821D01*
X193967Y277871D01*
D02*
G37*
G36*
X192786D02*
X192531Y277821D01*
X191815Y277342D01*
X191337Y276626D01*
X191286Y276372D01*
X192786D01*
Y277871D01*
D02*
G37*
G36*
X195466Y275191D02*
X193967D01*
Y273691D01*
X194221Y273741D01*
X194937Y274220D01*
X195416Y274936D01*
X195466Y275191D01*
D02*
G37*
G36*
X192786D02*
X191286D01*
X191337Y274936D01*
X191815Y274220D01*
X192531Y273741D01*
X192786Y273691D01*
Y275191D01*
D02*
G37*
G36*
X247993Y224302D02*
Y222802D01*
X249493D01*
X249443Y223056D01*
X248964Y223773D01*
X248248Y224251D01*
X247993Y224302D01*
D02*
G37*
G36*
X246812D02*
X246558Y224251D01*
X245842Y223773D01*
X245363Y223056D01*
X245312Y222802D01*
X246812D01*
Y224302D01*
D02*
G37*
G36*
X249493Y221621D02*
X247993D01*
Y220121D01*
X248248Y220172D01*
X248964Y220650D01*
X249443Y221367D01*
X249493Y221621D01*
D02*
G37*
G36*
X246812D02*
X245312D01*
X245363Y221367D01*
X245842Y220650D01*
X246558Y220172D01*
X246812Y220121D01*
Y221621D01*
D02*
G37*
G36*
X241082Y216318D02*
Y214819D01*
X242582D01*
X242531Y215073D01*
X242053Y215789D01*
X241337Y216268D01*
X241082Y216318D01*
D02*
G37*
G36*
X239901D02*
X239647Y216268D01*
X238931Y215789D01*
X238452Y215073D01*
X238401Y214819D01*
X239901D01*
Y216318D01*
D02*
G37*
G36*
X242582Y213637D02*
X241082D01*
Y212138D01*
X241337Y212188D01*
X242053Y212667D01*
X242531Y213383D01*
X242582Y213637D01*
D02*
G37*
G36*
X239901D02*
X238401D01*
X238452Y213383D01*
X238931Y212667D01*
X239647Y212188D01*
X239901Y212138D01*
Y213637D01*
D02*
G37*
G36*
X123254Y234874D02*
Y233374D01*
X124754D01*
X124703Y233629D01*
X124225Y234345D01*
X123509Y234824D01*
X123254Y234874D01*
D02*
G37*
G36*
X122073D02*
X121819Y234824D01*
X121103Y234345D01*
X120624Y233629D01*
X120573Y233374D01*
X122073D01*
Y234874D01*
D02*
G37*
G36*
X124754Y232193D02*
X123254D01*
Y230694D01*
X123509Y230744D01*
X124225Y231223D01*
X124703Y231939D01*
X124754Y232193D01*
D02*
G37*
G36*
X122073D02*
X120573D01*
X120624Y231939D01*
X121103Y231223D01*
X121819Y230744D01*
X122073Y230694D01*
Y232193D01*
D02*
G37*
G36*
X109089Y232677D02*
X106695D01*
Y230086D01*
X107433D01*
X108067Y230212D01*
X108604Y230571D01*
X108963Y231109D01*
X109089Y231742D01*
Y232677D01*
D02*
G37*
G36*
X82233Y220741D02*
X81494D01*
Y218150D01*
X83889D01*
Y219085D01*
X83762Y219719D01*
X83403Y220256D01*
X82866Y220615D01*
X82233Y220741D01*
D02*
G37*
G36*
X83889Y216969D02*
X81494D01*
Y214378D01*
X82233D01*
X82866Y214505D01*
X83403Y214863D01*
X83762Y215401D01*
X83889Y216034D01*
Y216969D01*
D02*
G37*
G36*
X68250Y213951D02*
Y212451D01*
X69749D01*
X69699Y212705D01*
X69220Y213422D01*
X68504Y213900D01*
X68250Y213951D01*
D02*
G37*
G36*
X67068D02*
X66814Y213900D01*
X66098Y213422D01*
X65619Y212705D01*
X65569Y212451D01*
X67068D01*
Y213951D01*
D02*
G37*
G36*
X114010Y213632D02*
X110631D01*
Y211040D01*
X112304D01*
X112957Y211170D01*
X113510Y211540D01*
X113880Y212093D01*
X114010Y212746D01*
Y213632D01*
D02*
G37*
G36*
X109450D02*
X106070D01*
Y212746D01*
X106200Y212093D01*
X106570Y211540D01*
X107123Y211170D01*
X107776Y211040D01*
X109450D01*
Y213632D01*
D02*
G37*
G36*
X69749Y211270D02*
X68250D01*
Y209770D01*
X68504Y209821D01*
X69220Y210299D01*
X69699Y211016D01*
X69749Y211270D01*
D02*
G37*
G36*
X67068D02*
X65569D01*
X65619Y211016D01*
X66098Y210299D01*
X66814Y209821D01*
X67068Y209770D01*
Y211270D01*
D02*
G37*
G36*
X126894Y211069D02*
Y209569D01*
X128394D01*
X128343Y209824D01*
X127865Y210540D01*
X127148Y211019D01*
X126894Y211069D01*
D02*
G37*
G36*
X125713D02*
X125459Y211019D01*
X124742Y210540D01*
X124264Y209824D01*
X124213Y209569D01*
X125713D01*
Y211069D01*
D02*
G37*
G36*
X128394Y208388D02*
X126894D01*
Y206889D01*
X127148Y206939D01*
X127865Y207418D01*
X128343Y208134D01*
X128394Y208388D01*
D02*
G37*
G36*
X125713D02*
X124213D01*
X124264Y208134D01*
X124742Y207418D01*
X125459Y206939D01*
X125713Y206889D01*
Y208388D01*
D02*
G37*
G36*
X121535Y190750D02*
X119961D01*
Y188554D01*
X123141D01*
Y189144D01*
X123019Y189759D01*
X122671Y190279D01*
X122150Y190628D01*
X121535Y190750D01*
D02*
G37*
G36*
X127485Y189355D02*
Y187855D01*
X128984D01*
X128934Y188109D01*
X128455Y188826D01*
X127739Y189304D01*
X127485Y189355D01*
D02*
G37*
G36*
X126303D02*
X126049Y189304D01*
X125333Y188826D01*
X124854Y188109D01*
X124804Y187855D01*
X126303D01*
Y189355D01*
D02*
G37*
G36*
X113656Y188120D02*
X112156D01*
Y186621D01*
X112410Y186671D01*
X113127Y187150D01*
X113605Y187866D01*
X113656Y188120D01*
D02*
G37*
G36*
X110975D02*
X109475D01*
X109526Y187866D01*
X110004Y187150D01*
X110721Y186671D01*
X110975Y186621D01*
Y188120D01*
D02*
G37*
G36*
X123141Y187373D02*
X119961D01*
Y185176D01*
X121535D01*
X122150Y185299D01*
X122671Y185647D01*
X123019Y186168D01*
X123141Y186782D01*
Y187373D01*
D02*
G37*
G36*
X118780D02*
X115599D01*
Y186782D01*
X115721Y186168D01*
X116069Y185647D01*
X116590Y185299D01*
X117205Y185176D01*
X118780D01*
Y187373D01*
D02*
G37*
G36*
X128984Y186674D02*
X127485D01*
Y185174D01*
X127739Y185225D01*
X128455Y185703D01*
X128934Y186420D01*
X128984Y186674D01*
D02*
G37*
G36*
X126303D02*
X124804D01*
X124854Y186420D01*
X125333Y185703D01*
X126049Y185225D01*
X126303Y185174D01*
Y186674D01*
D02*
G37*
%LPD*%
D11*
X98425Y203937D02*
Y205149D01*
X102036Y208759D01*
X145791Y228108D02*
X155779D01*
X144882Y229017D02*
X145791Y228108D01*
X193133Y226139D02*
X200960D01*
X188761D02*
X193133D01*
Y218313D02*
Y226139D01*
X154646Y353089D02*
Y353780D01*
Y353089D02*
X156828Y350907D01*
X157518D01*
X169687Y338739D01*
Y338049D02*
Y338739D01*
Y338049D02*
X171869Y335866D01*
X172559D01*
X118169Y222825D02*
X119370Y221624D01*
X193221Y249762D02*
X200960D01*
X193133Y249849D02*
X193221Y249762D01*
X148697Y226139D02*
X155779D01*
X146426Y223869D02*
X148697Y226139D01*
X146426Y223699D02*
Y223869D01*
X145052Y222324D02*
X146426Y223699D01*
X191165Y263494D02*
Y273570D01*
X189196Y270095D02*
X189242Y270141D01*
Y273435D01*
X165223Y285498D02*
X179068Y271654D01*
X187031Y263691D02*
Y271192D01*
X179068Y271654D02*
X186570D01*
X187031Y271192D01*
X144646Y308499D02*
Y353780D01*
Y308499D02*
X161338Y291806D01*
X161657Y285236D02*
X161919Y285498D01*
X161338Y285236D02*
X161657D01*
X187031Y263691D02*
X187228Y263494D01*
X161919Y285498D02*
X165223D01*
X176850Y363779D02*
X179157Y361473D01*
Y292126D02*
Y361473D01*
X167304Y237950D02*
X178131Y248777D01*
X178436D01*
X176444Y251730D02*
X181322D01*
X164633Y239919D02*
X176444Y251730D01*
X155779Y237950D02*
X167304D01*
X181322Y348251D02*
X196850Y363779D01*
X181322Y295276D02*
Y348251D01*
X155779Y239919D02*
X164633D01*
X145382Y278689D02*
Y285815D01*
X146968Y287402D02*
X196695D01*
X145382Y285815D02*
X146968Y287402D01*
X134646Y283465D02*
X140630Y289449D01*
X134646Y277953D02*
Y283465D01*
X140630Y289449D02*
X197614D01*
X200960Y286102D01*
Y255667D02*
Y286102D01*
X193133Y263494D02*
Y264607D01*
X193330Y264804D01*
X194444D01*
X198598Y268958D01*
Y285498D01*
X196695Y287402D02*
X198598Y285498D01*
X144646Y277953D02*
X145382Y278689D01*
X152362Y365354D02*
X152925Y364792D01*
Y362666D02*
Y364792D01*
Y362666D02*
X154646Y360945D01*
X159055Y365184D02*
Y365354D01*
X157681Y363810D02*
X159055Y365184D01*
X157511Y363810D02*
X157681D01*
X154646Y360945D02*
X157511Y363810D01*
X154646Y353780D02*
Y360945D01*
X145669Y358050D02*
Y365354D01*
X144646Y357026D02*
X145669Y358050D01*
X144646Y353780D02*
Y357026D01*
X102167Y193741D02*
X106660D01*
X107842Y192560D01*
X115562D01*
X117205Y194202D01*
Y194656D01*
X118386Y195837D01*
X119370D01*
X94687Y193741D02*
X94792Y193846D01*
Y197284D01*
X96367Y198859D01*
X109870Y195513D02*
X110040D01*
X108496Y196887D02*
X109870Y195513D01*
X108496Y196887D02*
Y197057D01*
X106694Y198859D02*
X108496Y197057D01*
X96367Y198859D02*
X106694D01*
X102167Y203977D02*
X108045D01*
X109817Y202206D01*
X110040D01*
X119370Y195837D02*
Y204528D01*
Y212403D02*
Y221624D01*
X138583Y208425D02*
X150444D01*
X161338Y219319D02*
Y229017D01*
X150444Y208425D02*
X161338Y219319D01*
X144646Y194488D02*
Y199353D01*
X162295Y217002D01*
X163409D01*
X163606Y217199D02*
Y218313D01*
X163409Y217002D02*
X163606Y217199D01*
X138583Y188425D02*
X144646Y194488D01*
X155779Y230077D02*
X160279D01*
X161338Y229017D01*
X191165Y273570D02*
X193376Y275781D01*
X186897D02*
X189242Y273435D01*
X189196Y263494D02*
Y270095D01*
X165574Y270568D02*
X168195Y273189D01*
X165574Y263494D02*
Y270568D01*
X161338Y273373D02*
X163606Y271105D01*
Y263494D02*
Y271105D01*
X126969Y241691D02*
X136614Y232045D01*
X106042Y240116D02*
Y240286D01*
X107416Y241660D01*
X107851D01*
X107881Y241691D02*
X126969D01*
X107851Y241660D02*
X107881Y241691D01*
X127621Y243266D02*
X136873Y234014D01*
X108798Y243266D02*
X127621D01*
X106042Y245851D02*
Y246021D01*
Y245851D02*
X107416Y244477D01*
X107586D02*
X108798Y243266D01*
X107416Y244477D02*
X107586D01*
X136873Y234014D02*
X155779D01*
X136614Y232045D02*
X155779D01*
Y235982D02*
X174064D01*
X174302Y236221D01*
X174622D01*
X199449Y187963D02*
Y198189D01*
X199213Y198425D02*
X199449Y198189D01*
X209449Y187963D02*
Y200787D01*
X193330Y201000D02*
Y207087D01*
X181322Y207060D02*
Y218313D01*
X185259Y205749D02*
Y218313D01*
Y205749D02*
X185683Y205325D01*
Y205155D02*
Y205325D01*
Y205155D02*
X187057Y203780D01*
X187228D01*
X213817Y226139D02*
X214951Y225006D01*
X215201Y225935D02*
X221511D01*
X225961Y258071D02*
X225988D01*
X200960Y251730D02*
X205273D01*
X236221Y282677D02*
Y300192D01*
X205273Y251730D02*
X236221Y282677D01*
X234646Y284252D02*
Y318617D01*
X205045Y254651D02*
X234646Y284252D01*
X204353Y253895D02*
X205045Y254587D01*
Y254651D01*
X200960Y253699D02*
X201157Y253895D01*
X204353D01*
X234646Y318617D02*
X245477Y329449D01*
X236221Y300192D02*
X245477Y309449D01*
X169504Y187008D02*
X173619D01*
X180071Y193460D02*
X180071D01*
X173619Y187008D02*
X180071Y193460D01*
X166354Y191595D02*
X168260Y193500D01*
X166354Y187008D02*
Y191595D01*
X156451Y186856D02*
Y193460D01*
Y186856D02*
X158268Y185039D01*
X172092Y207060D02*
X173448Y208416D01*
Y218313D01*
X156451Y200960D02*
X162550Y207060D01*
X172092D01*
X175417Y208157D02*
Y218313D01*
X168260Y201000D02*
X175417Y208157D01*
X177385Y203645D02*
Y218313D01*
Y203645D02*
X180071Y200960D01*
X225988Y258071D02*
X232878Y264961D01*
X200960Y237950D02*
X227127D01*
X232878Y243701D01*
Y251181D01*
X225988Y258071D02*
X232878Y251181D01*
X225791Y258071D02*
X225961D01*
X232878Y264961D02*
Y268111D01*
X225961Y258071D02*
X225988D01*
X68851Y228661D02*
X84979D01*
X74211Y217560D02*
Y222972D01*
X70306Y226878D02*
X74211Y222972D01*
X70306Y226878D02*
Y227206D01*
X68851Y228661D02*
X70306Y227206D01*
X68522Y228661D02*
X68851D01*
X200960Y247793D02*
X211604D01*
X213406Y245991D01*
Y245821D02*
Y245991D01*
Y245821D02*
X214780Y244447D01*
X214951D01*
X200960Y249762D02*
X213349D01*
X214727Y251139D01*
X214951D01*
X200960Y226139D02*
X213817D01*
X191165Y212627D02*
X195010Y208782D01*
X191165Y212627D02*
Y218313D01*
X195010Y208782D02*
X197614D01*
X197482Y215803D02*
X204306Y208978D01*
X193133Y216000D02*
Y218313D01*
Y216000D02*
X193330Y215803D01*
X197482D01*
X204306Y208782D02*
Y208978D01*
X84546Y243951D02*
X85583Y242913D01*
X84546Y243951D02*
Y245419D01*
X85583Y242913D02*
X86014D01*
X84546Y245419D02*
X85583Y246457D01*
X86014Y242913D02*
X86211Y242717D01*
X85583Y246457D02*
X86014D01*
X86211Y246654D01*
Y242717D02*
X88581D01*
X86211Y246654D02*
X88581D01*
Y242717D02*
X96748D01*
X97805Y241660D01*
X97975D01*
X99349Y240286D01*
Y240116D02*
Y240286D01*
X90951Y244685D02*
X98013D01*
X91148Y244882D02*
X91579D01*
X90951Y244685D02*
X91148Y244882D01*
X88581Y244685D02*
X90951D01*
X91148Y248425D02*
X91579D01*
Y244882D02*
X92616Y245920D01*
X90951Y248622D02*
X91148Y248425D01*
X91579D02*
X92616Y247387D01*
X88581Y248622D02*
X90951D01*
X92616Y245920D02*
Y247387D01*
X98013Y244685D02*
X99349Y246021D01*
X93697Y250590D02*
X97749Y254642D01*
Y259558D01*
X88581Y250590D02*
X93697D01*
X97749Y259558D02*
X97837Y259646D01*
X88581Y238779D02*
X92127D01*
X97865Y233041D01*
X98036D01*
X99410Y231666D01*
D16*
X68502Y272008D02*
D03*
X79920D02*
D03*
D17*
X74211Y217560D02*
D03*
X80904D02*
D03*
X99411Y233268D02*
D03*
X106104D02*
D03*
X106042Y246021D02*
D03*
X99349D02*
D03*
X106042Y240116D02*
D03*
X99349D02*
D03*
X97837Y259646D02*
D03*
X104530D02*
D03*
X152362Y365354D02*
D03*
X145669D02*
D03*
X165748D02*
D03*
X159055D02*
D03*
X204306Y208782D02*
D03*
X197614D02*
D03*
D18*
X110040Y195513D02*
D03*
Y202206D02*
D03*
X221511Y225935D02*
D03*
Y232628D02*
D03*
X187228Y197088D02*
D03*
Y203780D02*
D03*
X215201Y232628D02*
D03*
Y225935D02*
D03*
X137795Y229017D02*
D03*
Y222324D02*
D03*
X144882Y229017D02*
D03*
Y222324D02*
D03*
X214951Y244447D02*
D03*
Y251139D02*
D03*
X225791Y264764D02*
D03*
Y258071D02*
D03*
D19*
X193133Y218313D02*
D03*
X191165D02*
D03*
X189196D02*
D03*
X187228D02*
D03*
X185259D02*
D03*
X183291D02*
D03*
X181322D02*
D03*
X179354D02*
D03*
X177385D02*
D03*
X175417D02*
D03*
X173448D02*
D03*
X171480D02*
D03*
X169511D02*
D03*
X167543D02*
D03*
X165574D02*
D03*
X163606D02*
D03*
Y263494D02*
D03*
X165574D02*
D03*
X167543D02*
D03*
X169511D02*
D03*
X171480D02*
D03*
X173448D02*
D03*
X175417D02*
D03*
X177385D02*
D03*
X179354D02*
D03*
X181322D02*
D03*
X183291D02*
D03*
X185259D02*
D03*
X187228D02*
D03*
X189196D02*
D03*
X191165D02*
D03*
X193133D02*
D03*
D20*
X155779Y226139D02*
D03*
Y228108D02*
D03*
Y230077D02*
D03*
Y232045D02*
D03*
Y234014D02*
D03*
Y235982D02*
D03*
Y237950D02*
D03*
Y239919D02*
D03*
Y241887D02*
D03*
Y243856D02*
D03*
Y245825D02*
D03*
Y247793D02*
D03*
Y249762D02*
D03*
Y251730D02*
D03*
Y253699D02*
D03*
Y255667D02*
D03*
X200960D02*
D03*
Y253699D02*
D03*
Y251730D02*
D03*
Y249762D02*
D03*
Y247793D02*
D03*
Y245825D02*
D03*
Y243856D02*
D03*
Y241887D02*
D03*
Y239919D02*
D03*
Y237950D02*
D03*
Y235982D02*
D03*
Y234014D02*
D03*
Y232045D02*
D03*
Y230077D02*
D03*
Y228108D02*
D03*
Y226139D02*
D03*
D21*
X154646Y353780D02*
D03*
X144646D02*
D03*
X134646D02*
D03*
X124646D02*
D03*
X114646D02*
D03*
Y277953D02*
D03*
X124646D02*
D03*
X134646D02*
D03*
X144646D02*
D03*
X154646D02*
D03*
D22*
X96732Y335866D02*
D03*
Y325866D02*
D03*
Y315866D02*
D03*
Y305866D02*
D03*
Y295866D02*
D03*
X172559D02*
D03*
Y305866D02*
D03*
Y315866D02*
D03*
Y325866D02*
D03*
Y335866D02*
D03*
D23*
X88581Y255315D02*
D03*
Y236024D02*
D03*
Y232874D02*
D03*
Y258465D02*
D03*
D24*
Y244685D02*
D03*
Y242717D02*
D03*
Y240748D02*
D03*
Y238779D02*
D03*
Y246654D02*
D03*
Y248622D02*
D03*
Y250590D02*
D03*
Y252559D02*
D03*
D25*
X94687Y193741D02*
D03*
X102167Y203977D02*
D03*
X98427D02*
D03*
X94687D02*
D03*
X102167Y193741D02*
D03*
D26*
X95279Y186067D02*
D03*
X102366D02*
D03*
D27*
X119370Y212403D02*
D03*
Y204528D02*
D03*
Y187963D02*
D03*
Y195837D02*
D03*
D28*
X180071Y200960D02*
D03*
Y193460D02*
D03*
X156451D02*
D03*
Y200960D02*
D03*
X168260Y193500D02*
D03*
Y201000D02*
D03*
D29*
X247051Y268111D02*
D03*
X232878D02*
D03*
Y246851D02*
D03*
X247051D02*
D03*
D30*
X96848Y223672D02*
D03*
Y211861D02*
D03*
D31*
X110040Y221309D02*
D03*
Y214223D02*
D03*
D60*
X166354Y226139D02*
X188761D01*
X164633Y335866D02*
X171869D01*
X119890Y222324D02*
X137795D01*
X118780Y223435D02*
X119890Y222324D01*
X145052D02*
X151870D01*
X144882D02*
X145052D01*
X151870D02*
X151983Y222211D01*
X137795Y222324D02*
X144882D01*
X188761Y226139D02*
X193133Y230512D01*
Y249849D01*
X186897Y256086D02*
X193133Y249849D01*
X175277Y280499D02*
X182179D01*
X186897Y275781D01*
X94965Y184833D02*
Y192157D01*
X94687Y192435D02*
Y193741D01*
Y192435D02*
X94965Y192157D01*
D61*
X102366Y186067D02*
X106938D01*
X107284Y185721D01*
X68502Y272008D02*
Y272439D01*
X68504Y272441D01*
X77557Y253898D02*
Y255512D01*
Y267074D01*
Y239764D02*
Y253898D01*
Y267074D02*
X80351Y269868D01*
D62*
X219449Y187963D02*
Y207416D01*
X243705Y231671D02*
Y270650D01*
X219449Y207416D02*
X243705Y231671D01*
Y270650D02*
X249808Y276754D01*
Y315118D01*
X245477Y319449D02*
X249808Y315118D01*
D63*
X77557Y239764D02*
X79880Y237441D01*
X88430Y236174D02*
X88581Y236024D01*
X85463Y236174D02*
X88430D01*
X84197Y237441D02*
X85463Y236174D01*
X79880Y237441D02*
X84197D01*
X88430Y255164D02*
X88581Y255315D01*
X85463Y255164D02*
X88430D01*
X84197Y253898D02*
X85463Y255164D01*
X79172Y253898D02*
X84197D01*
X77557Y255512D02*
X79172Y253898D01*
D64*
X236221Y196850D02*
D03*
D65*
X245477Y329449D02*
D03*
D66*
Y319449D02*
D03*
Y309449D02*
D03*
Y299449D02*
D03*
Y289449D02*
D03*
X186850Y363779D02*
D03*
X196850D02*
D03*
X206850D02*
D03*
X216850D02*
D03*
D67*
X176850D02*
D03*
D68*
X84979Y262677D02*
D03*
Y228661D02*
D03*
D69*
X68522D02*
D03*
Y262677D02*
D03*
D70*
X82892Y234291D02*
D03*
Y257047D02*
D03*
D71*
X138583Y188425D02*
D03*
Y198425D02*
D03*
D72*
Y208425D02*
D03*
D73*
X199449Y187963D02*
D03*
X209449D02*
D03*
X189449D02*
D03*
D74*
X219449D02*
D03*
D75*
X236221Y354331D02*
D03*
X78740D02*
D03*
Y196850D02*
D03*
D76*
X86014Y317852D02*
D03*
X135269Y259044D02*
D03*
X122664Y232784D02*
D03*
X236221Y257480D02*
D03*
X218935Y337485D02*
D03*
X128347Y321994D02*
D03*
X96063Y295276D02*
D03*
X114961Y343307D02*
D03*
X98425Y203937D02*
D03*
X111566Y188711D02*
D03*
X102366Y186067D02*
D03*
X164633Y335866D02*
D03*
X126894Y187265D02*
D03*
X126303Y208979D02*
D03*
X67659Y211861D02*
D03*
X99215Y278689D02*
D03*
X137795Y250169D02*
D03*
X120472Y266717D02*
D03*
X78942Y297852D02*
D03*
X76378Y324838D02*
D03*
X119685Y305276D02*
D03*
Y333881D02*
D03*
X155779Y317364D02*
D03*
Y336894D02*
D03*
X218755Y281907D02*
D03*
X227127Y295838D02*
D03*
X227127Y320528D02*
D03*
X223823Y247990D02*
D03*
X216445Y214719D02*
D03*
X236028Y235982D02*
D03*
X240492Y214228D02*
D03*
X247403Y222211D02*
D03*
X247051Y246851D02*
D03*
Y268111D02*
D03*
X144882Y229017D02*
D03*
X137795D02*
D03*
X88581Y258465D02*
D03*
Y232874D02*
D03*
X80904Y217560D02*
D03*
X110040Y214223D02*
D03*
X119370Y187963D02*
D03*
X197614Y208782D02*
D03*
X221511Y232628D02*
D03*
X215201D02*
D03*
X214951Y244447D02*
D03*
X165748Y365354D02*
D03*
X166104Y359610D02*
D03*
X171968Y306457D02*
D03*
X166354Y226139D02*
D03*
X151983Y222211D02*
D03*
X186897Y256086D02*
D03*
X175277Y280499D02*
D03*
X161338Y291806D02*
D03*
Y285236D02*
D03*
X70866Y269291D02*
D03*
X68504Y275197D02*
D03*
X94965Y184833D02*
D03*
Y188425D02*
D03*
X179157Y292126D02*
D03*
X178436Y248777D02*
D03*
X181322Y251730D02*
D03*
Y295276D02*
D03*
X106104Y233268D02*
D03*
X104530Y259646D02*
D03*
X68504Y272441D02*
D03*
X193376Y275781D02*
D03*
X186897D02*
D03*
X168195Y273189D02*
D03*
X161338Y273373D02*
D03*
X174622Y236221D02*
D03*
X199213Y198425D02*
D03*
X209449Y200787D02*
D03*
X193330Y201000D02*
D03*
Y207087D02*
D03*
X181322Y207060D02*
D03*
D77*
X169504Y187008D02*
D03*
X166354D02*
D03*
X158268Y185039D02*
D03*
M02*
