G04*
G04 #@! TF.GenerationSoftware,Altium Limited,Altium Designer,20.2.7 (254)*
G04*
G04 Layer_Color=32896*
%FSLAX25Y25*%
%MOIN*%
G70*
G04*
G04 #@! TF.SameCoordinates,FBE84B92-D195-4989-AC34-508FE9173FC9*
G04*
G04*
G04 #@! TF.FilePolarity,Positive*
G04*
G01*
G75*
%ADD13C,0.00500*%
G36*
X208385Y350388D02*
X208489Y350377D01*
X208587Y350366D01*
X208680Y350345D01*
X208767Y350317D01*
X208849Y350290D01*
X208926Y350263D01*
X208997Y350230D01*
X209057Y350203D01*
X209117Y350175D01*
X209160Y350148D01*
X209204Y350121D01*
X209231Y350099D01*
X209259Y350088D01*
X209269Y350077D01*
X209275Y350072D01*
X209351Y350006D01*
X209417Y349940D01*
X209477Y349864D01*
X209537Y349788D01*
X209635Y349635D01*
X209712Y349482D01*
X209745Y349411D01*
X209772Y349345D01*
X209794Y349285D01*
X209810Y349236D01*
X209826Y349193D01*
X209837Y349160D01*
X209843Y349138D01*
Y349132D01*
X209341Y349007D01*
X209319Y349094D01*
X209291Y349176D01*
X209264Y349253D01*
X209237Y349324D01*
X209204Y349389D01*
X209171Y349444D01*
X209133Y349498D01*
X209100Y349547D01*
X209073Y349591D01*
X209040Y349624D01*
X209013Y349657D01*
X208991Y349684D01*
X208969Y349700D01*
X208953Y349717D01*
X208947Y349722D01*
X208942Y349728D01*
X208887Y349771D01*
X208827Y349804D01*
X208707Y349864D01*
X208593Y349908D01*
X208478Y349935D01*
X208380Y349957D01*
X208341Y349962D01*
X208303D01*
X208270Y349968D01*
X208232D01*
X208107Y349962D01*
X207986Y349940D01*
X207877Y349913D01*
X207779Y349881D01*
X207702Y349848D01*
X207670Y349831D01*
X207643Y349820D01*
X207621Y349810D01*
X207604Y349799D01*
X207593Y349793D01*
X207588D01*
X207484Y349717D01*
X207397Y349635D01*
X207320Y349542D01*
X207260Y349455D01*
X207211Y349378D01*
X207178Y349313D01*
X207167Y349285D01*
X207156Y349269D01*
X207151Y349258D01*
Y349253D01*
X207107Y349111D01*
X207075Y348969D01*
X207047Y348827D01*
X207031Y348696D01*
X207026Y348636D01*
X207020Y348581D01*
Y348532D01*
X207015Y348494D01*
Y348461D01*
Y348434D01*
Y348417D01*
Y348412D01*
X207020Y348270D01*
X207031Y348139D01*
X207053Y348019D01*
X207075Y347909D01*
X207091Y347817D01*
X207102Y347778D01*
X207113Y347746D01*
X207118Y347718D01*
X207124Y347702D01*
X207129Y347691D01*
Y347686D01*
X207184Y347560D01*
X207244Y347445D01*
X207309Y347353D01*
X207380Y347271D01*
X207440Y347205D01*
X207490Y347161D01*
X207528Y347134D01*
X207533Y347123D01*
X207539D01*
X207653Y347052D01*
X207779Y346998D01*
X207899Y346959D01*
X208014Y346937D01*
X208118Y346921D01*
X208161Y346916D01*
X208199D01*
X208227Y346910D01*
X208270D01*
X208407Y346916D01*
X208532Y346937D01*
X208636Y346970D01*
X208729Y347003D01*
X208800Y347041D01*
X208855Y347069D01*
X208887Y347090D01*
X208898Y347101D01*
X208986Y347183D01*
X209068Y347276D01*
X209133Y347374D01*
X209188Y347473D01*
X209231Y347560D01*
X209248Y347604D01*
X209259Y347636D01*
X209269Y347664D01*
X209280Y347686D01*
X209286Y347696D01*
Y347702D01*
X209777Y347587D01*
X209745Y347489D01*
X209712Y347402D01*
X209668Y347320D01*
X209630Y347238D01*
X209586Y347167D01*
X209537Y347101D01*
X209493Y347036D01*
X209450Y346981D01*
X209406Y346937D01*
X209368Y346894D01*
X209330Y346856D01*
X209302Y346828D01*
X209275Y346801D01*
X209253Y346785D01*
X209242Y346779D01*
X209237Y346774D01*
X209160Y346725D01*
X209084Y346675D01*
X209008Y346637D01*
X208926Y346604D01*
X208762Y346555D01*
X208614Y346523D01*
X208543Y346506D01*
X208483Y346501D01*
X208423Y346495D01*
X208374Y346490D01*
X208336Y346484D01*
X208281D01*
X208101Y346495D01*
X207926Y346523D01*
X207773Y346555D01*
X207702Y346577D01*
X207637Y346599D01*
X207577Y346621D01*
X207522Y346643D01*
X207479Y346659D01*
X207435Y346675D01*
X207408Y346692D01*
X207386Y346703D01*
X207369Y346708D01*
X207364Y346714D01*
X207217Y346807D01*
X207091Y346916D01*
X206982Y347025D01*
X206889Y347134D01*
X206818Y347232D01*
X206791Y347276D01*
X206769Y347314D01*
X206747Y347342D01*
X206736Y347363D01*
X206731Y347380D01*
X206725Y347385D01*
X206649Y347554D01*
X206594Y347729D01*
X206556Y347904D01*
X206529Y348062D01*
X206518Y348133D01*
X206512Y348204D01*
X206507Y348259D01*
Y348313D01*
X206501Y348352D01*
Y348384D01*
Y348406D01*
Y348412D01*
X206512Y348608D01*
X206534Y348799D01*
X206561Y348969D01*
X206583Y349050D01*
X206600Y349121D01*
X206616Y349187D01*
X206638Y349247D01*
X206654Y349302D01*
X206665Y349345D01*
X206681Y349378D01*
X206687Y349405D01*
X206698Y349422D01*
Y349427D01*
X206780Y349591D01*
X206873Y349739D01*
X206971Y349864D01*
X207020Y349913D01*
X207064Y349962D01*
X207107Y350006D01*
X207151Y350044D01*
X207189Y350077D01*
X207222Y350099D01*
X207244Y350121D01*
X207266Y350137D01*
X207277Y350143D01*
X207282Y350148D01*
X207359Y350192D01*
X207435Y350230D01*
X207599Y350290D01*
X207763Y350334D01*
X207921Y350361D01*
X207997Y350372D01*
X208063Y350383D01*
X208123Y350388D01*
X208172D01*
X208216Y350394D01*
X208276D01*
X208385Y350388D01*
D02*
G37*
G36*
X212016Y346533D02*
X211716D01*
X211661Y346626D01*
X211601Y346714D01*
X211530Y346801D01*
X211465Y346878D01*
X211399Y346943D01*
X211350Y346998D01*
X211328Y347014D01*
X211312Y347030D01*
X211306Y347036D01*
X211301Y347041D01*
X211186Y347134D01*
X211071Y347221D01*
X210962Y347298D01*
X210853Y347358D01*
X210760Y347412D01*
X210722Y347434D01*
X210689Y347451D01*
X210662Y347467D01*
X210640Y347473D01*
X210629Y347483D01*
X210624D01*
Y347931D01*
X210705Y347899D01*
X210787Y347860D01*
X210869Y347822D01*
X210946Y347784D01*
X211011Y347751D01*
X211066Y347724D01*
X211099Y347702D01*
X211104Y347696D01*
X211110D01*
X211208Y347636D01*
X211295Y347576D01*
X211372Y347522D01*
X211432Y347473D01*
X211486Y347434D01*
X211519Y347402D01*
X211546Y347380D01*
X211552Y347374D01*
Y350328D01*
X212016D01*
Y346533D01*
D02*
G37*
G36*
X205808Y346550D02*
X205327D01*
Y349520D01*
X203345Y346550D01*
X202832D01*
Y350328D01*
X203313D01*
Y347363D01*
X205289Y350328D01*
X205808D01*
Y346550D01*
D02*
G37*
G36*
X202144Y349881D02*
X199824D01*
Y348597D01*
X201915D01*
Y348150D01*
X199824D01*
Y346998D01*
X202057D01*
Y346550D01*
X199321D01*
Y350328D01*
X202144D01*
Y349881D01*
D02*
G37*
G36*
X180847Y353474D02*
X180556Y353434D01*
X180531Y353474D01*
X180498Y353507D01*
X180469Y353540D01*
X180439Y353565D01*
X180410Y353583D01*
X180388Y353602D01*
X180374Y353609D01*
X180370Y353612D01*
X180323Y353634D01*
X180276Y353653D01*
X180232Y353663D01*
X180188Y353674D01*
X180152Y353678D01*
X180123Y353682D01*
X180054D01*
X180010Y353674D01*
X179934Y353656D01*
X179868Y353631D01*
X179810Y353605D01*
X179766Y353576D01*
X179733Y353551D01*
X179715Y353532D01*
X179708Y353529D01*
Y353525D01*
X179657Y353463D01*
X179621Y353398D01*
X179595Y353328D01*
X179577Y353259D01*
X179566Y353201D01*
X179562Y353176D01*
Y353154D01*
X179559Y353136D01*
Y353121D01*
Y353114D01*
Y353110D01*
Y353059D01*
X179566Y353012D01*
X179584Y352921D01*
X179610Y352844D01*
X179635Y352783D01*
X179664Y352732D01*
X179690Y352692D01*
X179701Y352681D01*
X179708Y352670D01*
X179711Y352666D01*
X179715Y352662D01*
X179744Y352633D01*
X179773Y352608D01*
X179839Y352564D01*
X179901Y352535D01*
X179963Y352517D01*
X180014Y352502D01*
X180057Y352499D01*
X180072Y352495D01*
X180094D01*
X180163Y352499D01*
X180225Y352513D01*
X180279Y352531D01*
X180323Y352553D01*
X180363Y352575D01*
X180392Y352593D01*
X180407Y352608D01*
X180414Y352611D01*
X180458Y352662D01*
X180494Y352717D01*
X180523Y352779D01*
X180545Y352834D01*
X180560Y352888D01*
X180570Y352928D01*
X180574Y352946D01*
X180578Y352957D01*
Y352965D01*
Y352968D01*
X180902Y352943D01*
X180894Y352885D01*
X180884Y352830D01*
X180851Y352728D01*
X180811Y352641D01*
X180789Y352601D01*
X180767Y352568D01*
X180749Y352535D01*
X180727Y352506D01*
X180709Y352484D01*
X180691Y352466D01*
X180676Y352451D01*
X180669Y352437D01*
X180661Y352433D01*
X180658Y352430D01*
X180614Y352397D01*
X180570Y352368D01*
X180523Y352342D01*
X180476Y352320D01*
X180385Y352288D01*
X180294Y352266D01*
X180254Y352255D01*
X180214Y352251D01*
X180181Y352248D01*
X180152Y352244D01*
X180127Y352240D01*
X180094D01*
X180017Y352244D01*
X179945Y352255D01*
X179875Y352269D01*
X179813Y352288D01*
X179755Y352313D01*
X179701Y352339D01*
X179650Y352364D01*
X179606Y352393D01*
X179566Y352422D01*
X179530Y352448D01*
X179500Y352477D01*
X179475Y352499D01*
X179457Y352517D01*
X179442Y352531D01*
X179435Y352542D01*
X179431Y352546D01*
X179395Y352593D01*
X179366Y352644D01*
X179337Y352692D01*
X179315Y352743D01*
X179278Y352841D01*
X179256Y352935D01*
X179249Y352976D01*
X179242Y353015D01*
X179238Y353048D01*
X179235Y353077D01*
X179231Y353103D01*
Y353121D01*
Y353132D01*
Y353136D01*
X179235Y353201D01*
X179242Y353263D01*
X179253Y353325D01*
X179267Y353380D01*
X179286Y353431D01*
X179304Y353481D01*
X179326Y353525D01*
X179344Y353565D01*
X179366Y353602D01*
X179387Y353634D01*
X179406Y353660D01*
X179424Y353685D01*
X179438Y353703D01*
X179449Y353714D01*
X179457Y353722D01*
X179460Y353725D01*
X179504Y353765D01*
X179548Y353802D01*
X179595Y353831D01*
X179642Y353856D01*
X179690Y353882D01*
X179737Y353900D01*
X179824Y353925D01*
X179864Y353936D01*
X179901Y353944D01*
X179934Y353947D01*
X179963Y353951D01*
X179984Y353955D01*
X180065D01*
X180108Y353947D01*
X180196Y353929D01*
X180276Y353904D01*
X180349Y353874D01*
X180407Y353845D01*
X180432Y353831D01*
X180454Y353820D01*
X180472Y353809D01*
X180483Y353802D01*
X180491Y353798D01*
X180494Y353795D01*
X180359Y354475D01*
X179351D01*
Y354770D01*
X180603D01*
X180847Y353474D01*
D02*
G37*
G36*
X182347Y354839D02*
X182463Y354821D01*
X182565Y354799D01*
X182613Y354784D01*
X182656Y354770D01*
X182696Y354755D01*
X182733Y354741D01*
X182762Y354730D01*
X182791Y354719D01*
X182809Y354708D01*
X182824Y354701D01*
X182835Y354697D01*
X182838Y354694D01*
X182937Y354632D01*
X183020Y354559D01*
X183093Y354486D01*
X183155Y354413D01*
X183202Y354348D01*
X183221Y354319D01*
X183235Y354293D01*
X183250Y354275D01*
X183257Y354260D01*
X183261Y354250D01*
X183264Y354246D01*
X183315Y354133D01*
X183352Y354016D01*
X183377Y353900D01*
X183395Y353795D01*
X183403Y353747D01*
X183406Y353700D01*
X183410Y353663D01*
Y353627D01*
X183413Y353602D01*
Y353580D01*
Y353565D01*
Y353561D01*
X183406Y353431D01*
X183391Y353303D01*
X183373Y353190D01*
X183359Y353136D01*
X183348Y353088D01*
X183337Y353045D01*
X183322Y353005D01*
X183311Y352968D01*
X183304Y352939D01*
X183293Y352917D01*
X183290Y352899D01*
X183282Y352888D01*
Y352885D01*
X183228Y352775D01*
X183166Y352677D01*
X183100Y352593D01*
X183068Y352560D01*
X183038Y352528D01*
X183009Y352499D01*
X182980Y352473D01*
X182955Y352451D01*
X182933Y352437D01*
X182918Y352422D01*
X182904Y352411D01*
X182896Y352408D01*
X182893Y352404D01*
X182842Y352375D01*
X182791Y352349D01*
X182682Y352309D01*
X182572Y352280D01*
X182467Y352262D01*
X182416Y352255D01*
X182372Y352248D01*
X182332Y352244D01*
X182299D01*
X182270Y352240D01*
X182230D01*
X182158Y352244D01*
X182088Y352251D01*
X182023Y352258D01*
X181961Y352273D01*
X181903Y352291D01*
X181848Y352309D01*
X181797Y352328D01*
X181750Y352349D01*
X181710Y352368D01*
X181670Y352386D01*
X181641Y352404D01*
X181612Y352422D01*
X181593Y352437D01*
X181575Y352444D01*
X181568Y352451D01*
X181564Y352455D01*
X181513Y352499D01*
X181470Y352542D01*
X181430Y352593D01*
X181389Y352644D01*
X181324Y352746D01*
X181273Y352848D01*
X181251Y352895D01*
X181233Y352939D01*
X181219Y352979D01*
X181208Y353012D01*
X181197Y353041D01*
X181189Y353063D01*
X181186Y353077D01*
Y353081D01*
X181521Y353165D01*
X181535Y353106D01*
X181553Y353052D01*
X181571Y353001D01*
X181590Y352954D01*
X181612Y352910D01*
X181633Y352873D01*
X181659Y352837D01*
X181681Y352804D01*
X181699Y352775D01*
X181721Y352753D01*
X181739Y352732D01*
X181754Y352713D01*
X181768Y352702D01*
X181779Y352692D01*
X181783Y352688D01*
X181786Y352684D01*
X181823Y352655D01*
X181863Y352633D01*
X181943Y352593D01*
X182019Y352564D01*
X182096Y352546D01*
X182161Y352531D01*
X182187Y352528D01*
X182212D01*
X182234Y352524D01*
X182260D01*
X182343Y352528D01*
X182423Y352542D01*
X182496Y352560D01*
X182562Y352582D01*
X182613Y352604D01*
X182634Y352615D01*
X182653Y352622D01*
X182667Y352630D01*
X182678Y352637D01*
X182685Y352641D01*
X182689D01*
X182758Y352692D01*
X182816Y352746D01*
X182867Y352808D01*
X182907Y352866D01*
X182940Y352917D01*
X182962Y352961D01*
X182969Y352979D01*
X182977Y352990D01*
X182980Y352997D01*
Y353001D01*
X183009Y353096D01*
X183031Y353190D01*
X183049Y353285D01*
X183060Y353372D01*
X183064Y353412D01*
X183068Y353449D01*
Y353481D01*
X183071Y353507D01*
Y353529D01*
Y353547D01*
Y353558D01*
Y353561D01*
X183068Y353656D01*
X183060Y353744D01*
X183046Y353824D01*
X183031Y353896D01*
X183020Y353958D01*
X183013Y353984D01*
X183006Y354006D01*
X183002Y354024D01*
X182998Y354035D01*
X182995Y354042D01*
Y354046D01*
X182958Y354129D01*
X182918Y354206D01*
X182875Y354268D01*
X182827Y354322D01*
X182787Y354366D01*
X182755Y354395D01*
X182729Y354413D01*
X182725Y354421D01*
X182722D01*
X182645Y354468D01*
X182562Y354504D01*
X182482Y354530D01*
X182405Y354544D01*
X182336Y354555D01*
X182307Y354559D01*
X182281D01*
X182263Y354562D01*
X182234D01*
X182143Y354559D01*
X182059Y354544D01*
X181990Y354522D01*
X181928Y354501D01*
X181881Y354475D01*
X181844Y354457D01*
X181823Y354442D01*
X181815Y354435D01*
X181757Y354380D01*
X181703Y354319D01*
X181659Y354253D01*
X181623Y354188D01*
X181593Y354129D01*
X181582Y354100D01*
X181575Y354078D01*
X181568Y354060D01*
X181561Y354046D01*
X181557Y354038D01*
Y354035D01*
X181229Y354111D01*
X181251Y354177D01*
X181273Y354235D01*
X181302Y354290D01*
X181328Y354344D01*
X181357Y354391D01*
X181389Y354435D01*
X181419Y354479D01*
X181448Y354515D01*
X181477Y354544D01*
X181502Y354573D01*
X181528Y354599D01*
X181546Y354617D01*
X181564Y354635D01*
X181579Y354646D01*
X181586Y354650D01*
X181590Y354654D01*
X181641Y354686D01*
X181692Y354719D01*
X181743Y354745D01*
X181797Y354766D01*
X181906Y354799D01*
X182005Y354821D01*
X182052Y354832D01*
X182092Y354836D01*
X182132Y354839D01*
X182165Y354843D01*
X182190Y354846D01*
X182227D01*
X182347Y354839D01*
D02*
G37*
G36*
X229134Y305029D02*
X228387D01*
Y308901D01*
X226246D01*
Y305412D01*
X225499D01*
Y308901D01*
X223577D01*
Y305175D01*
X222830D01*
Y309739D01*
X229134D01*
Y305029D01*
D02*
G37*
G36*
Y303080D02*
X224187D01*
X229134Y299782D01*
Y298916D01*
X222830D01*
Y299718D01*
X227786D01*
X222830Y303025D01*
Y303881D01*
X229134D01*
Y303080D01*
D02*
G37*
G36*
X226264Y297741D02*
X226583Y297705D01*
X226866Y297659D01*
X227002Y297623D01*
X227121Y297595D01*
X227230Y297568D01*
X227330Y297532D01*
X227421Y297504D01*
X227494Y297486D01*
X227549Y297459D01*
X227594Y297449D01*
X227622Y297431D01*
X227631D01*
X227904Y297295D01*
X228150Y297140D01*
X228360Y296976D01*
X228442Y296894D01*
X228523Y296821D01*
X228596Y296748D01*
X228660Y296675D01*
X228715Y296611D01*
X228751Y296557D01*
X228788Y296520D01*
X228815Y296484D01*
X228824Y296466D01*
X228833Y296457D01*
X228906Y296329D01*
X228970Y296201D01*
X229070Y295928D01*
X229143Y295655D01*
X229188Y295391D01*
X229207Y295263D01*
X229225Y295154D01*
X229234Y295054D01*
Y294972D01*
X229243Y294899D01*
Y294798D01*
X229234Y294616D01*
X229216Y294443D01*
X229198Y294279D01*
X229161Y294124D01*
X229116Y293979D01*
X229070Y293842D01*
X229025Y293714D01*
X228970Y293596D01*
X228924Y293496D01*
X228879Y293396D01*
X228833Y293323D01*
X228788Y293250D01*
X228751Y293204D01*
X228733Y293159D01*
X228715Y293141D01*
X228706Y293131D01*
X228596Y293004D01*
X228487Y292895D01*
X228360Y292794D01*
X228232Y292694D01*
X227977Y292530D01*
X227722Y292403D01*
X227603Y292348D01*
X227494Y292302D01*
X227394Y292266D01*
X227312Y292239D01*
X227239Y292211D01*
X227184Y292193D01*
X227148Y292184D01*
X227139D01*
X226929Y293022D01*
X227075Y293058D01*
X227212Y293104D01*
X227339Y293150D01*
X227458Y293195D01*
X227567Y293250D01*
X227658Y293304D01*
X227749Y293368D01*
X227831Y293423D01*
X227904Y293468D01*
X227959Y293523D01*
X228013Y293569D01*
X228059Y293605D01*
X228086Y293642D01*
X228114Y293669D01*
X228123Y293678D01*
X228132Y293687D01*
X228205Y293778D01*
X228259Y293878D01*
X228360Y294079D01*
X228432Y294270D01*
X228478Y294461D01*
X228514Y294625D01*
X228523Y294689D01*
Y294753D01*
X228533Y294808D01*
Y294871D01*
X228523Y295081D01*
X228487Y295281D01*
X228442Y295464D01*
X228387Y295628D01*
X228332Y295755D01*
X228305Y295810D01*
X228287Y295855D01*
X228268Y295892D01*
X228250Y295919D01*
X228241Y295937D01*
Y295946D01*
X228114Y296119D01*
X227977Y296265D01*
X227822Y296393D01*
X227676Y296493D01*
X227549Y296575D01*
X227439Y296630D01*
X227394Y296648D01*
X227366Y296666D01*
X227348Y296675D01*
X227339D01*
X227102Y296748D01*
X226866Y296803D01*
X226629Y296848D01*
X226410Y296876D01*
X226310Y296885D01*
X226219Y296894D01*
X226137D01*
X226073Y296903D01*
X226018D01*
X225973D01*
X225945D01*
X225936D01*
X225699Y296894D01*
X225481Y296876D01*
X225280Y296839D01*
X225098Y296803D01*
X224943Y296775D01*
X224880Y296757D01*
X224825Y296739D01*
X224779Y296730D01*
X224752Y296721D01*
X224734Y296712D01*
X224725D01*
X224515Y296620D01*
X224324Y296520D01*
X224169Y296411D01*
X224032Y296293D01*
X223923Y296192D01*
X223850Y296110D01*
X223804Y296047D01*
X223786Y296038D01*
Y296028D01*
X223668Y295837D01*
X223577Y295628D01*
X223513Y295427D01*
X223477Y295236D01*
X223449Y295063D01*
X223440Y294990D01*
Y294926D01*
X223431Y294881D01*
Y294808D01*
X223440Y294580D01*
X223477Y294370D01*
X223531Y294197D01*
X223586Y294042D01*
X223650Y293924D01*
X223695Y293833D01*
X223732Y293778D01*
X223750Y293760D01*
X223886Y293614D01*
X224041Y293478D01*
X224205Y293368D01*
X224369Y293277D01*
X224515Y293204D01*
X224588Y293177D01*
X224643Y293159D01*
X224688Y293141D01*
X224725Y293122D01*
X224743Y293113D01*
X224752D01*
X224561Y292293D01*
X224397Y292348D01*
X224251Y292403D01*
X224114Y292476D01*
X223978Y292539D01*
X223859Y292612D01*
X223750Y292694D01*
X223640Y292767D01*
X223549Y292840D01*
X223477Y292913D01*
X223404Y292976D01*
X223340Y293040D01*
X223294Y293086D01*
X223249Y293131D01*
X223221Y293168D01*
X223212Y293186D01*
X223203Y293195D01*
X223121Y293323D01*
X223039Y293450D01*
X222975Y293578D01*
X222921Y293714D01*
X222839Y293988D01*
X222784Y294234D01*
X222757Y294352D01*
X222748Y294452D01*
X222739Y294553D01*
X222729Y294635D01*
X222720Y294698D01*
Y294789D01*
X222739Y295090D01*
X222784Y295382D01*
X222839Y295637D01*
X222875Y295755D01*
X222912Y295864D01*
X222948Y295965D01*
X222985Y296056D01*
X223012Y296129D01*
X223039Y296201D01*
X223067Y296247D01*
X223085Y296284D01*
X223094Y296311D01*
X223103Y296320D01*
X223258Y296566D01*
X223440Y296775D01*
X223622Y296958D01*
X223804Y297112D01*
X223969Y297231D01*
X224041Y297276D01*
X224105Y297313D01*
X224151Y297349D01*
X224187Y297368D01*
X224215Y297377D01*
X224224Y297386D01*
X224506Y297513D01*
X224798Y297604D01*
X225089Y297668D01*
X225353Y297714D01*
X225472Y297732D01*
X225590Y297741D01*
X225681Y297750D01*
X225772D01*
X225836Y297759D01*
X225891D01*
X225927D01*
X225936D01*
X226264Y297741D01*
D02*
G37*
G36*
X229134Y287401D02*
X228387D01*
Y290508D01*
X228232Y290398D01*
X228168Y290344D01*
X228104Y290298D01*
X228050Y290253D01*
X228013Y290216D01*
X227986Y290189D01*
X227977Y290180D01*
X227931Y290134D01*
X227886Y290080D01*
X227767Y289952D01*
X227631Y289806D01*
X227494Y289651D01*
X227376Y289506D01*
X227321Y289442D01*
X227266Y289387D01*
X227230Y289342D01*
X227203Y289305D01*
X227184Y289287D01*
X227175Y289278D01*
X227048Y289132D01*
X226929Y288986D01*
X226811Y288859D01*
X226711Y288740D01*
X226610Y288631D01*
X226519Y288540D01*
X226437Y288449D01*
X226364Y288376D01*
X226291Y288303D01*
X226237Y288248D01*
X226191Y288203D01*
X226146Y288157D01*
X226091Y288112D01*
X226073Y288094D01*
X225918Y287966D01*
X225781Y287857D01*
X225645Y287766D01*
X225535Y287693D01*
X225435Y287638D01*
X225362Y287602D01*
X225317Y287583D01*
X225299Y287574D01*
X225162Y287520D01*
X225025Y287483D01*
X224898Y287447D01*
X224788Y287428D01*
X224688Y287419D01*
X224615Y287410D01*
X224570D01*
X224552D01*
X224415Y287419D01*
X224287Y287438D01*
X224160Y287456D01*
X224050Y287492D01*
X223832Y287583D01*
X223659Y287674D01*
X223577Y287729D01*
X223513Y287775D01*
X223449Y287820D01*
X223404Y287866D01*
X223367Y287902D01*
X223331Y287920D01*
X223322Y287939D01*
X223313Y287948D01*
X223221Y288048D01*
X223140Y288157D01*
X223076Y288276D01*
X223021Y288394D01*
X222930Y288631D01*
X222866Y288868D01*
X222848Y288968D01*
X222830Y289068D01*
X222821Y289159D01*
X222812Y289232D01*
X222802Y289296D01*
Y289387D01*
X222812Y289551D01*
X222821Y289706D01*
X222848Y289852D01*
X222875Y289988D01*
X222912Y290116D01*
X222948Y290234D01*
X222994Y290344D01*
X223039Y290444D01*
X223085Y290535D01*
X223130Y290608D01*
X223167Y290672D01*
X223203Y290726D01*
X223231Y290772D01*
X223258Y290799D01*
X223267Y290817D01*
X223276Y290827D01*
X223367Y290918D01*
X223467Y291000D01*
X223577Y291082D01*
X223686Y291145D01*
X223905Y291255D01*
X224123Y291328D01*
X224224Y291355D01*
X224324Y291382D01*
X224406Y291401D01*
X224479Y291419D01*
X224542Y291428D01*
X224588D01*
X224615Y291437D01*
X224624D01*
X224706Y290644D01*
X224497Y290626D01*
X224315Y290590D01*
X224151Y290535D01*
X224023Y290471D01*
X223914Y290417D01*
X223841Y290362D01*
X223795Y290325D01*
X223777Y290307D01*
X223668Y290171D01*
X223586Y290025D01*
X223522Y289870D01*
X223486Y289733D01*
X223458Y289606D01*
X223449Y289496D01*
X223440Y289460D01*
Y289405D01*
X223449Y289214D01*
X223486Y289041D01*
X223540Y288895D01*
X223595Y288768D01*
X223659Y288667D01*
X223704Y288604D01*
X223741Y288558D01*
X223759Y288540D01*
X223886Y288431D01*
X224014Y288349D01*
X224142Y288285D01*
X224269Y288248D01*
X224369Y288221D01*
X224460Y288212D01*
X224515Y288203D01*
X224524D01*
X224533D01*
X224697Y288221D01*
X224870Y288258D01*
X225025Y288321D01*
X225171Y288385D01*
X225289Y288458D01*
X225390Y288522D01*
X225426Y288540D01*
X225453Y288558D01*
X225463Y288576D01*
X225472D01*
X225572Y288649D01*
X225672Y288740D01*
X225781Y288841D01*
X225891Y288950D01*
X226109Y289178D01*
X226328Y289405D01*
X226428Y289524D01*
X226519Y289624D01*
X226601Y289724D01*
X226674Y289806D01*
X226729Y289870D01*
X226774Y289925D01*
X226802Y289961D01*
X226811Y289970D01*
X227002Y290198D01*
X227184Y290407D01*
X227348Y290581D01*
X227485Y290717D01*
X227603Y290836D01*
X227685Y290918D01*
X227740Y290963D01*
X227749Y290981D01*
X227758D01*
X227913Y291109D01*
X228059Y291209D01*
X228205Y291300D01*
X228332Y291373D01*
X228442Y291428D01*
X228523Y291464D01*
X228578Y291482D01*
X228587Y291492D01*
X228596D01*
X228697Y291528D01*
X228788Y291546D01*
X228879Y291564D01*
X228961Y291574D01*
X229034Y291583D01*
X229088D01*
X229125D01*
X229134D01*
Y287401D01*
D02*
G37*
G36*
X189957Y272070D02*
X190085Y272056D01*
X190198Y272038D01*
X190252Y272023D01*
X190299Y272012D01*
X190343Y272001D01*
X190383Y271987D01*
X190420Y271976D01*
X190449Y271969D01*
X190471Y271958D01*
X190489Y271954D01*
X190500Y271947D01*
X190503D01*
X190613Y271892D01*
X190711Y271830D01*
X190795Y271765D01*
X190827Y271732D01*
X190860Y271703D01*
X190889Y271674D01*
X190915Y271644D01*
X190937Y271619D01*
X190951Y271597D01*
X190966Y271583D01*
X190977Y271568D01*
X190980Y271561D01*
X190984Y271557D01*
X191013Y271506D01*
X191039Y271455D01*
X191078Y271346D01*
X191108Y271237D01*
X191126Y271131D01*
X191133Y271080D01*
X191140Y271037D01*
X191144Y270997D01*
Y270964D01*
X191148Y270935D01*
Y270895D01*
X191144Y270822D01*
X191137Y270753D01*
X191130Y270687D01*
X191115Y270625D01*
X191097Y270567D01*
X191078Y270513D01*
X191060Y270462D01*
X191039Y270414D01*
X191020Y270374D01*
X191002Y270334D01*
X190984Y270305D01*
X190966Y270276D01*
X190951Y270258D01*
X190944Y270239D01*
X190937Y270232D01*
X190933Y270229D01*
X190889Y270178D01*
X190846Y270134D01*
X190795Y270094D01*
X190744Y270054D01*
X190642Y269988D01*
X190540Y269937D01*
X190492Y269916D01*
X190449Y269897D01*
X190409Y269883D01*
X190376Y269872D01*
X190347Y269861D01*
X190325Y269854D01*
X190311Y269850D01*
X190307D01*
X190223Y270185D01*
X190281Y270199D01*
X190336Y270218D01*
X190387Y270236D01*
X190434Y270254D01*
X190478Y270276D01*
X190514Y270298D01*
X190551Y270323D01*
X190584Y270345D01*
X190613Y270363D01*
X190634Y270385D01*
X190656Y270403D01*
X190674Y270418D01*
X190685Y270432D01*
X190696Y270443D01*
X190700Y270447D01*
X190704Y270451D01*
X190733Y270487D01*
X190754Y270527D01*
X190795Y270607D01*
X190824Y270684D01*
X190842Y270760D01*
X190857Y270826D01*
X190860Y270851D01*
Y270877D01*
X190864Y270898D01*
Y270924D01*
X190860Y271007D01*
X190846Y271088D01*
X190827Y271160D01*
X190805Y271226D01*
X190784Y271277D01*
X190773Y271299D01*
X190766Y271317D01*
X190758Y271332D01*
X190751Y271342D01*
X190747Y271350D01*
Y271353D01*
X190696Y271423D01*
X190642Y271481D01*
X190580Y271532D01*
X190522Y271572D01*
X190471Y271604D01*
X190427Y271626D01*
X190409Y271634D01*
X190398Y271641D01*
X190391Y271644D01*
X190387D01*
X190292Y271674D01*
X190198Y271695D01*
X190103Y271714D01*
X190016Y271725D01*
X189976Y271728D01*
X189939Y271732D01*
X189906D01*
X189881Y271736D01*
X189859D01*
X189841D01*
X189830D01*
X189826D01*
X189732Y271732D01*
X189644Y271725D01*
X189564Y271710D01*
X189491Y271695D01*
X189430Y271685D01*
X189404Y271677D01*
X189382Y271670D01*
X189364Y271666D01*
X189353Y271663D01*
X189346Y271659D01*
X189342D01*
X189259Y271623D01*
X189182Y271583D01*
X189120Y271539D01*
X189066Y271492D01*
X189022Y271452D01*
X188993Y271419D01*
X188975Y271393D01*
X188967Y271390D01*
Y271386D01*
X188920Y271310D01*
X188884Y271226D01*
X188858Y271146D01*
X188844Y271069D01*
X188833Y271000D01*
X188829Y270971D01*
Y270946D01*
X188825Y270927D01*
Y270898D01*
X188829Y270807D01*
X188844Y270724D01*
X188865Y270654D01*
X188887Y270593D01*
X188913Y270545D01*
X188931Y270509D01*
X188945Y270487D01*
X188953Y270480D01*
X189007Y270422D01*
X189069Y270367D01*
X189135Y270323D01*
X189200Y270287D01*
X189259Y270258D01*
X189288Y270247D01*
X189310Y270239D01*
X189328Y270232D01*
X189342Y270225D01*
X189349Y270221D01*
X189353D01*
X189277Y269894D01*
X189211Y269916D01*
X189153Y269937D01*
X189098Y269967D01*
X189044Y269992D01*
X188996Y270021D01*
X188953Y270054D01*
X188909Y270083D01*
X188873Y270112D01*
X188844Y270141D01*
X188814Y270167D01*
X188789Y270192D01*
X188771Y270210D01*
X188752Y270229D01*
X188742Y270243D01*
X188738Y270250D01*
X188734Y270254D01*
X188702Y270305D01*
X188669Y270356D01*
X188643Y270407D01*
X188621Y270462D01*
X188589Y270571D01*
X188567Y270669D01*
X188556Y270716D01*
X188552Y270756D01*
X188549Y270796D01*
X188545Y270829D01*
X188541Y270855D01*
Y270891D01*
X188549Y271011D01*
X188567Y271128D01*
X188589Y271230D01*
X188603Y271277D01*
X188618Y271321D01*
X188632Y271361D01*
X188647Y271397D01*
X188658Y271426D01*
X188669Y271455D01*
X188680Y271473D01*
X188687Y271488D01*
X188691Y271499D01*
X188694Y271503D01*
X188756Y271601D01*
X188829Y271685D01*
X188902Y271757D01*
X188975Y271819D01*
X189040Y271867D01*
X189069Y271885D01*
X189095Y271899D01*
X189113Y271914D01*
X189128Y271921D01*
X189138Y271925D01*
X189142Y271928D01*
X189255Y271979D01*
X189371Y272016D01*
X189488Y272041D01*
X189593Y272059D01*
X189641Y272067D01*
X189688Y272070D01*
X189724Y272074D01*
X189761D01*
X189786Y272078D01*
X189808D01*
X189823D01*
X189826D01*
X189957Y272070D01*
D02*
G37*
G36*
X191104Y267939D02*
X190805D01*
Y269180D01*
X190744Y269137D01*
X190718Y269115D01*
X190693Y269096D01*
X190671Y269078D01*
X190656Y269064D01*
X190645Y269053D01*
X190642Y269049D01*
X190623Y269031D01*
X190605Y269009D01*
X190558Y268958D01*
X190503Y268900D01*
X190449Y268838D01*
X190401Y268780D01*
X190380Y268754D01*
X190358Y268733D01*
X190343Y268714D01*
X190332Y268700D01*
X190325Y268692D01*
X190321Y268689D01*
X190270Y268631D01*
X190223Y268572D01*
X190176Y268521D01*
X190136Y268474D01*
X190096Y268430D01*
X190059Y268394D01*
X190026Y268358D01*
X189997Y268328D01*
X189968Y268299D01*
X189946Y268278D01*
X189928Y268259D01*
X189910Y268241D01*
X189888Y268223D01*
X189881Y268216D01*
X189819Y268165D01*
X189764Y268121D01*
X189710Y268085D01*
X189666Y268056D01*
X189626Y268034D01*
X189597Y268019D01*
X189579Y268012D01*
X189571Y268008D01*
X189517Y267986D01*
X189462Y267972D01*
X189411Y267957D01*
X189368Y267950D01*
X189328Y267946D01*
X189298Y267943D01*
X189280D01*
X189273D01*
X189218Y267946D01*
X189167Y267954D01*
X189117Y267961D01*
X189073Y267975D01*
X188986Y268012D01*
X188916Y268048D01*
X188884Y268070D01*
X188858Y268088D01*
X188833Y268106D01*
X188814Y268125D01*
X188800Y268139D01*
X188785Y268146D01*
X188782Y268154D01*
X188778Y268157D01*
X188742Y268197D01*
X188709Y268241D01*
X188683Y268288D01*
X188662Y268336D01*
X188625Y268430D01*
X188600Y268525D01*
X188592Y268565D01*
X188585Y268605D01*
X188582Y268641D01*
X188578Y268671D01*
X188574Y268696D01*
Y268733D01*
X188578Y268798D01*
X188582Y268860D01*
X188592Y268918D01*
X188603Y268973D01*
X188618Y269024D01*
X188632Y269071D01*
X188651Y269115D01*
X188669Y269155D01*
X188687Y269191D01*
X188705Y269220D01*
X188720Y269246D01*
X188734Y269268D01*
X188745Y269286D01*
X188756Y269297D01*
X188760Y269304D01*
X188763Y269308D01*
X188800Y269344D01*
X188840Y269377D01*
X188884Y269410D01*
X188927Y269435D01*
X189015Y269479D01*
X189102Y269508D01*
X189142Y269519D01*
X189182Y269530D01*
X189215Y269537D01*
X189244Y269544D01*
X189269Y269548D01*
X189288D01*
X189298Y269551D01*
X189302D01*
X189335Y269235D01*
X189251Y269228D01*
X189178Y269213D01*
X189113Y269191D01*
X189062Y269166D01*
X189018Y269144D01*
X188989Y269122D01*
X188971Y269107D01*
X188964Y269100D01*
X188920Y269046D01*
X188887Y268987D01*
X188862Y268925D01*
X188847Y268871D01*
X188836Y268820D01*
X188833Y268776D01*
X188829Y268762D01*
Y268740D01*
X188833Y268663D01*
X188847Y268594D01*
X188869Y268536D01*
X188891Y268485D01*
X188916Y268445D01*
X188935Y268420D01*
X188949Y268401D01*
X188956Y268394D01*
X189007Y268350D01*
X189058Y268318D01*
X189109Y268292D01*
X189160Y268278D01*
X189200Y268267D01*
X189237Y268263D01*
X189259Y268259D01*
X189262D01*
X189266D01*
X189331Y268267D01*
X189400Y268281D01*
X189462Y268307D01*
X189521Y268332D01*
X189568Y268361D01*
X189608Y268387D01*
X189622Y268394D01*
X189633Y268401D01*
X189637Y268409D01*
X189641D01*
X189681Y268438D01*
X189721Y268474D01*
X189764Y268514D01*
X189808Y268558D01*
X189895Y268649D01*
X189983Y268740D01*
X190023Y268787D01*
X190059Y268827D01*
X190092Y268867D01*
X190121Y268900D01*
X190143Y268925D01*
X190161Y268947D01*
X190172Y268962D01*
X190176Y268966D01*
X190252Y269057D01*
X190325Y269140D01*
X190391Y269209D01*
X190445Y269264D01*
X190492Y269311D01*
X190525Y269344D01*
X190547Y269362D01*
X190551Y269370D01*
X190554D01*
X190616Y269421D01*
X190674Y269461D01*
X190733Y269497D01*
X190784Y269526D01*
X190827Y269548D01*
X190860Y269562D01*
X190882Y269570D01*
X190886Y269573D01*
X190889D01*
X190929Y269588D01*
X190966Y269595D01*
X191002Y269602D01*
X191035Y269606D01*
X191064Y269610D01*
X191086D01*
X191100D01*
X191104D01*
Y267939D01*
D02*
G37*
G36*
X155445Y185308D02*
X155394Y185235D01*
X155346Y185170D01*
X155299Y185115D01*
X155259Y185064D01*
X155222Y185028D01*
X155193Y184999D01*
X155175Y184981D01*
X155168Y184973D01*
X155139Y184951D01*
X155106Y184926D01*
X155041Y184886D01*
X155011Y184871D01*
X154990Y184857D01*
X154975Y184850D01*
X154968Y184846D01*
X155033Y184835D01*
X155095Y184824D01*
X155150Y184806D01*
X155204Y184791D01*
X155252Y184773D01*
X155295Y184751D01*
X155335Y184733D01*
X155372Y184715D01*
X155401Y184693D01*
X155430Y184675D01*
X155452Y184660D01*
X155470Y184646D01*
X155485Y184635D01*
X155496Y184624D01*
X155499Y184620D01*
X155503Y184617D01*
X155532Y184580D01*
X155561Y184544D01*
X155605Y184467D01*
X155634Y184391D01*
X155656Y184318D01*
X155670Y184256D01*
X155674Y184231D01*
Y184205D01*
X155677Y184187D01*
Y184173D01*
Y184165D01*
Y184162D01*
X155674Y184085D01*
X155663Y184016D01*
X155645Y183950D01*
X155627Y183896D01*
X155605Y183849D01*
X155590Y183812D01*
X155576Y183790D01*
X155572Y183787D01*
Y183783D01*
X155528Y183725D01*
X155485Y183674D01*
X155437Y183630D01*
X155394Y183598D01*
X155354Y183572D01*
X155321Y183557D01*
X155299Y183546D01*
X155295Y183543D01*
X155292D01*
X155259Y183532D01*
X155219Y183521D01*
X155139Y183503D01*
X155051Y183492D01*
X154971Y183481D01*
X154895Y183477D01*
X154862D01*
X154833Y183474D01*
X153665D01*
Y185993D01*
X153999D01*
Y184875D01*
X154429D01*
X154469Y184879D01*
X154498D01*
X154524Y184882D01*
X154542Y184886D01*
X154556D01*
X154564Y184890D01*
X154567D01*
X154626Y184908D01*
X154651Y184919D01*
X154673Y184930D01*
X154695Y184941D01*
X154709Y184948D01*
X154717Y184951D01*
X154720Y184955D01*
X154749Y184977D01*
X154778Y185003D01*
X154833Y185057D01*
X154859Y185083D01*
X154877Y185104D01*
X154888Y185119D01*
X154891Y185123D01*
X154928Y185174D01*
X154968Y185228D01*
X155008Y185286D01*
X155048Y185341D01*
X155081Y185392D01*
X155106Y185432D01*
X155117Y185447D01*
X155124Y185458D01*
X155131Y185465D01*
Y185468D01*
X155463Y185993D01*
X155878D01*
X155445Y185308D01*
D02*
G37*
G36*
X159780Y183463D02*
X159580D01*
X159543Y183525D01*
X159503Y183583D01*
X159456Y183641D01*
X159412Y183692D01*
X159369Y183736D01*
X159336Y183772D01*
X159321Y183783D01*
X159310Y183794D01*
X159307Y183798D01*
X159303Y183801D01*
X159227Y183863D01*
X159150Y183921D01*
X159077Y183972D01*
X159004Y184012D01*
X158943Y184049D01*
X158917Y184063D01*
X158895Y184074D01*
X158877Y184085D01*
X158862Y184089D01*
X158855Y184096D01*
X158852D01*
Y184395D01*
X158906Y184373D01*
X158961Y184347D01*
X159015Y184322D01*
X159066Y184296D01*
X159110Y184274D01*
X159146Y184256D01*
X159168Y184242D01*
X159172Y184238D01*
X159176D01*
X159241Y184198D01*
X159299Y184158D01*
X159350Y184122D01*
X159390Y184089D01*
X159427Y184063D01*
X159449Y184042D01*
X159467Y184027D01*
X159470Y184023D01*
Y185993D01*
X159780D01*
Y183463D01*
D02*
G37*
G36*
X158182Y183474D02*
X157861D01*
Y185454D01*
X156540Y183474D01*
X156198D01*
Y185993D01*
X156518D01*
Y184016D01*
X157836Y185993D01*
X158182D01*
Y183474D01*
D02*
G37*
G36*
X234286Y327856D02*
X234414Y327841D01*
X234527Y327823D01*
X234581Y327808D01*
X234629Y327798D01*
X234672Y327786D01*
X234712Y327772D01*
X234749Y327761D01*
X234778Y327754D01*
X234800Y327743D01*
X234818Y327739D01*
X234829Y327732D01*
X234833D01*
X234942Y327677D01*
X235040Y327615D01*
X235124Y327550D01*
X235156Y327517D01*
X235189Y327488D01*
X235218Y327459D01*
X235244Y327430D01*
X235266Y327404D01*
X235280Y327382D01*
X235295Y327368D01*
X235306Y327353D01*
X235309Y327346D01*
X235313Y327343D01*
X235342Y327291D01*
X235367Y327240D01*
X235408Y327131D01*
X235437Y327022D01*
X235455Y326917D01*
X235462Y326866D01*
X235470Y326822D01*
X235473Y326782D01*
Y326749D01*
X235477Y326720D01*
Y326680D01*
X235473Y326607D01*
X235466Y326538D01*
X235458Y326472D01*
X235444Y326411D01*
X235426Y326352D01*
X235408Y326298D01*
X235389Y326247D01*
X235367Y326200D01*
X235349Y326160D01*
X235331Y326119D01*
X235313Y326090D01*
X235295Y326061D01*
X235280Y326043D01*
X235273Y326025D01*
X235266Y326017D01*
X235262Y326014D01*
X235218Y325963D01*
X235175Y325919D01*
X235124Y325879D01*
X235073Y325839D01*
X234971Y325774D01*
X234869Y325723D01*
X234822Y325701D01*
X234778Y325683D01*
X234738Y325668D01*
X234705Y325657D01*
X234676Y325646D01*
X234654Y325639D01*
X234640Y325635D01*
X234636D01*
X234552Y325970D01*
X234610Y325985D01*
X234665Y326003D01*
X234716Y326021D01*
X234763Y326039D01*
X234807Y326061D01*
X234843Y326083D01*
X234880Y326109D01*
X234912Y326130D01*
X234942Y326149D01*
X234963Y326170D01*
X234985Y326189D01*
X235003Y326203D01*
X235015Y326218D01*
X235025Y326229D01*
X235029Y326232D01*
X235033Y326236D01*
X235062Y326272D01*
X235084Y326312D01*
X235124Y326392D01*
X235153Y326469D01*
X235171Y326545D01*
X235186Y326611D01*
X235189Y326636D01*
Y326662D01*
X235193Y326684D01*
Y326709D01*
X235189Y326793D01*
X235175Y326873D01*
X235156Y326946D01*
X235135Y327011D01*
X235113Y327062D01*
X235102Y327084D01*
X235094Y327102D01*
X235087Y327117D01*
X235080Y327128D01*
X235076Y327135D01*
Y327139D01*
X235025Y327208D01*
X234971Y327266D01*
X234909Y327317D01*
X234851Y327357D01*
X234800Y327390D01*
X234756Y327412D01*
X234738Y327419D01*
X234727Y327426D01*
X234720Y327430D01*
X234716D01*
X234621Y327459D01*
X234527Y327481D01*
X234432Y327499D01*
X234345Y327510D01*
X234305Y327514D01*
X234268Y327517D01*
X234236D01*
X234210Y327521D01*
X234188D01*
X234170D01*
X234159D01*
X234155D01*
X234061Y327517D01*
X233973Y327510D01*
X233893Y327495D01*
X233821Y327481D01*
X233759Y327470D01*
X233733Y327463D01*
X233711Y327455D01*
X233693Y327452D01*
X233682Y327448D01*
X233675Y327444D01*
X233671D01*
X233588Y327408D01*
X233511Y327368D01*
X233449Y327324D01*
X233395Y327277D01*
X233351Y327237D01*
X233322Y327204D01*
X233304Y327179D01*
X233296Y327175D01*
Y327171D01*
X233249Y327095D01*
X233213Y327011D01*
X233187Y326931D01*
X233173Y326855D01*
X233162Y326785D01*
X233158Y326756D01*
Y326731D01*
X233154Y326713D01*
Y326684D01*
X233158Y326593D01*
X233173Y326509D01*
X233194Y326440D01*
X233216Y326378D01*
X233242Y326330D01*
X233260Y326294D01*
X233275Y326272D01*
X233282Y326265D01*
X233336Y326207D01*
X233398Y326152D01*
X233464Y326109D01*
X233529Y326072D01*
X233588Y326043D01*
X233617Y326032D01*
X233639Y326025D01*
X233657Y326017D01*
X233671Y326010D01*
X233679Y326007D01*
X233682D01*
X233606Y325679D01*
X233540Y325701D01*
X233482Y325723D01*
X233427Y325752D01*
X233373Y325777D01*
X233326Y325806D01*
X233282Y325839D01*
X233238Y325868D01*
X233202Y325897D01*
X233173Y325926D01*
X233143Y325952D01*
X233118Y325977D01*
X233100Y325996D01*
X233082Y326014D01*
X233071Y326028D01*
X233067Y326036D01*
X233063Y326039D01*
X233031Y326090D01*
X232998Y326141D01*
X232972Y326192D01*
X232951Y326247D01*
X232918Y326356D01*
X232896Y326454D01*
X232885Y326502D01*
X232881Y326542D01*
X232878Y326582D01*
X232874Y326614D01*
X232871Y326640D01*
Y326676D01*
X232878Y326797D01*
X232896Y326913D01*
X232918Y327015D01*
X232932Y327062D01*
X232947Y327106D01*
X232962Y327146D01*
X232976Y327182D01*
X232987Y327211D01*
X232998Y327240D01*
X233009Y327259D01*
X233016Y327273D01*
X233020Y327284D01*
X233023Y327288D01*
X233085Y327386D01*
X233158Y327470D01*
X233231Y327543D01*
X233304Y327605D01*
X233369Y327652D01*
X233398Y327670D01*
X233424Y327685D01*
X233442Y327699D01*
X233456Y327707D01*
X233468Y327710D01*
X233471Y327714D01*
X233584Y327765D01*
X233700Y327801D01*
X233817Y327827D01*
X233923Y327845D01*
X233970Y327852D01*
X234017Y327856D01*
X234053Y327859D01*
X234090D01*
X234115Y327863D01*
X234137D01*
X234152D01*
X234155D01*
X234286Y327856D01*
D02*
G37*
G36*
X235433Y323724D02*
X235135D01*
Y324966D01*
X235073Y324922D01*
X235047Y324900D01*
X235022Y324882D01*
X235000Y324864D01*
X234985Y324849D01*
X234974Y324838D01*
X234971Y324834D01*
X234953Y324816D01*
X234934Y324795D01*
X234887Y324744D01*
X234833Y324685D01*
X234778Y324623D01*
X234731Y324565D01*
X234709Y324540D01*
X234687Y324518D01*
X234672Y324500D01*
X234661Y324485D01*
X234654Y324478D01*
X234650Y324474D01*
X234599Y324416D01*
X234552Y324358D01*
X234505Y324307D01*
X234465Y324259D01*
X234425Y324216D01*
X234388Y324179D01*
X234356Y324143D01*
X234327Y324114D01*
X234297Y324085D01*
X234276Y324063D01*
X234257Y324045D01*
X234239Y324026D01*
X234217Y324008D01*
X234210Y324001D01*
X234148Y323950D01*
X234093Y323906D01*
X234039Y323870D01*
X233995Y323841D01*
X233955Y323819D01*
X233926Y323804D01*
X233908Y323797D01*
X233901Y323794D01*
X233846Y323772D01*
X233791Y323757D01*
X233740Y323743D01*
X233697Y323735D01*
X233657Y323732D01*
X233628Y323728D01*
X233609D01*
X233602D01*
X233547Y323732D01*
X233497Y323739D01*
X233446Y323746D01*
X233402Y323761D01*
X233315Y323797D01*
X233245Y323833D01*
X233213Y323855D01*
X233187Y323873D01*
X233162Y323892D01*
X233143Y323910D01*
X233129Y323924D01*
X233114Y323932D01*
X233111Y323939D01*
X233107Y323943D01*
X233071Y323983D01*
X233038Y324026D01*
X233013Y324074D01*
X232991Y324121D01*
X232954Y324216D01*
X232929Y324310D01*
X232922Y324350D01*
X232914Y324390D01*
X232910Y324427D01*
X232907Y324456D01*
X232903Y324481D01*
Y324518D01*
X232907Y324583D01*
X232910Y324645D01*
X232922Y324704D01*
X232932Y324758D01*
X232947Y324809D01*
X232962Y324856D01*
X232980Y324900D01*
X232998Y324940D01*
X233016Y324976D01*
X233034Y325006D01*
X233049Y325031D01*
X233063Y325053D01*
X233074Y325071D01*
X233085Y325082D01*
X233089Y325089D01*
X233092Y325093D01*
X233129Y325129D01*
X233169Y325162D01*
X233213Y325195D01*
X233256Y325220D01*
X233344Y325264D01*
X233431Y325293D01*
X233471Y325304D01*
X233511Y325315D01*
X233544Y325322D01*
X233573Y325329D01*
X233598Y325333D01*
X233617D01*
X233628Y325337D01*
X233631D01*
X233664Y325020D01*
X233580Y325013D01*
X233507Y324998D01*
X233442Y324976D01*
X233391Y324951D01*
X233347Y324929D01*
X233318Y324907D01*
X233300Y324893D01*
X233293Y324886D01*
X233249Y324831D01*
X233216Y324773D01*
X233191Y324711D01*
X233176Y324656D01*
X233165Y324605D01*
X233162Y324562D01*
X233158Y324547D01*
Y324525D01*
X233162Y324449D01*
X233176Y324379D01*
X233198Y324321D01*
X233220Y324270D01*
X233245Y324230D01*
X233264Y324205D01*
X233278Y324187D01*
X233285Y324179D01*
X233336Y324136D01*
X233387Y324103D01*
X233438Y324077D01*
X233489Y324063D01*
X233529Y324052D01*
X233566Y324048D01*
X233588Y324045D01*
X233591D01*
X233595D01*
X233660Y324052D01*
X233730Y324066D01*
X233791Y324092D01*
X233850Y324117D01*
X233897Y324147D01*
X233937Y324172D01*
X233952Y324179D01*
X233962Y324187D01*
X233966Y324194D01*
X233970D01*
X234010Y324223D01*
X234050Y324259D01*
X234093Y324299D01*
X234137Y324343D01*
X234225Y324434D01*
X234312Y324525D01*
X234352Y324572D01*
X234388Y324612D01*
X234421Y324653D01*
X234450Y324685D01*
X234472Y324711D01*
X234490Y324733D01*
X234501Y324747D01*
X234505Y324751D01*
X234581Y324842D01*
X234654Y324925D01*
X234720Y324995D01*
X234774Y325049D01*
X234822Y325097D01*
X234854Y325129D01*
X234876Y325148D01*
X234880Y325155D01*
X234883D01*
X234945Y325206D01*
X235003Y325246D01*
X235062Y325282D01*
X235113Y325311D01*
X235156Y325333D01*
X235189Y325348D01*
X235211Y325355D01*
X235215Y325359D01*
X235218D01*
X235258Y325373D01*
X235295Y325380D01*
X235331Y325388D01*
X235364Y325391D01*
X235393Y325395D01*
X235415D01*
X235429D01*
X235433D01*
Y323724D01*
D02*
G37*
G36*
Y321766D02*
X235135D01*
Y323007D01*
X235073Y322964D01*
X235047Y322942D01*
X235022Y322923D01*
X235000Y322905D01*
X234985Y322891D01*
X234974Y322880D01*
X234971Y322876D01*
X234953Y322858D01*
X234934Y322836D01*
X234887Y322785D01*
X234833Y322727D01*
X234778Y322665D01*
X234731Y322607D01*
X234709Y322581D01*
X234687Y322559D01*
X234672Y322541D01*
X234661Y322527D01*
X234654Y322519D01*
X234650Y322516D01*
X234599Y322458D01*
X234552Y322399D01*
X234505Y322348D01*
X234465Y322301D01*
X234425Y322257D01*
X234388Y322221D01*
X234356Y322185D01*
X234327Y322155D01*
X234297Y322126D01*
X234276Y322105D01*
X234257Y322086D01*
X234239Y322068D01*
X234217Y322050D01*
X234210Y322043D01*
X234148Y321992D01*
X234093Y321948D01*
X234039Y321912D01*
X233995Y321883D01*
X233955Y321861D01*
X233926Y321846D01*
X233908Y321839D01*
X233901Y321835D01*
X233846Y321813D01*
X233791Y321799D01*
X233740Y321784D01*
X233697Y321777D01*
X233657Y321773D01*
X233628Y321770D01*
X233609D01*
X233602D01*
X233547Y321773D01*
X233497Y321780D01*
X233446Y321788D01*
X233402Y321802D01*
X233315Y321839D01*
X233245Y321875D01*
X233213Y321897D01*
X233187Y321915D01*
X233162Y321933D01*
X233143Y321952D01*
X233129Y321966D01*
X233114Y321973D01*
X233111Y321981D01*
X233107Y321984D01*
X233071Y322024D01*
X233038Y322068D01*
X233013Y322115D01*
X232991Y322163D01*
X232954Y322257D01*
X232929Y322352D01*
X232922Y322392D01*
X232914Y322432D01*
X232910Y322468D01*
X232907Y322498D01*
X232903Y322523D01*
Y322559D01*
X232907Y322625D01*
X232910Y322687D01*
X232922Y322745D01*
X232932Y322800D01*
X232947Y322851D01*
X232962Y322898D01*
X232980Y322942D01*
X232998Y322982D01*
X233016Y323018D01*
X233034Y323047D01*
X233049Y323073D01*
X233063Y323095D01*
X233074Y323113D01*
X233085Y323124D01*
X233089Y323131D01*
X233092Y323135D01*
X233129Y323171D01*
X233169Y323204D01*
X233213Y323236D01*
X233256Y323262D01*
X233344Y323306D01*
X233431Y323335D01*
X233471Y323346D01*
X233511Y323357D01*
X233544Y323364D01*
X233573Y323371D01*
X233598Y323375D01*
X233617D01*
X233628Y323378D01*
X233631D01*
X233664Y323062D01*
X233580Y323055D01*
X233507Y323040D01*
X233442Y323018D01*
X233391Y322993D01*
X233347Y322971D01*
X233318Y322949D01*
X233300Y322934D01*
X233293Y322927D01*
X233249Y322872D01*
X233216Y322814D01*
X233191Y322752D01*
X233176Y322698D01*
X233165Y322647D01*
X233162Y322603D01*
X233158Y322589D01*
Y322567D01*
X233162Y322490D01*
X233176Y322421D01*
X233198Y322363D01*
X233220Y322312D01*
X233245Y322272D01*
X233264Y322247D01*
X233278Y322228D01*
X233285Y322221D01*
X233336Y322177D01*
X233387Y322145D01*
X233438Y322119D01*
X233489Y322105D01*
X233529Y322094D01*
X233566Y322090D01*
X233588Y322086D01*
X233591D01*
X233595D01*
X233660Y322094D01*
X233730Y322108D01*
X233791Y322134D01*
X233850Y322159D01*
X233897Y322188D01*
X233937Y322214D01*
X233952Y322221D01*
X233962Y322228D01*
X233966Y322235D01*
X233970D01*
X234010Y322265D01*
X234050Y322301D01*
X234093Y322341D01*
X234137Y322385D01*
X234225Y322476D01*
X234312Y322567D01*
X234352Y322614D01*
X234388Y322654D01*
X234421Y322694D01*
X234450Y322727D01*
X234472Y322752D01*
X234490Y322774D01*
X234501Y322789D01*
X234505Y322793D01*
X234581Y322884D01*
X234654Y322967D01*
X234720Y323036D01*
X234774Y323091D01*
X234822Y323138D01*
X234854Y323171D01*
X234876Y323189D01*
X234880Y323197D01*
X234883D01*
X234945Y323248D01*
X235003Y323288D01*
X235062Y323324D01*
X235113Y323353D01*
X235156Y323375D01*
X235189Y323389D01*
X235211Y323397D01*
X235215Y323400D01*
X235218D01*
X235258Y323415D01*
X235295Y323422D01*
X235331Y323429D01*
X235364Y323433D01*
X235393Y323437D01*
X235415D01*
X235429D01*
X235433D01*
Y321766D01*
D02*
G37*
G36*
X167660Y280726D02*
X167719Y280719D01*
X167777Y280708D01*
X167828Y280693D01*
X167926Y280653D01*
X167970Y280635D01*
X168006Y280613D01*
X168043Y280588D01*
X168072Y280570D01*
X168101Y280548D01*
X168123Y280530D01*
X168141Y280515D01*
X168152Y280504D01*
X168159Y280497D01*
X168163Y280493D01*
X168203Y280450D01*
X168236Y280399D01*
X168268Y280351D01*
X168294Y280300D01*
X168316Y280246D01*
X168334Y280195D01*
X168359Y280100D01*
X168370Y280053D01*
X168377Y280013D01*
X168381Y279973D01*
X168385Y279940D01*
X168388Y279914D01*
Y279896D01*
Y279882D01*
Y279878D01*
X168385Y279809D01*
X168377Y279747D01*
X168370Y279685D01*
X168356Y279627D01*
X168337Y279576D01*
X168319Y279525D01*
X168301Y279481D01*
X168279Y279441D01*
X168261Y279405D01*
X168243Y279372D01*
X168225Y279347D01*
X168206Y279321D01*
X168192Y279303D01*
X168185Y279292D01*
X168177Y279285D01*
X168174Y279281D01*
X168134Y279241D01*
X168090Y279208D01*
X168046Y279175D01*
X167999Y279150D01*
X167955Y279128D01*
X167912Y279110D01*
X167828Y279084D01*
X167791Y279074D01*
X167755Y279066D01*
X167726Y279063D01*
X167697Y279059D01*
X167675Y279055D01*
X167646D01*
X167577Y279059D01*
X167511Y279070D01*
X167453Y279084D01*
X167398Y279103D01*
X167358Y279117D01*
X167325Y279132D01*
X167304Y279143D01*
X167296Y279146D01*
X167238Y279183D01*
X167187Y279223D01*
X167143Y279263D01*
X167107Y279299D01*
X167082Y279336D01*
X167060Y279361D01*
X167045Y279379D01*
X167042Y279387D01*
Y279358D01*
Y279339D01*
Y279328D01*
Y279325D01*
X167045Y279252D01*
X167049Y279183D01*
X167056Y279121D01*
X167063Y279063D01*
X167074Y279015D01*
X167082Y278979D01*
X167085Y278964D01*
Y278954D01*
X167089Y278950D01*
Y278946D01*
X167107Y278881D01*
X167125Y278822D01*
X167143Y278771D01*
X167162Y278728D01*
X167176Y278695D01*
X167191Y278670D01*
X167198Y278651D01*
X167202Y278648D01*
X167231Y278608D01*
X167260Y278575D01*
X167289Y278546D01*
X167318Y278520D01*
X167340Y278499D01*
X167362Y278484D01*
X167376Y278477D01*
X167380Y278473D01*
X167420Y278451D01*
X167464Y278437D01*
X167504Y278426D01*
X167544Y278418D01*
X167577Y278415D01*
X167602Y278411D01*
X167628D01*
X167686Y278415D01*
X167740Y278426D01*
X167788Y278440D01*
X167828Y278458D01*
X167857Y278473D01*
X167882Y278488D01*
X167897Y278499D01*
X167901Y278502D01*
X167937Y278542D01*
X167966Y278590D01*
X167992Y278640D01*
X168010Y278691D01*
X168024Y278735D01*
X168035Y278775D01*
X168039Y278790D01*
Y278797D01*
X168043Y278804D01*
Y278808D01*
X168341Y278782D01*
X168319Y278677D01*
X168290Y278586D01*
X168254Y278506D01*
X168217Y278440D01*
X168181Y278389D01*
X168163Y278367D01*
X168148Y278349D01*
X168137Y278338D01*
X168126Y278327D01*
X168123Y278324D01*
X168119Y278320D01*
X168083Y278291D01*
X168043Y278266D01*
X167963Y278225D01*
X167882Y278196D01*
X167806Y278178D01*
X167737Y278164D01*
X167708Y278160D01*
X167682D01*
X167664Y278156D01*
X167635D01*
X167533Y278164D01*
X167442Y278178D01*
X167358Y278204D01*
X167289Y278233D01*
X167260Y278244D01*
X167231Y278258D01*
X167209Y278273D01*
X167187Y278284D01*
X167173Y278291D01*
X167162Y278298D01*
X167154Y278306D01*
X167151D01*
X167078Y278367D01*
X167013Y278437D01*
X166962Y278509D01*
X166918Y278579D01*
X166881Y278640D01*
X166867Y278670D01*
X166856Y278691D01*
X166849Y278713D01*
X166841Y278728D01*
X166838Y278735D01*
Y278739D01*
X166820Y278793D01*
X166801Y278855D01*
X166776Y278979D01*
X166758Y279110D01*
X166747Y279234D01*
X166739Y279288D01*
X166736Y279343D01*
Y279390D01*
X166732Y279430D01*
Y279463D01*
Y279489D01*
Y279507D01*
Y279510D01*
Y279594D01*
X166736Y279674D01*
X166743Y279747D01*
X166750Y279816D01*
X166758Y279878D01*
X166765Y279936D01*
X166776Y279991D01*
X166787Y280038D01*
X166798Y280078D01*
X166805Y280115D01*
X166816Y280147D01*
X166823Y280173D01*
X166831Y280191D01*
X166838Y280206D01*
X166841Y280213D01*
Y280217D01*
X166885Y280304D01*
X166932Y280380D01*
X166987Y280446D01*
X167034Y280501D01*
X167082Y280540D01*
X167118Y280570D01*
X167133Y280581D01*
X167143Y280588D01*
X167147Y280595D01*
X167151D01*
X167227Y280639D01*
X167304Y280672D01*
X167380Y280697D01*
X167449Y280712D01*
X167511Y280722D01*
X167537Y280726D01*
X167555D01*
X167573Y280730D01*
X167598D01*
X167660Y280726D01*
D02*
G37*
G36*
X169834Y280755D02*
X169950Y280737D01*
X170052Y280715D01*
X170099Y280701D01*
X170143Y280686D01*
X170183Y280672D01*
X170219Y280657D01*
X170248Y280646D01*
X170278Y280635D01*
X170296Y280624D01*
X170310Y280617D01*
X170321Y280613D01*
X170325Y280610D01*
X170423Y280548D01*
X170507Y280475D01*
X170580Y280402D01*
X170642Y280329D01*
X170689Y280264D01*
X170707Y280235D01*
X170722Y280209D01*
X170736Y280191D01*
X170744Y280176D01*
X170747Y280166D01*
X170751Y280162D01*
X170802Y280049D01*
X170838Y279933D01*
X170864Y279816D01*
X170882Y279711D01*
X170889Y279663D01*
X170893Y279616D01*
X170896Y279580D01*
Y279543D01*
X170900Y279518D01*
Y279496D01*
Y279481D01*
Y279478D01*
X170893Y279347D01*
X170878Y279219D01*
X170860Y279106D01*
X170845Y279052D01*
X170835Y279004D01*
X170824Y278961D01*
X170809Y278921D01*
X170798Y278884D01*
X170791Y278855D01*
X170780Y278833D01*
X170776Y278815D01*
X170769Y278804D01*
Y278801D01*
X170714Y278691D01*
X170652Y278593D01*
X170587Y278509D01*
X170554Y278477D01*
X170525Y278444D01*
X170496Y278415D01*
X170467Y278389D01*
X170441Y278367D01*
X170420Y278353D01*
X170405Y278338D01*
X170390Y278327D01*
X170383Y278324D01*
X170379Y278320D01*
X170328Y278291D01*
X170278Y278266D01*
X170168Y278225D01*
X170059Y278196D01*
X169954Y278178D01*
X169903Y278171D01*
X169859Y278164D01*
X169819Y278160D01*
X169786D01*
X169757Y278156D01*
X169717D01*
X169644Y278160D01*
X169575Y278167D01*
X169509Y278174D01*
X169448Y278189D01*
X169389Y278207D01*
X169335Y278225D01*
X169284Y278244D01*
X169237Y278266D01*
X169196Y278284D01*
X169156Y278302D01*
X169127Y278320D01*
X169098Y278338D01*
X169080Y278353D01*
X169062Y278360D01*
X169054Y278367D01*
X169051Y278371D01*
X169000Y278415D01*
X168956Y278458D01*
X168916Y278509D01*
X168876Y278560D01*
X168811Y278662D01*
X168760Y278764D01*
X168738Y278812D01*
X168720Y278855D01*
X168705Y278895D01*
X168694Y278928D01*
X168683Y278957D01*
X168676Y278979D01*
X168672Y278994D01*
Y278997D01*
X169007Y279081D01*
X169022Y279023D01*
X169040Y278968D01*
X169058Y278917D01*
X169076Y278870D01*
X169098Y278826D01*
X169120Y278790D01*
X169146Y278753D01*
X169167Y278720D01*
X169186Y278691D01*
X169207Y278670D01*
X169226Y278648D01*
X169240Y278629D01*
X169255Y278619D01*
X169266Y278608D01*
X169269Y278604D01*
X169273Y278600D01*
X169309Y278571D01*
X169349Y278549D01*
X169429Y278509D01*
X169506Y278480D01*
X169582Y278462D01*
X169648Y278448D01*
X169673Y278444D01*
X169699D01*
X169721Y278440D01*
X169746D01*
X169830Y278444D01*
X169910Y278458D01*
X169983Y278477D01*
X170048Y278499D01*
X170099Y278520D01*
X170121Y278531D01*
X170139Y278538D01*
X170154Y278546D01*
X170165Y278553D01*
X170172Y278557D01*
X170176D01*
X170245Y278608D01*
X170303Y278662D01*
X170354Y278724D01*
X170394Y278782D01*
X170427Y278833D01*
X170449Y278877D01*
X170456Y278895D01*
X170463Y278906D01*
X170467Y278913D01*
Y278917D01*
X170496Y279012D01*
X170518Y279106D01*
X170536Y279201D01*
X170547Y279288D01*
X170551Y279328D01*
X170554Y279365D01*
Y279398D01*
X170558Y279423D01*
Y279445D01*
Y279463D01*
Y279474D01*
Y279478D01*
X170554Y279572D01*
X170547Y279660D01*
X170532Y279740D01*
X170518Y279813D01*
X170507Y279874D01*
X170500Y279900D01*
X170492Y279922D01*
X170489Y279940D01*
X170485Y279951D01*
X170481Y279958D01*
Y279962D01*
X170445Y280046D01*
X170405Y280122D01*
X170361Y280184D01*
X170314Y280238D01*
X170274Y280282D01*
X170241Y280311D01*
X170216Y280329D01*
X170212Y280337D01*
X170208D01*
X170132Y280384D01*
X170048Y280420D01*
X169968Y280446D01*
X169892Y280460D01*
X169823Y280471D01*
X169793Y280475D01*
X169768D01*
X169750Y280479D01*
X169721D01*
X169630Y280475D01*
X169546Y280460D01*
X169477Y280439D01*
X169415Y280417D01*
X169368Y280391D01*
X169331Y280373D01*
X169309Y280359D01*
X169302Y280351D01*
X169244Y280297D01*
X169189Y280235D01*
X169146Y280169D01*
X169109Y280104D01*
X169080Y280046D01*
X169069Y280016D01*
X169062Y279995D01*
X169054Y279976D01*
X169047Y279962D01*
X169044Y279955D01*
Y279951D01*
X168716Y280027D01*
X168738Y280093D01*
X168760Y280151D01*
X168789Y280206D01*
X168814Y280260D01*
X168843Y280308D01*
X168876Y280351D01*
X168905Y280395D01*
X168934Y280431D01*
X168964Y280460D01*
X168989Y280490D01*
X169015Y280515D01*
X169033Y280533D01*
X169051Y280551D01*
X169065Y280562D01*
X169073Y280566D01*
X169076Y280570D01*
X169127Y280602D01*
X169178Y280635D01*
X169229Y280661D01*
X169284Y280682D01*
X169393Y280715D01*
X169491Y280737D01*
X169539Y280748D01*
X169579Y280752D01*
X169619Y280755D01*
X169651Y280759D01*
X169677Y280763D01*
X169713D01*
X169834Y280755D01*
D02*
G37*
%LPC*%
G36*
X154749Y184588D02*
X153999D01*
Y183754D01*
X154793D01*
X154891Y183758D01*
X154975Y183772D01*
X155048Y183790D01*
X155102Y183812D01*
X155150Y183834D01*
X155179Y183852D01*
X155197Y183867D01*
X155204Y183870D01*
X155248Y183918D01*
X155281Y183965D01*
X155303Y184016D01*
X155321Y184060D01*
X155328Y184103D01*
X155332Y184136D01*
X155335Y184158D01*
Y184162D01*
Y184165D01*
X155332Y184209D01*
X155324Y184253D01*
X155314Y184289D01*
X155303Y184322D01*
X155288Y184351D01*
X155277Y184373D01*
X155270Y184387D01*
X155266Y184391D01*
X155241Y184427D01*
X155208Y184460D01*
X155175Y184486D01*
X155142Y184507D01*
X155113Y184522D01*
X155092Y184533D01*
X155077Y184540D01*
X155070Y184544D01*
X155019Y184558D01*
X154960Y184569D01*
X154902Y184577D01*
X154844Y184580D01*
X154793Y184584D01*
X154749Y184588D01*
D02*
G37*
G36*
X167580Y280475D02*
X167522D01*
X167486Y280468D01*
X167420Y280450D01*
X167362Y280424D01*
X167311Y280399D01*
X167271Y280369D01*
X167242Y280344D01*
X167224Y280326D01*
X167216Y280322D01*
Y280318D01*
X167169Y280257D01*
X167133Y280187D01*
X167107Y280115D01*
X167093Y280046D01*
X167082Y279987D01*
X167078Y279962D01*
Y279936D01*
X167074Y279918D01*
Y279904D01*
Y279896D01*
Y279893D01*
X167082Y279798D01*
X167096Y279714D01*
X167118Y279645D01*
X167143Y279587D01*
X167173Y279539D01*
X167194Y279507D01*
X167209Y279485D01*
X167216Y279478D01*
X167271Y279427D01*
X167329Y279390D01*
X167387Y279365D01*
X167446Y279347D01*
X167493Y279336D01*
X167533Y279332D01*
X167548Y279328D01*
X167569D01*
X167646Y279336D01*
X167715Y279350D01*
X167777Y279376D01*
X167832Y279405D01*
X167871Y279430D01*
X167904Y279456D01*
X167922Y279470D01*
X167930Y279478D01*
X167977Y279536D01*
X168014Y279601D01*
X168035Y279667D01*
X168053Y279729D01*
X168064Y279783D01*
X168068Y279805D01*
Y279827D01*
X168072Y279845D01*
Y279856D01*
Y279864D01*
Y279867D01*
X168064Y279962D01*
X168050Y280049D01*
X168024Y280126D01*
X167995Y280187D01*
X167970Y280238D01*
X167944Y280275D01*
X167937Y280286D01*
X167930Y280297D01*
X167922Y280300D01*
Y280304D01*
X167893Y280333D01*
X167864Y280362D01*
X167802Y280402D01*
X167740Y280435D01*
X167682Y280453D01*
X167635Y280468D01*
X167595Y280471D01*
X167580Y280475D01*
D02*
G37*
%LPD*%
D13*
X184739Y349694D02*
X188489D01*
X184739Y351094D02*
X188489D01*
X164064Y271354D02*
Y275103D01*
X165464Y271354D02*
Y275103D01*
X190730Y273906D02*
Y277656D01*
X189330Y273906D02*
Y277656D01*
X232771Y315166D02*
X236521D01*
X232771Y316566D02*
X236521D01*
M02*
