G04*
G04 #@! TF.GenerationSoftware,Altium Limited,Altium Designer,20.2.7 (254)*
G04*
G04 Layer_Physical_Order=2*
G04 Layer_Color=16711680*
%FSLAX25Y25*%
%MOIN*%
G70*
G04*
G04 #@! TF.SameCoordinates,FBE84B92-D195-4989-AC34-508FE9173FC9*
G04*
G04*
G04 #@! TF.FilePolarity,Positive*
G04*
G01*
G75*
%ADD11C,0.00787*%
G04:AMPARAMS|DCode=17|XSize=39.37mil|YSize=35.43mil|CornerRadius=4.43mil|HoleSize=0mil|Usage=FLASHONLY|Rotation=270.000|XOffset=0mil|YOffset=0mil|HoleType=Round|Shape=RoundedRectangle|*
%AMROUNDEDRECTD17*
21,1,0.03937,0.02657,0,0,270.0*
21,1,0.03051,0.03543,0,0,270.0*
1,1,0.00886,-0.01329,-0.01526*
1,1,0.00886,-0.01329,0.01526*
1,1,0.00886,0.01329,0.01526*
1,1,0.00886,0.01329,-0.01526*
%
%ADD17ROUNDEDRECTD17*%
G04:AMPARAMS|DCode=18|XSize=39.37mil|YSize=35.43mil|CornerRadius=4.43mil|HoleSize=0mil|Usage=FLASHONLY|Rotation=180.000|XOffset=0mil|YOffset=0mil|HoleType=Round|Shape=RoundedRectangle|*
%AMROUNDEDRECTD18*
21,1,0.03937,0.02657,0,0,180.0*
21,1,0.03051,0.03543,0,0,180.0*
1,1,0.00886,-0.01526,0.01329*
1,1,0.00886,0.01526,0.01329*
1,1,0.00886,0.01526,-0.01329*
1,1,0.00886,-0.01526,-0.01329*
%
%ADD18ROUNDEDRECTD18*%
%ADD60C,0.02362*%
%ADD64C,0.22047*%
%ADD65R,0.05906X0.05906*%
%ADD66C,0.05906*%
%ADD67R,0.05906X0.05906*%
%ADD68O,0.08268X0.03937*%
%ADD69O,0.06299X0.03937*%
%ADD70C,0.03150*%
%ADD71C,0.07500*%
G04:AMPARAMS|DCode=72|XSize=75mil|YSize=75mil|CornerRadius=9.38mil|HoleSize=0mil|Usage=FLASHONLY|Rotation=0.000|XOffset=0mil|YOffset=0mil|HoleType=Round|Shape=RoundedRectangle|*
%AMROUNDEDRECTD72*
21,1,0.07500,0.05625,0,0,0.0*
21,1,0.05625,0.07500,0,0,0.0*
1,1,0.01875,0.02813,-0.02813*
1,1,0.01875,-0.02813,-0.02813*
1,1,0.01875,-0.02813,0.02813*
1,1,0.01875,0.02813,0.02813*
%
%ADD72ROUNDEDRECTD72*%
%ADD73O,0.06000X0.08000*%
G04:AMPARAMS|DCode=74|XSize=60mil|YSize=80mil|CornerRadius=7.5mil|HoleSize=0mil|Usage=FLASHONLY|Rotation=180.000|XOffset=0mil|YOffset=0mil|HoleType=Round|Shape=RoundedRectangle|*
%AMROUNDEDRECTD74*
21,1,0.06000,0.06500,0,0,180.0*
21,1,0.04500,0.08000,0,0,180.0*
1,1,0.01500,-0.02250,0.03250*
1,1,0.01500,0.02250,0.03250*
1,1,0.01500,0.02250,-0.03250*
1,1,0.01500,-0.02250,-0.03250*
%
%ADD74ROUNDEDRECTD74*%
%ADD75C,0.25197*%
%ADD76C,0.01968*%
%ADD77C,0.02362*%
G04:AMPARAMS|DCode=78|XSize=37.4mil|YSize=19.68mil|CornerRadius=2.46mil|HoleSize=0mil|Usage=FLASHONLY|Rotation=90.000|XOffset=0mil|YOffset=0mil|HoleType=Round|Shape=RoundedRectangle|*
%AMROUNDEDRECTD78*
21,1,0.03740,0.01476,0,0,90.0*
21,1,0.03248,0.01968,0,0,90.0*
1,1,0.00492,0.00738,0.01624*
1,1,0.00492,0.00738,-0.01624*
1,1,0.00492,-0.00738,-0.01624*
1,1,0.00492,-0.00738,0.01624*
%
%ADD78ROUNDEDRECTD78*%
G36*
X241744Y367073D02*
X241461Y366649D01*
X240370Y367101D01*
X238321Y367593D01*
X236221Y367758D01*
X234120Y367593D01*
X232071Y367101D01*
X230125Y366294D01*
X228328Y365194D01*
X226726Y363825D01*
X225358Y362223D01*
X224257Y360426D01*
X223450Y358480D01*
X222959Y356431D01*
X222793Y354331D01*
X222959Y352230D01*
X223450Y350182D01*
X224068Y348690D01*
X223644Y348407D01*
X218270Y353781D01*
X217618Y354217D01*
X216850Y354369D01*
X189394D01*
Y355069D01*
X189299Y355549D01*
X189027Y355956D01*
X188857Y356069D01*
Y360605D01*
X189518Y361112D01*
X190117Y361893D01*
X190494Y362803D01*
X190623Y363779D01*
X190494Y364756D01*
X190117Y365666D01*
X189518Y366447D01*
X188737Y367046D01*
X187827Y367423D01*
X186850Y367552D01*
X185874Y367423D01*
X184964Y367046D01*
X184183Y366447D01*
X183583Y365666D01*
X183206Y364756D01*
X183078Y363779D01*
X183206Y362803D01*
X183583Y361893D01*
X184183Y361112D01*
X184843Y360605D01*
Y356275D01*
X184608Y356228D01*
X184202Y355956D01*
X184062Y355747D01*
X96659D01*
X95891Y355594D01*
X95240Y355159D01*
X93856Y353776D01*
X93421Y353124D01*
X93269Y352356D01*
Y350438D01*
X91372Y348541D01*
X90948Y348824D01*
X91510Y350182D01*
X92002Y352230D01*
X92167Y354331D01*
X92002Y356431D01*
X91510Y358480D01*
X90704Y360426D01*
X89603Y362223D01*
X88235Y363825D01*
X86633Y365194D01*
X84836Y366294D01*
X82889Y367101D01*
X80841Y367593D01*
X78740Y367758D01*
X76640Y367593D01*
X74591Y367101D01*
X73499Y366649D01*
X73216Y367073D01*
X75219Y369075D01*
X239742D01*
X241744Y367073D01*
D02*
G37*
G36*
X66422Y359572D02*
X65970Y358480D01*
X65478Y356431D01*
X65313Y354331D01*
X65478Y352230D01*
X65970Y350182D01*
X66776Y348235D01*
X67877Y346438D01*
X69246Y344836D01*
X70848Y343468D01*
X72644Y342367D01*
X74591Y341561D01*
X76640Y341069D01*
X78740Y340903D01*
X80841Y341069D01*
X82889Y341561D01*
X84247Y342123D01*
X84530Y341699D01*
X77121Y334291D01*
X69888D01*
X69120Y334138D01*
X68468Y333703D01*
X67085Y332319D01*
X66650Y331668D01*
X66497Y330900D01*
Y275197D01*
Y272441D01*
X66650Y271673D01*
X67085Y271022D01*
X69121Y268986D01*
X69197Y268600D01*
X69589Y268014D01*
X70175Y267622D01*
X70561Y267546D01*
X74371Y263736D01*
Y225141D01*
X74524Y224373D01*
X74959Y223722D01*
X77265Y221415D01*
X77916Y220980D01*
X78684Y220828D01*
X84147D01*
X88544Y216431D01*
Y214961D01*
X88697Y214193D01*
X89132Y213541D01*
X92958Y209716D01*
Y188425D01*
Y184833D01*
X93111Y184065D01*
X93546Y183414D01*
X94197Y182979D01*
X94965Y182826D01*
X95733Y182979D01*
X96384Y183414D01*
X96819Y184065D01*
X96972Y184833D01*
Y188425D01*
Y201773D01*
X97413Y202009D01*
X97580Y201897D01*
X97835Y201847D01*
Y203937D01*
Y206027D01*
X97580Y205977D01*
X97413Y205865D01*
X96972Y206101D01*
Y210547D01*
X96819Y211315D01*
X96384Y211966D01*
X92558Y215792D01*
Y217262D01*
X92405Y218030D01*
X91970Y218681D01*
X86398Y224254D01*
X85747Y224689D01*
X84979Y224842D01*
X79515D01*
X78385Y225972D01*
Y264567D01*
X78232Y265335D01*
X77797Y265986D01*
X72679Y271104D01*
X70511Y273272D01*
Y275197D01*
Y330068D01*
X70719Y330276D01*
X77953D01*
X78721Y330429D01*
X79372Y330864D01*
X96695Y348187D01*
X97130Y348838D01*
X97283Y349606D01*
Y351525D01*
X97491Y351733D01*
X183858D01*
Y349458D01*
X183559Y349010D01*
X183433Y348376D01*
Y347638D01*
X189796D01*
Y348376D01*
X189670Y349010D01*
X189370Y349458D01*
Y350355D01*
X216019D01*
X229998Y336376D01*
X230649Y335941D01*
X231417Y335788D01*
X232431D01*
X232639Y335580D01*
Y321699D01*
X232233Y321428D01*
X231961Y321021D01*
X231866Y320541D01*
Y317884D01*
X231943Y317494D01*
X231890Y317441D01*
Y314930D01*
X231590Y314482D01*
X231464Y313848D01*
Y313110D01*
X237827D01*
Y313848D01*
X237701Y314482D01*
X237402Y314930D01*
Y317441D01*
X237402Y317442D01*
X242303D01*
X242810Y316781D01*
X243591Y316182D01*
X244501Y315805D01*
X245477Y315676D01*
X246454Y315805D01*
X247364Y316182D01*
X248145Y316781D01*
X248744Y317563D01*
X249121Y318472D01*
X249250Y319449D01*
X249121Y320425D01*
X248744Y321335D01*
X248145Y322116D01*
X247364Y322716D01*
X246454Y323093D01*
X245477Y323221D01*
X244501Y323093D01*
X243591Y322716D01*
X242810Y322116D01*
X242303Y321456D01*
X237017D01*
X236653Y321699D01*
Y336411D01*
X236500Y337180D01*
X236065Y337831D01*
X234681Y339214D01*
X234030Y339650D01*
X233262Y339802D01*
X232249D01*
X230296Y341755D01*
X230580Y342179D01*
X232071Y341561D01*
X234120Y341069D01*
X236221Y340903D01*
X238321Y341069D01*
X240370Y341561D01*
X242316Y342367D01*
X244113Y343468D01*
X245715Y344836D01*
X247083Y346438D01*
X248184Y348235D01*
X248991Y350182D01*
X249482Y352230D01*
X249648Y354331D01*
X249482Y356431D01*
X248991Y358480D01*
X248538Y359572D01*
X248962Y359855D01*
X250965Y357852D01*
Y193329D01*
X239742Y182106D01*
X174453D01*
X174415Y182149D01*
X174232Y182606D01*
X174365Y182806D01*
X174445Y183209D01*
Y186457D01*
X174425Y186561D01*
X174622Y186802D01*
X174622D01*
Y189951D01*
X174622D01*
X174425Y190192D01*
X174445Y190296D01*
Y193544D01*
X174365Y193947D01*
X174137Y194289D01*
X173795Y194517D01*
X173392Y194597D01*
X171915D01*
X171512Y194517D01*
X171459Y194482D01*
X171079Y194326D01*
X170698Y194482D01*
X170645Y194517D01*
X170242Y194597D01*
X168766D01*
X168362Y194517D01*
X168021Y194289D01*
X167838D01*
X167496Y194517D01*
X167093Y194597D01*
X165616D01*
X165505Y194576D01*
X165259Y195036D01*
X167206Y196983D01*
X167467Y197374D01*
X167559Y197835D01*
Y224505D01*
X167773Y224720D01*
X168209Y225371D01*
X168361Y226139D01*
X168209Y226908D01*
X167773Y227559D01*
X167122Y227994D01*
X166354Y228147D01*
X165586Y227994D01*
X164935Y227559D01*
X161595Y224218D01*
X151983D01*
X151215Y224066D01*
X150564Y223631D01*
X150129Y222979D01*
X149976Y222211D01*
X150129Y221443D01*
X150564Y220792D01*
X151215Y220357D01*
X151983Y220204D01*
X162426D01*
X163194Y220357D01*
X163845Y220792D01*
X164688Y221635D01*
X165150Y221444D01*
Y198334D01*
X162353Y195537D01*
X162092Y195146D01*
X162000Y194685D01*
X162000Y194685D01*
Y194475D01*
X161721Y194289D01*
X161493Y193947D01*
X161413Y193544D01*
Y190296D01*
X161433Y190192D01*
X161236Y189951D01*
X161236D01*
Y186802D01*
X161236D01*
X161284Y186744D01*
X161048Y186244D01*
X159831D01*
X159687Y186459D01*
X159036Y186894D01*
X158268Y187046D01*
X157500Y186894D01*
X156849Y186459D01*
X156413Y185807D01*
X156261Y185039D01*
X156413Y184271D01*
X156849Y183620D01*
X157500Y183185D01*
X158268Y183032D01*
X159036Y183185D01*
X159687Y183620D01*
X159831Y183835D01*
X161413D01*
Y183209D01*
X161493Y182806D01*
X161627Y182606D01*
X161443Y182149D01*
X161405Y182106D01*
X75219D01*
X73216Y184109D01*
X73499Y184532D01*
X74591Y184080D01*
X76640Y183589D01*
X78740Y183423D01*
X80841Y183589D01*
X82889Y184080D01*
X84836Y184887D01*
X86633Y185988D01*
X88235Y187356D01*
X89603Y188958D01*
X90704Y190755D01*
X91510Y192701D01*
X92002Y194750D01*
X92167Y196850D01*
X92002Y198951D01*
X91510Y201000D01*
X90704Y202946D01*
X89603Y204743D01*
X88235Y206345D01*
X86633Y207713D01*
X84836Y208814D01*
X82889Y209620D01*
X80841Y210112D01*
X78740Y210278D01*
X76640Y210112D01*
X74591Y209620D01*
X72644Y208814D01*
X70848Y207713D01*
X69246Y206345D01*
X67877Y204743D01*
X66776Y202946D01*
X65970Y201000D01*
X65478Y198951D01*
X65313Y196850D01*
X65478Y194750D01*
X65970Y192701D01*
X66422Y191610D01*
X65998Y191326D01*
X63996Y193329D01*
Y357852D01*
X65998Y359855D01*
X66422Y359572D01*
D02*
G37*
%LPC*%
G36*
X166339Y367445D02*
Y365945D01*
X167838D01*
X167788Y366199D01*
X167309Y366915D01*
X166593Y367394D01*
X166339Y367445D01*
D02*
G37*
G36*
X165157D02*
X164903Y367394D01*
X164187Y366915D01*
X163708Y366199D01*
X163658Y365945D01*
X165157D01*
Y367445D01*
D02*
G37*
G36*
X217441Y367871D02*
Y364370D01*
X220942D01*
X220878Y364859D01*
X220461Y365864D01*
X219799Y366728D01*
X218935Y367390D01*
X217930Y367807D01*
X217441Y367871D01*
D02*
G37*
G36*
X216260D02*
X215771Y367807D01*
X214766Y367390D01*
X213902Y366728D01*
X213240Y365864D01*
X212823Y364859D01*
X212759Y364370D01*
X216260D01*
Y367871D01*
D02*
G37*
G36*
X167838Y364764D02*
X166339D01*
Y363264D01*
X166593Y363315D01*
X167309Y363793D01*
X167788Y364510D01*
X167838Y364764D01*
D02*
G37*
G36*
X165157D02*
X163658D01*
X163708Y364510D01*
X164187Y363793D01*
X164903Y363315D01*
X165157Y363264D01*
Y364764D01*
D02*
G37*
G36*
X166695Y361700D02*
Y360201D01*
X168195D01*
X168144Y360455D01*
X167666Y361171D01*
X166949Y361650D01*
X166695Y361700D01*
D02*
G37*
G36*
X165514D02*
X165260Y361650D01*
X164543Y361171D01*
X164065Y360455D01*
X164014Y360201D01*
X165514D01*
Y361700D01*
D02*
G37*
G36*
X180590Y367520D02*
X173110D01*
Y360039D01*
X180590D01*
Y367520D01*
D02*
G37*
G36*
X206850Y367552D02*
X205874Y367423D01*
X204964Y367046D01*
X204183Y366447D01*
X203583Y365666D01*
X203206Y364756D01*
X203078Y363779D01*
X203206Y362803D01*
X203583Y361893D01*
X204183Y361112D01*
X204964Y360512D01*
X205874Y360136D01*
X206850Y360007D01*
X207827Y360136D01*
X208737Y360512D01*
X209518Y361112D01*
X210117Y361893D01*
X210494Y362803D01*
X210623Y363779D01*
X210494Y364756D01*
X210117Y365666D01*
X209518Y366447D01*
X208737Y367046D01*
X207827Y367423D01*
X206850Y367552D01*
D02*
G37*
G36*
X196850D02*
X195874Y367423D01*
X194964Y367046D01*
X194183Y366447D01*
X193583Y365666D01*
X193207Y364756D01*
X193078Y363779D01*
X193207Y362803D01*
X193583Y361893D01*
X194183Y361112D01*
X194964Y360512D01*
X195874Y360136D01*
X196850Y360007D01*
X197827Y360136D01*
X198737Y360512D01*
X199518Y361112D01*
X200117Y361893D01*
X200494Y362803D01*
X200623Y363779D01*
X200494Y364756D01*
X200117Y365666D01*
X199518Y366447D01*
X198737Y367046D01*
X197827Y367423D01*
X196850Y367552D01*
D02*
G37*
G36*
X220942Y363189D02*
X217441D01*
Y359688D01*
X217930Y359752D01*
X218935Y360169D01*
X219799Y360831D01*
X220461Y361695D01*
X220878Y362700D01*
X220942Y363189D01*
D02*
G37*
G36*
X216260D02*
X212759D01*
X212823Y362700D01*
X213240Y361695D01*
X213902Y360831D01*
X214766Y360169D01*
X215771Y359752D01*
X216260Y359688D01*
Y363189D01*
D02*
G37*
G36*
X168195Y359019D02*
X166695D01*
Y357520D01*
X166949Y357570D01*
X167666Y358049D01*
X168144Y358765D01*
X168195Y359019D01*
D02*
G37*
G36*
X165514D02*
X164014D01*
X164065Y358765D01*
X164543Y358049D01*
X165260Y357570D01*
X165514Y357520D01*
Y359019D01*
D02*
G37*
G36*
X189796Y346457D02*
X187205D01*
Y344063D01*
X188140D01*
X188773Y344189D01*
X189311Y344548D01*
X189670Y345085D01*
X189796Y345719D01*
Y346457D01*
D02*
G37*
G36*
X186024D02*
X183433D01*
Y345719D01*
X183559Y345085D01*
X183918Y344548D01*
X184455Y344189D01*
X185089Y344063D01*
X186024D01*
Y346457D01*
D02*
G37*
G36*
X115551Y345397D02*
Y343898D01*
X117051D01*
X117000Y344152D01*
X116522Y344868D01*
X115805Y345347D01*
X115551Y345397D01*
D02*
G37*
G36*
X114370D02*
X114116Y345347D01*
X113400Y344868D01*
X112921Y344152D01*
X112870Y343898D01*
X114370D01*
Y345397D01*
D02*
G37*
G36*
X117051Y342717D02*
X115551D01*
Y341217D01*
X115805Y341267D01*
X116522Y341746D01*
X117000Y342462D01*
X117051Y342717D01*
D02*
G37*
G36*
X114370D02*
X112870D01*
X112921Y342462D01*
X113400Y341746D01*
X114116Y341267D01*
X114370Y341217D01*
Y342717D01*
D02*
G37*
G36*
X219526Y339575D02*
Y338075D01*
X221025D01*
X220975Y338329D01*
X220496Y339046D01*
X219780Y339524D01*
X219526Y339575D01*
D02*
G37*
G36*
X218345D02*
X218090Y339524D01*
X217374Y339046D01*
X216895Y338329D01*
X216845Y338075D01*
X218345D01*
Y339575D01*
D02*
G37*
G36*
X156369Y338984D02*
Y337485D01*
X157869D01*
X157819Y337739D01*
X157340Y338455D01*
X156624Y338934D01*
X156369Y338984D01*
D02*
G37*
G36*
X155188D02*
X154934Y338934D01*
X154218Y338455D01*
X153739Y337739D01*
X153689Y337485D01*
X155188D01*
Y338984D01*
D02*
G37*
G36*
X221025Y336894D02*
X219526D01*
Y335394D01*
X219780Y335445D01*
X220496Y335923D01*
X220975Y336640D01*
X221025Y336894D01*
D02*
G37*
G36*
X218345D02*
X216845D01*
X216895Y336640D01*
X217374Y335923D01*
X218090Y335445D01*
X218345Y335394D01*
Y336894D01*
D02*
G37*
G36*
X157869Y336303D02*
X156369D01*
Y334804D01*
X156624Y334854D01*
X157340Y335333D01*
X157819Y336049D01*
X157869Y336303D01*
D02*
G37*
G36*
X155188D02*
X153689D01*
X153739Y336049D01*
X154218Y335333D01*
X154934Y334854D01*
X155188Y334804D01*
Y336303D01*
D02*
G37*
G36*
X120276Y335971D02*
Y334471D01*
X121775D01*
X121725Y334725D01*
X121246Y335442D01*
X120530Y335920D01*
X120276Y335971D01*
D02*
G37*
G36*
X119095D02*
X118840Y335920D01*
X118124Y335442D01*
X117645Y334725D01*
X117595Y334471D01*
X119095D01*
Y335971D01*
D02*
G37*
G36*
X121775Y333290D02*
X120276D01*
Y331790D01*
X120530Y331841D01*
X121246Y332319D01*
X121725Y333036D01*
X121775Y333290D01*
D02*
G37*
G36*
X119095D02*
X117595D01*
X117645Y333036D01*
X118124Y332319D01*
X118840Y331841D01*
X119095Y331790D01*
Y333290D01*
D02*
G37*
G36*
X249218Y333189D02*
X241737D01*
Y325709D01*
X249218D01*
Y333189D01*
D02*
G37*
G36*
X76968Y326929D02*
Y325429D01*
X78468D01*
X78418Y325683D01*
X77939Y326399D01*
X77223Y326878D01*
X76968Y326929D01*
D02*
G37*
G36*
X75787D02*
X75533Y326878D01*
X74817Y326399D01*
X74338Y325683D01*
X74288Y325429D01*
X75787D01*
Y326929D01*
D02*
G37*
G36*
X78468Y324248D02*
X76968D01*
Y322748D01*
X77223Y322799D01*
X77939Y323277D01*
X78418Y323993D01*
X78468Y324248D01*
D02*
G37*
G36*
X75787D02*
X74288D01*
X74338Y323993D01*
X74817Y323277D01*
X75533Y322799D01*
X75787Y322748D01*
Y324248D01*
D02*
G37*
G36*
X128937Y324084D02*
Y322584D01*
X130437D01*
X130386Y322838D01*
X129908Y323555D01*
X129191Y324033D01*
X128937Y324084D01*
D02*
G37*
G36*
X127756D02*
X127502Y324033D01*
X126785Y323555D01*
X126307Y322838D01*
X126256Y322584D01*
X127756D01*
Y324084D01*
D02*
G37*
G36*
X227717Y322618D02*
Y321118D01*
X229217D01*
X229167Y321373D01*
X228688Y322089D01*
X227972Y322568D01*
X227717Y322618D01*
D02*
G37*
G36*
X226536D02*
X226282Y322568D01*
X225566Y322089D01*
X225087Y321373D01*
X225037Y321118D01*
X226536D01*
Y322618D01*
D02*
G37*
G36*
X130437Y321403D02*
X128937D01*
Y319903D01*
X129191Y319954D01*
X129908Y320432D01*
X130386Y321149D01*
X130437Y321403D01*
D02*
G37*
G36*
X127756D02*
X126256D01*
X126307Y321149D01*
X126785Y320432D01*
X127502Y319954D01*
X127756Y319903D01*
Y321403D01*
D02*
G37*
G36*
X86604Y319942D02*
Y318442D01*
X88104D01*
X88054Y318696D01*
X87575Y319413D01*
X86859Y319891D01*
X86604Y319942D01*
D02*
G37*
G36*
X85423D02*
X85169Y319891D01*
X84453Y319413D01*
X83974Y318696D01*
X83924Y318442D01*
X85423D01*
Y319942D01*
D02*
G37*
G36*
X229217Y319937D02*
X227717D01*
Y318438D01*
X227972Y318488D01*
X228688Y318967D01*
X229167Y319683D01*
X229217Y319937D01*
D02*
G37*
G36*
X226536D02*
X225037D01*
X225087Y319683D01*
X225566Y318967D01*
X226282Y318488D01*
X226536Y318438D01*
Y319937D01*
D02*
G37*
G36*
X156369Y319454D02*
Y317955D01*
X157869D01*
X157819Y318209D01*
X157340Y318925D01*
X156624Y319404D01*
X156369Y319454D01*
D02*
G37*
G36*
X155188D02*
X154934Y319404D01*
X154218Y318925D01*
X153739Y318209D01*
X153689Y317955D01*
X155188D01*
Y319454D01*
D02*
G37*
G36*
X88104Y317261D02*
X86604D01*
Y315761D01*
X86859Y315812D01*
X87575Y316290D01*
X88054Y317007D01*
X88104Y317261D01*
D02*
G37*
G36*
X85423D02*
X83924D01*
X83974Y317007D01*
X84453Y316290D01*
X85169Y315812D01*
X85423Y315761D01*
Y317261D01*
D02*
G37*
G36*
X157869Y316774D02*
X156369D01*
Y315274D01*
X156624Y315324D01*
X157340Y315803D01*
X157819Y316519D01*
X157869Y316774D01*
D02*
G37*
G36*
X155188D02*
X153689D01*
X153739Y316519D01*
X154218Y315803D01*
X154934Y315324D01*
X155188Y315274D01*
Y316774D01*
D02*
G37*
G36*
X237827Y311929D02*
X235236D01*
Y309535D01*
X236171D01*
X236805Y309661D01*
X237342Y310020D01*
X237701Y310557D01*
X237827Y311191D01*
Y311929D01*
D02*
G37*
G36*
X234055D02*
X231464D01*
Y311191D01*
X231590Y310557D01*
X231949Y310020D01*
X232486Y309661D01*
X233120Y309535D01*
X234055D01*
Y311929D01*
D02*
G37*
G36*
X172559Y308547D02*
Y307047D01*
X174059D01*
X174008Y307302D01*
X173530Y308018D01*
X172813Y308496D01*
X172559Y308547D01*
D02*
G37*
G36*
X171378D02*
X171124Y308496D01*
X170407Y308018D01*
X169929Y307302D01*
X169878Y307047D01*
X171378D01*
Y308547D01*
D02*
G37*
G36*
X120276Y307366D02*
Y305866D01*
X121775D01*
X121725Y306120D01*
X121246Y306837D01*
X120530Y307315D01*
X120276Y307366D01*
D02*
G37*
G36*
X119095D02*
X118840Y307315D01*
X118124Y306837D01*
X117645Y306120D01*
X117595Y305866D01*
X119095D01*
Y307366D01*
D02*
G37*
G36*
X245477Y313221D02*
X244501Y313093D01*
X243591Y312716D01*
X242810Y312116D01*
X242210Y311335D01*
X241833Y310425D01*
X241705Y309449D01*
X241833Y308472D01*
X242210Y307563D01*
X242810Y306781D01*
X243591Y306182D01*
X244501Y305805D01*
X245477Y305676D01*
X246454Y305805D01*
X247364Y306182D01*
X248145Y306781D01*
X248744Y307563D01*
X249121Y308472D01*
X249250Y309449D01*
X249121Y310425D01*
X248744Y311335D01*
X248145Y312116D01*
X247364Y312716D01*
X246454Y313093D01*
X245477Y313221D01*
D02*
G37*
G36*
X174059Y305866D02*
X172559D01*
Y304366D01*
X172813Y304417D01*
X173530Y304896D01*
X174008Y305612D01*
X174059Y305866D01*
D02*
G37*
G36*
X171378D02*
X169878D01*
X169929Y305612D01*
X170407Y304896D01*
X171124Y304417D01*
X171378Y304366D01*
Y305866D01*
D02*
G37*
G36*
X121775Y304685D02*
X120276D01*
Y303185D01*
X120530Y303236D01*
X121246Y303714D01*
X121725Y304431D01*
X121775Y304685D01*
D02*
G37*
G36*
X119095D02*
X117595D01*
X117645Y304431D01*
X118124Y303714D01*
X118840Y303236D01*
X119095Y303185D01*
Y304685D01*
D02*
G37*
G36*
X79532Y299942D02*
Y298442D01*
X81032D01*
X80981Y298696D01*
X80503Y299413D01*
X79786Y299891D01*
X79532Y299942D01*
D02*
G37*
G36*
X78351D02*
X78097Y299891D01*
X77380Y299413D01*
X76902Y298696D01*
X76851Y298442D01*
X78351D01*
Y299942D01*
D02*
G37*
G36*
X227717Y297928D02*
Y296428D01*
X229217D01*
X229167Y296683D01*
X228688Y297399D01*
X227972Y297878D01*
X227717Y297928D01*
D02*
G37*
G36*
X226536D02*
X226282Y297878D01*
X225566Y297399D01*
X225087Y296683D01*
X225037Y296428D01*
X226536D01*
Y297928D01*
D02*
G37*
G36*
X96653Y297366D02*
Y295866D01*
X98153D01*
X98103Y296121D01*
X97624Y296837D01*
X96908Y297315D01*
X96653Y297366D01*
D02*
G37*
G36*
X95472D02*
X95218Y297315D01*
X94502Y296837D01*
X94023Y296121D01*
X93973Y295866D01*
X95472D01*
Y297366D01*
D02*
G37*
G36*
X81032Y297261D02*
X79532D01*
Y295761D01*
X79786Y295812D01*
X80503Y296290D01*
X80981Y297007D01*
X81032Y297261D01*
D02*
G37*
G36*
X78351D02*
X76851D01*
X76902Y297007D01*
X77380Y296290D01*
X78097Y295812D01*
X78351Y295761D01*
Y297261D01*
D02*
G37*
G36*
X245477Y303221D02*
X244501Y303093D01*
X243591Y302716D01*
X242810Y302116D01*
X242210Y301335D01*
X241833Y300425D01*
X241705Y299449D01*
X241833Y298472D01*
X242210Y297563D01*
X242810Y296781D01*
X243591Y296182D01*
X244501Y295805D01*
X245477Y295676D01*
X246454Y295805D01*
X247364Y296182D01*
X248145Y296781D01*
X248744Y297563D01*
X249121Y298472D01*
X249250Y299449D01*
X249121Y300425D01*
X248744Y301335D01*
X248145Y302116D01*
X247364Y302716D01*
X246454Y303093D01*
X245477Y303221D01*
D02*
G37*
G36*
X229217Y295247D02*
X227717D01*
Y293748D01*
X227972Y293798D01*
X228688Y294277D01*
X229167Y294993D01*
X229217Y295247D01*
D02*
G37*
G36*
X226536D02*
X225037D01*
X225087Y294993D01*
X225566Y294277D01*
X226282Y293798D01*
X226536Y293748D01*
Y295247D01*
D02*
G37*
G36*
X164633Y337873D02*
X163865Y337720D01*
X163214Y337285D01*
X162778Y336634D01*
X162626Y335866D01*
Y293678D01*
X162126Y293411D01*
X162029Y293475D01*
X161338Y293613D01*
X160646Y293475D01*
X160061Y293084D01*
X159669Y292498D01*
X159531Y291806D01*
X159669Y291115D01*
X160061Y290529D01*
X160134Y290480D01*
Y286562D01*
X160061Y286513D01*
X159669Y285928D01*
X159531Y285236D01*
X159669Y284545D01*
X160061Y283959D01*
X160646Y283567D01*
X161338Y283430D01*
X162029Y283567D01*
X162240Y283708D01*
X162778Y283561D01*
X163214Y282910D01*
X165625Y280499D01*
X161135Y276008D01*
X160089D01*
X159608Y275913D01*
X159202Y275641D01*
X158930Y275234D01*
X158834Y274754D01*
Y271703D01*
X158930Y271223D01*
X159202Y270816D01*
X159608Y270544D01*
X160089Y270448D01*
X162746D01*
X163136Y270526D01*
X163189Y270472D01*
X165700D01*
X166148Y270173D01*
X166781Y270047D01*
X167520D01*
Y273228D01*
X168110D01*
Y273819D01*
X171095D01*
Y274754D01*
X170969Y275388D01*
X170610Y275925D01*
X170073Y276284D01*
X169439Y276410D01*
X167867D01*
X167675Y276872D01*
X169295Y278491D01*
X175277D01*
X176045Y278644D01*
X176696Y279079D01*
X176731Y279132D01*
X177231Y278980D01*
Y250103D01*
X177158Y250055D01*
X176767Y249469D01*
X176629Y248777D01*
X176767Y248086D01*
X177158Y247500D01*
X177744Y247108D01*
X178436Y246971D01*
X179127Y247108D01*
X179713Y247500D01*
X180104Y248086D01*
X180242Y248777D01*
X180104Y249469D01*
X179877Y249809D01*
X179921Y249934D01*
X180522Y250134D01*
X180631Y250061D01*
X181322Y249924D01*
X182013Y250061D01*
X182599Y250453D01*
X182991Y251039D01*
X183129Y251730D01*
X182991Y252421D01*
X182599Y253007D01*
X182526Y253056D01*
Y293950D01*
X182599Y293998D01*
X182991Y294584D01*
X183129Y295276D01*
X182991Y295967D01*
X182599Y296553D01*
X182013Y296944D01*
X181322Y297082D01*
X180631Y296944D01*
X180045Y296553D01*
X179653Y295967D01*
X179516Y295276D01*
X179653Y294584D01*
X179839Y294306D01*
X179538Y293857D01*
X179157Y293932D01*
X178466Y293795D01*
X177880Y293403D01*
X177488Y292817D01*
X177350Y292126D01*
X177433Y291711D01*
X177323Y291546D01*
X177231Y291085D01*
X177231Y291085D01*
Y282017D01*
X176731Y281866D01*
X176696Y281918D01*
X176045Y282353D01*
X175277Y282506D01*
X169295D01*
X166640Y285161D01*
Y335866D01*
X166487Y336634D01*
X166052Y337285D01*
X165401Y337720D01*
X164633Y337873D01*
D02*
G37*
G36*
X98153Y294685D02*
X96653D01*
Y293185D01*
X96908Y293236D01*
X97624Y293714D01*
X98103Y294431D01*
X98153Y294685D01*
D02*
G37*
G36*
X95472D02*
X93973D01*
X94023Y294431D01*
X94502Y293714D01*
X95218Y293236D01*
X95472Y293185D01*
Y294685D01*
D02*
G37*
G36*
X246068Y293541D02*
Y290039D01*
X249569D01*
X249505Y290528D01*
X249088Y291534D01*
X248426Y292397D01*
X247562Y293060D01*
X246556Y293476D01*
X246068Y293541D01*
D02*
G37*
G36*
X244887Y293541D02*
X244398Y293476D01*
X243393Y293060D01*
X242529Y292397D01*
X241866Y291534D01*
X241450Y290528D01*
X241386Y290039D01*
X244887D01*
Y293541D01*
D02*
G37*
G36*
X249569Y288858D02*
X246068D01*
Y285357D01*
X246556Y285421D01*
X247562Y285838D01*
X248426Y286501D01*
X249088Y287364D01*
X249505Y288370D01*
X249569Y288858D01*
D02*
G37*
G36*
X244887D02*
X241386D01*
X241450Y288370D01*
X241866Y287364D01*
X242529Y286501D01*
X243393Y285838D01*
X244398Y285421D01*
X244887Y285357D01*
Y288858D01*
D02*
G37*
G36*
X219345Y283997D02*
Y282497D01*
X220845D01*
X220794Y282752D01*
X220316Y283468D01*
X219599Y283946D01*
X219345Y283997D01*
D02*
G37*
G36*
X218164D02*
X217910Y283946D01*
X217193Y283468D01*
X216715Y282752D01*
X216664Y282497D01*
X218164D01*
Y283997D01*
D02*
G37*
G36*
X220845Y281316D02*
X219345D01*
Y279817D01*
X219599Y279867D01*
X220316Y280346D01*
X220794Y281062D01*
X220845Y281316D01*
D02*
G37*
G36*
X218164D02*
X216664D01*
X216715Y281062D01*
X217193Y280346D01*
X217910Y279867D01*
X218164Y279817D01*
Y281316D01*
D02*
G37*
G36*
X99805Y280780D02*
Y279280D01*
X101305D01*
X101254Y279534D01*
X100776Y280251D01*
X100059Y280729D01*
X99805Y280780D01*
D02*
G37*
G36*
X98624D02*
X98370Y280729D01*
X97653Y280251D01*
X97175Y279534D01*
X97124Y279280D01*
X98624D01*
Y280780D01*
D02*
G37*
G36*
X192786Y278962D02*
X192047D01*
X191414Y278836D01*
X190966Y278537D01*
X188455D01*
X188401Y278484D01*
X188012Y278561D01*
X185354D01*
X184874Y278466D01*
X184467Y278194D01*
X184196Y277787D01*
X184100Y277307D01*
Y274255D01*
X184196Y273776D01*
X184467Y273369D01*
X184874Y273097D01*
X184889Y273094D01*
Y256086D01*
X185042Y255318D01*
X185477Y254667D01*
X186128Y254232D01*
X186897Y254079D01*
X187665Y254232D01*
X188316Y254667D01*
X188751Y255318D01*
X188904Y256086D01*
Y273025D01*
X190966D01*
X191414Y272726D01*
X192047Y272600D01*
X192786D01*
Y275781D01*
Y278962D01*
D02*
G37*
G36*
X101305Y278099D02*
X99805D01*
Y276599D01*
X100059Y276650D01*
X100776Y277128D01*
X101254Y277845D01*
X101305Y278099D01*
D02*
G37*
G36*
X98624D02*
X97124D01*
X97175Y277845D01*
X97653Y277128D01*
X98370Y276650D01*
X98624Y276599D01*
Y278099D01*
D02*
G37*
G36*
X194705Y278962D02*
X193967D01*
Y276372D01*
X196361D01*
Y277307D01*
X196235Y277940D01*
X195876Y278478D01*
X195339Y278836D01*
X194705Y278962D01*
D02*
G37*
G36*
X196361Y275191D02*
X193967D01*
Y272600D01*
X194705D01*
X195339Y272726D01*
X195876Y273085D01*
X196235Y273622D01*
X196361Y274255D01*
Y275191D01*
D02*
G37*
G36*
X171095Y272638D02*
X168701D01*
Y270047D01*
X169439D01*
X170073Y270173D01*
X170610Y270532D01*
X170969Y271069D01*
X171095Y271703D01*
Y272638D01*
D02*
G37*
G36*
X247642Y270201D02*
Y268701D01*
X249141D01*
X249091Y268956D01*
X248612Y269672D01*
X247896Y270151D01*
X247642Y270201D01*
D02*
G37*
G36*
X246461D02*
X246206Y270151D01*
X245490Y269672D01*
X245011Y268956D01*
X244961Y268701D01*
X246461D01*
Y270201D01*
D02*
G37*
G36*
X121063Y268807D02*
Y267307D01*
X122563D01*
X122512Y267562D01*
X122034Y268278D01*
X121317Y268757D01*
X121063Y268807D01*
D02*
G37*
G36*
X119882D02*
X119628Y268757D01*
X118911Y268278D01*
X118433Y267562D01*
X118382Y267307D01*
X119882D01*
Y268807D01*
D02*
G37*
G36*
X249141Y267520D02*
X247642D01*
Y266021D01*
X247896Y266071D01*
X248612Y266550D01*
X249091Y267266D01*
X249141Y267520D01*
D02*
G37*
G36*
X246461D02*
X244961D01*
X245011Y267266D01*
X245490Y266550D01*
X246206Y266071D01*
X246461Y266021D01*
Y267520D01*
D02*
G37*
G36*
X122563Y266126D02*
X121063D01*
Y264627D01*
X121317Y264677D01*
X122034Y265156D01*
X122512Y265872D01*
X122563Y266126D01*
D02*
G37*
G36*
X119882D02*
X118382D01*
X118433Y265872D01*
X118911Y265156D01*
X119628Y264677D01*
X119882Y264627D01*
Y266126D01*
D02*
G37*
G36*
X105120Y261736D02*
Y260236D01*
X106620D01*
X106569Y260490D01*
X106091Y261207D01*
X105374Y261685D01*
X105120Y261736D01*
D02*
G37*
G36*
X103939D02*
X103685Y261685D01*
X102968Y261207D01*
X102490Y260490D01*
X102439Y260236D01*
X103939D01*
Y261736D01*
D02*
G37*
G36*
X135859Y261134D02*
Y259635D01*
X137359D01*
X137308Y259889D01*
X136830Y260605D01*
X136114Y261084D01*
X135859Y261134D01*
D02*
G37*
G36*
X134678D02*
X134424Y261084D01*
X133707Y260605D01*
X133229Y259889D01*
X133178Y259635D01*
X134678D01*
Y261134D01*
D02*
G37*
G36*
X236811Y259571D02*
Y258071D01*
X238311D01*
X238260Y258325D01*
X237782Y259041D01*
X237065Y259520D01*
X236811Y259571D01*
D02*
G37*
G36*
X235630D02*
X235376Y259520D01*
X234659Y259041D01*
X234181Y258325D01*
X234130Y258071D01*
X235630D01*
Y259571D01*
D02*
G37*
G36*
X106620Y259055D02*
X105120D01*
Y257555D01*
X105374Y257606D01*
X106091Y258085D01*
X106569Y258801D01*
X106620Y259055D01*
D02*
G37*
G36*
X103939D02*
X102439D01*
X102490Y258801D01*
X102968Y258085D01*
X103685Y257606D01*
X103939Y257555D01*
Y259055D01*
D02*
G37*
G36*
X137359Y258454D02*
X135859D01*
Y256954D01*
X136114Y257004D01*
X136830Y257483D01*
X137308Y258199D01*
X137359Y258454D01*
D02*
G37*
G36*
X134678D02*
X133178D01*
X133229Y258199D01*
X133707Y257483D01*
X134424Y257004D01*
X134678Y256954D01*
Y258454D01*
D02*
G37*
G36*
X90671Y257874D02*
X89172D01*
Y256374D01*
X89426Y256425D01*
X90142Y256903D01*
X90621Y257620D01*
X90671Y257874D01*
D02*
G37*
G36*
X87144Y265457D02*
X82813D01*
X82094Y265362D01*
X81423Y265084D01*
X80848Y264643D01*
X80406Y264067D01*
X80128Y263397D01*
X80034Y262677D01*
X80128Y261958D01*
X80406Y261287D01*
X80848Y260712D01*
X81423Y260270D01*
X82094Y259992D01*
X82655Y259918D01*
X82671Y259412D01*
X81970Y259272D01*
X81189Y258750D01*
X80667Y257969D01*
X80484Y257047D01*
X80667Y256126D01*
X81189Y255344D01*
X81970Y254822D01*
X82892Y254639D01*
X83814Y254822D01*
X84003Y254948D01*
X84444Y254713D01*
Y236626D01*
X84003Y236390D01*
X83814Y236516D01*
X82892Y236700D01*
X81970Y236516D01*
X81189Y235994D01*
X80667Y235213D01*
X80484Y234291D01*
X80667Y233370D01*
X81189Y232588D01*
X81970Y232066D01*
X82671Y231927D01*
X82655Y231420D01*
X82094Y231346D01*
X81423Y231069D01*
X80848Y230627D01*
X80406Y230051D01*
X80128Y229381D01*
X80034Y228661D01*
X80128Y227942D01*
X80406Y227272D01*
X80848Y226696D01*
X81423Y226254D01*
X82094Y225976D01*
X82813Y225882D01*
X87144D01*
X87863Y225976D01*
X88534Y226254D01*
X89110Y226696D01*
X89551Y227272D01*
X89829Y227942D01*
X89924Y228661D01*
X89829Y229381D01*
X89551Y230051D01*
X89353Y230310D01*
X89378Y230491D01*
X89528Y230903D01*
X90142Y231313D01*
X90621Y232029D01*
X90671Y232283D01*
X88581D01*
Y232874D01*
X87990D01*
Y234964D01*
X87736Y234914D01*
X87352Y234657D01*
X86852Y234924D01*
Y256414D01*
X87352Y256681D01*
X87736Y256425D01*
X87990Y256374D01*
Y258465D01*
X88581D01*
Y259055D01*
X90671D01*
X90621Y259310D01*
X90142Y260026D01*
X89528Y260436D01*
X89378Y260847D01*
X89353Y261029D01*
X89551Y261287D01*
X89829Y261958D01*
X89924Y262677D01*
X89829Y263397D01*
X89551Y264067D01*
X89110Y264643D01*
X88534Y265084D01*
X87863Y265362D01*
X87144Y265457D01*
D02*
G37*
G36*
X238311Y256890D02*
X236811D01*
Y255390D01*
X237065Y255441D01*
X237782Y255919D01*
X238260Y256635D01*
X238311Y256890D01*
D02*
G37*
G36*
X235630D02*
X234130D01*
X234181Y256635D01*
X234659Y255919D01*
X235376Y255441D01*
X235630Y255390D01*
Y256890D01*
D02*
G37*
G36*
X138386Y252259D02*
Y250760D01*
X139886D01*
X139835Y251014D01*
X139356Y251730D01*
X138640Y252209D01*
X138386Y252259D01*
D02*
G37*
G36*
X137205D02*
X136950Y252209D01*
X136234Y251730D01*
X135756Y251014D01*
X135705Y250760D01*
X137205D01*
Y252259D01*
D02*
G37*
G36*
X224413Y250080D02*
Y248581D01*
X225913D01*
X225862Y248835D01*
X225384Y249551D01*
X224668Y250030D01*
X224413Y250080D01*
D02*
G37*
G36*
X223232D02*
X222978Y250030D01*
X222262Y249551D01*
X221783Y248835D01*
X221732Y248581D01*
X223232D01*
Y250080D01*
D02*
G37*
G36*
X139886Y249578D02*
X138386D01*
Y248079D01*
X138640Y248129D01*
X139356Y248608D01*
X139835Y249324D01*
X139886Y249578D01*
D02*
G37*
G36*
X137205D02*
X135705D01*
X135756Y249324D01*
X136234Y248608D01*
X136950Y248129D01*
X137205Y248079D01*
Y249578D01*
D02*
G37*
G36*
X247642Y248941D02*
Y247442D01*
X249141D01*
X249091Y247696D01*
X248612Y248412D01*
X247896Y248891D01*
X247642Y248941D01*
D02*
G37*
G36*
X246461D02*
X246206Y248891D01*
X245490Y248412D01*
X245011Y247696D01*
X244961Y247442D01*
X246461D01*
Y248941D01*
D02*
G37*
G36*
X225913Y247399D02*
X224413D01*
Y245900D01*
X224668Y245950D01*
X225384Y246429D01*
X225862Y247145D01*
X225913Y247399D01*
D02*
G37*
G36*
X223232D02*
X221732D01*
X221783Y247145D01*
X222262Y246429D01*
X222978Y245950D01*
X223232Y245900D01*
Y247399D01*
D02*
G37*
G36*
X215541Y246537D02*
Y245037D01*
X217041D01*
X216990Y245291D01*
X216512Y246008D01*
X215795Y246486D01*
X215541Y246537D01*
D02*
G37*
G36*
X214360D02*
X214106Y246486D01*
X213389Y246008D01*
X212911Y245291D01*
X212860Y245037D01*
X214360D01*
Y246537D01*
D02*
G37*
G36*
X249141Y246260D02*
X247642D01*
Y244761D01*
X247896Y244811D01*
X248612Y245290D01*
X249091Y246006D01*
X249141Y246260D01*
D02*
G37*
G36*
X246461D02*
X244961D01*
X245011Y246006D01*
X245490Y245290D01*
X246206Y244811D01*
X246461Y244761D01*
Y246260D01*
D02*
G37*
G36*
X217041Y243856D02*
X215541D01*
Y242356D01*
X215795Y242407D01*
X216512Y242885D01*
X216990Y243602D01*
X217041Y243856D01*
D02*
G37*
G36*
X214360D02*
X212860D01*
X212911Y243602D01*
X213389Y242885D01*
X214106Y242407D01*
X214360Y242356D01*
Y243856D01*
D02*
G37*
G36*
X236618Y238072D02*
Y236573D01*
X238118D01*
X238067Y236827D01*
X237589Y237543D01*
X236872Y238022D01*
X236618Y238072D01*
D02*
G37*
G36*
X235437D02*
X235183Y238022D01*
X234466Y237543D01*
X233988Y236827D01*
X233937Y236573D01*
X235437D01*
Y238072D01*
D02*
G37*
G36*
X238118Y235391D02*
X236618D01*
Y233892D01*
X236872Y233942D01*
X237589Y234421D01*
X238067Y235137D01*
X238118Y235391D01*
D02*
G37*
G36*
X235437D02*
X233937D01*
X233988Y235137D01*
X234466Y234421D01*
X235183Y233942D01*
X235437Y233892D01*
Y235391D01*
D02*
G37*
G36*
X106695Y235358D02*
Y233858D01*
X108195D01*
X108144Y234113D01*
X107665Y234829D01*
X106949Y235308D01*
X106695Y235358D01*
D02*
G37*
G36*
X105514D02*
X105259Y235308D01*
X104543Y234829D01*
X104065Y234113D01*
X104014Y233858D01*
X105514D01*
Y235358D01*
D02*
G37*
G36*
X89172Y234964D02*
Y233465D01*
X90671D01*
X90621Y233719D01*
X90142Y234435D01*
X89426Y234914D01*
X89172Y234964D01*
D02*
G37*
G36*
X123254Y234874D02*
Y233374D01*
X124754D01*
X124703Y233629D01*
X124225Y234345D01*
X123509Y234824D01*
X123254Y234874D01*
D02*
G37*
G36*
X122073D02*
X121819Y234824D01*
X121103Y234345D01*
X120624Y233629D01*
X120573Y233374D01*
X122073D01*
Y234874D01*
D02*
G37*
G36*
X222101Y234718D02*
Y233218D01*
X223601D01*
X223550Y233473D01*
X223072Y234189D01*
X222355Y234667D01*
X222101Y234718D01*
D02*
G37*
G36*
X220920D02*
X220666Y234667D01*
X219949Y234189D01*
X219471Y233473D01*
X219420Y233218D01*
X220920D01*
Y234718D01*
D02*
G37*
G36*
X215792D02*
Y233218D01*
X217292D01*
X217241Y233473D01*
X216762Y234189D01*
X216046Y234667D01*
X215792Y234718D01*
D02*
G37*
G36*
X214611D02*
X214356Y234667D01*
X213640Y234189D01*
X213161Y233473D01*
X213111Y233218D01*
X214611D01*
Y234718D01*
D02*
G37*
G36*
X108195Y232677D02*
X106695D01*
Y231178D01*
X106949Y231228D01*
X107665Y231707D01*
X108144Y232423D01*
X108195Y232677D01*
D02*
G37*
G36*
X105514D02*
X104014D01*
X104065Y232423D01*
X104543Y231707D01*
X105259Y231228D01*
X105514Y231178D01*
Y232677D01*
D02*
G37*
G36*
X124754Y232193D02*
X123254D01*
Y230694D01*
X123509Y230744D01*
X124225Y231223D01*
X124703Y231939D01*
X124754Y232193D01*
D02*
G37*
G36*
X122073D02*
X120573D01*
X120624Y231939D01*
X121103Y231223D01*
X121819Y230744D01*
X122073Y230694D01*
Y232193D01*
D02*
G37*
G36*
X223601Y232037D02*
X222101D01*
Y230538D01*
X222355Y230588D01*
X223072Y231067D01*
X223550Y231783D01*
X223601Y232037D01*
D02*
G37*
G36*
X220920D02*
X219420D01*
X219471Y231783D01*
X219949Y231067D01*
X220666Y230588D01*
X220920Y230538D01*
Y232037D01*
D02*
G37*
G36*
X217292D02*
X215792D01*
Y230538D01*
X216046Y230588D01*
X216762Y231067D01*
X217241Y231783D01*
X217292Y232037D01*
D02*
G37*
G36*
X214611D02*
X213111D01*
X213161Y231783D01*
X213640Y231067D01*
X214356Y230588D01*
X214611Y230538D01*
Y232037D01*
D02*
G37*
G36*
X145472Y231108D02*
Y229608D01*
X146972D01*
X146922Y229862D01*
X146443Y230578D01*
X145727Y231057D01*
X145472Y231108D01*
D02*
G37*
G36*
X144291D02*
X144037Y231057D01*
X143321Y230578D01*
X142842Y229862D01*
X142792Y229608D01*
X144291D01*
Y231108D01*
D02*
G37*
G36*
X138386D02*
Y229608D01*
X139886D01*
X139835Y229862D01*
X139356Y230578D01*
X138640Y231057D01*
X138386Y231108D01*
D02*
G37*
G36*
X137205D02*
X136950Y231057D01*
X136234Y230578D01*
X135756Y229862D01*
X135705Y229608D01*
X137205D01*
Y231108D01*
D02*
G37*
G36*
X146972Y228427D02*
X145472D01*
Y226927D01*
X145727Y226978D01*
X146443Y227456D01*
X146922Y228172D01*
X146972Y228427D01*
D02*
G37*
G36*
X144291D02*
X142792D01*
X142842Y228172D01*
X143321Y227456D01*
X144037Y226978D01*
X144291Y226927D01*
Y228427D01*
D02*
G37*
G36*
X139886D02*
X138386D01*
Y226927D01*
X138640Y226978D01*
X139356Y227456D01*
X139835Y228172D01*
X139886Y228427D01*
D02*
G37*
G36*
X137205D02*
X135705D01*
X135756Y228172D01*
X136234Y227456D01*
X136950Y226978D01*
X137205Y226927D01*
Y228427D01*
D02*
G37*
G36*
X69703Y265457D02*
X67341D01*
X66622Y265362D01*
X65951Y265084D01*
X65375Y264643D01*
X64934Y264067D01*
X64656Y263397D01*
X64561Y262677D01*
X64656Y261958D01*
X64934Y261287D01*
X65375Y260712D01*
X65951Y260270D01*
X66622Y259992D01*
X67318Y259900D01*
Y231438D01*
X66622Y231346D01*
X65951Y231069D01*
X65375Y230627D01*
X64934Y230051D01*
X64656Y229381D01*
X64561Y228661D01*
X64656Y227942D01*
X64934Y227272D01*
X65375Y226696D01*
X65951Y226254D01*
X66622Y225976D01*
X67341Y225882D01*
X69703D01*
X70423Y225976D01*
X71093Y226254D01*
X71669Y226696D01*
X72110Y227272D01*
X72388Y227942D01*
X72483Y228661D01*
X72388Y229381D01*
X72110Y230051D01*
X71669Y230627D01*
X71093Y231069D01*
X70423Y231346D01*
X69726Y231438D01*
Y259900D01*
X70423Y259992D01*
X71093Y260270D01*
X71669Y260712D01*
X72110Y261287D01*
X72388Y261958D01*
X72483Y262677D01*
X72388Y263397D01*
X72110Y264067D01*
X71669Y264643D01*
X71093Y265084D01*
X70423Y265362D01*
X69703Y265457D01*
D02*
G37*
G36*
X247993Y224302D02*
Y222802D01*
X249493D01*
X249443Y223056D01*
X248964Y223773D01*
X248248Y224251D01*
X247993Y224302D01*
D02*
G37*
G36*
X246812D02*
X246558Y224251D01*
X245842Y223773D01*
X245363Y223056D01*
X245312Y222802D01*
X246812D01*
Y224302D01*
D02*
G37*
G36*
X249493Y221621D02*
X247993D01*
Y220121D01*
X248248Y220172D01*
X248964Y220650D01*
X249443Y221367D01*
X249493Y221621D01*
D02*
G37*
G36*
X246812D02*
X245312D01*
X245363Y221367D01*
X245842Y220650D01*
X246558Y220172D01*
X246812Y220121D01*
Y221621D01*
D02*
G37*
G36*
X81494Y219650D02*
Y218150D01*
X82994D01*
X82944Y218405D01*
X82465Y219121D01*
X81749Y219600D01*
X81494Y219650D01*
D02*
G37*
G36*
X80313D02*
X80059Y219600D01*
X79343Y219121D01*
X78864Y218405D01*
X78814Y218150D01*
X80313D01*
Y219650D01*
D02*
G37*
G36*
X82994Y216969D02*
X81494D01*
Y215470D01*
X81749Y215520D01*
X82465Y215999D01*
X82944Y216715D01*
X82994Y216969D01*
D02*
G37*
G36*
X80313D02*
X78814D01*
X78864Y216715D01*
X79343Y215999D01*
X80059Y215520D01*
X80313Y215470D01*
Y216969D01*
D02*
G37*
G36*
X217036Y216809D02*
Y215310D01*
X218536D01*
X218485Y215564D01*
X218006Y216280D01*
X217290Y216759D01*
X217036Y216809D01*
D02*
G37*
G36*
X215855D02*
X215600Y216759D01*
X214884Y216280D01*
X214406Y215564D01*
X214355Y215310D01*
X215855D01*
Y216809D01*
D02*
G37*
G36*
X241082Y216318D02*
Y214819D01*
X242582D01*
X242531Y215073D01*
X242053Y215789D01*
X241337Y216268D01*
X241082Y216318D01*
D02*
G37*
G36*
X239901D02*
X239647Y216268D01*
X238931Y215789D01*
X238452Y215073D01*
X238401Y214819D01*
X239901D01*
Y216318D01*
D02*
G37*
G36*
X110631Y216313D02*
Y214813D01*
X112130D01*
X112080Y215068D01*
X111601Y215784D01*
X110885Y216262D01*
X110631Y216313D01*
D02*
G37*
G36*
X109450D02*
X109195Y216262D01*
X108479Y215784D01*
X108000Y215068D01*
X107950Y214813D01*
X109450D01*
Y216313D01*
D02*
G37*
G36*
X218536Y214128D02*
X217036D01*
Y212629D01*
X217290Y212679D01*
X218006Y213158D01*
X218485Y213874D01*
X218536Y214128D01*
D02*
G37*
G36*
X215855D02*
X214355D01*
X214406Y213874D01*
X214884Y213158D01*
X215600Y212679D01*
X215855Y212629D01*
Y214128D01*
D02*
G37*
G36*
X68250Y213951D02*
Y212451D01*
X69749D01*
X69699Y212705D01*
X69220Y213422D01*
X68504Y213900D01*
X68250Y213951D01*
D02*
G37*
G36*
X67068D02*
X66814Y213900D01*
X66098Y213422D01*
X65619Y212705D01*
X65569Y212451D01*
X67068D01*
Y213951D01*
D02*
G37*
G36*
X242582Y213637D02*
X241082D01*
Y212138D01*
X241337Y212188D01*
X242053Y212667D01*
X242531Y213383D01*
X242582Y213637D01*
D02*
G37*
G36*
X239901D02*
X238401D01*
X238452Y213383D01*
X238931Y212667D01*
X239647Y212188D01*
X239901Y212138D01*
Y213637D01*
D02*
G37*
G36*
X112130Y213632D02*
X110631D01*
Y212132D01*
X110885Y212183D01*
X111601Y212662D01*
X112080Y213378D01*
X112130Y213632D01*
D02*
G37*
G36*
X109450D02*
X107950D01*
X108000Y213378D01*
X108479Y212662D01*
X109195Y212183D01*
X109450Y212132D01*
Y213632D01*
D02*
G37*
G36*
X69749Y211270D02*
X68250D01*
Y209770D01*
X68504Y209821D01*
X69220Y210299D01*
X69699Y211016D01*
X69749Y211270D01*
D02*
G37*
G36*
X67068D02*
X65569D01*
X65619Y211016D01*
X66098Y210299D01*
X66814Y209821D01*
X67068Y209770D01*
Y211270D01*
D02*
G37*
G36*
X126894Y211069D02*
Y209569D01*
X128394D01*
X128343Y209824D01*
X127865Y210540D01*
X127148Y211019D01*
X126894Y211069D01*
D02*
G37*
G36*
X125713D02*
X125459Y211019D01*
X124742Y210540D01*
X124264Y209824D01*
X124213Y209569D01*
X125713D01*
Y211069D01*
D02*
G37*
G36*
X198204Y210872D02*
Y209372D01*
X199704D01*
X199653Y209626D01*
X199175Y210343D01*
X198458Y210821D01*
X198204Y210872D01*
D02*
G37*
G36*
X197023D02*
X196769Y210821D01*
X196052Y210343D01*
X195574Y209626D01*
X195523Y209372D01*
X197023D01*
Y210872D01*
D02*
G37*
G36*
X193330Y208893D02*
X192639Y208755D01*
X192053Y208364D01*
X191986Y208264D01*
X182648D01*
X182599Y208337D01*
X182013Y208728D01*
X181322Y208866D01*
X180631Y208728D01*
X180045Y208337D01*
X179653Y207751D01*
X179516Y207060D01*
X179653Y206368D01*
X180045Y205782D01*
X180631Y205391D01*
X181322Y205253D01*
X182013Y205391D01*
X182599Y205782D01*
X182648Y205855D01*
X192022D01*
X192053Y205809D01*
X192639Y205418D01*
X193330Y205280D01*
X194021Y205418D01*
X194607Y205809D01*
X194999Y206395D01*
X195136Y207087D01*
X194999Y207778D01*
X194607Y208364D01*
X194021Y208755D01*
X193330Y208893D01*
D02*
G37*
G36*
X128394Y208388D02*
X126894D01*
Y206889D01*
X127148Y206939D01*
X127865Y207418D01*
X128343Y208134D01*
X128394Y208388D01*
D02*
G37*
G36*
X125713D02*
X124213D01*
X124264Y208134D01*
X124742Y207418D01*
X125459Y206939D01*
X125713Y206889D01*
Y208388D01*
D02*
G37*
G36*
X199704Y208191D02*
X198204D01*
Y206691D01*
X198458Y206742D01*
X199175Y207220D01*
X199653Y207937D01*
X199704Y208191D01*
D02*
G37*
G36*
X197023D02*
X195523D01*
X195574Y207937D01*
X196052Y207220D01*
X196769Y206742D01*
X197023Y206691D01*
Y208191D01*
D02*
G37*
G36*
X99016Y206027D02*
Y204528D01*
X100515D01*
X100465Y204782D01*
X99986Y205498D01*
X99270Y205977D01*
X99016Y206027D01*
D02*
G37*
G36*
X100515Y203346D02*
X99016D01*
Y201847D01*
X99270Y201897D01*
X99986Y202376D01*
X100465Y203092D01*
X100515Y203346D01*
D02*
G37*
G36*
X141395Y212996D02*
X135770D01*
X135097Y212862D01*
X134527Y212481D01*
X134145Y211911D01*
X134011Y211238D01*
Y205613D01*
X134145Y204940D01*
X134527Y204369D01*
X135097Y203988D01*
X135770Y203854D01*
X138209D01*
X138242Y203354D01*
X137295Y203229D01*
X136096Y202732D01*
X135066Y201942D01*
X134275Y200912D01*
X133779Y199713D01*
X133687Y199016D01*
X143479D01*
X143387Y199713D01*
X142890Y200912D01*
X142100Y201942D01*
X141069Y202732D01*
X139870Y203229D01*
X138923Y203354D01*
X138956Y203854D01*
X141395D01*
X142068Y203988D01*
X142639Y204369D01*
X143020Y204940D01*
X143154Y205613D01*
Y211238D01*
X143020Y211911D01*
X142639Y212481D01*
X142068Y212862D01*
X141395Y212996D01*
D02*
G37*
G36*
X174622Y238027D02*
X173931Y237889D01*
X173345Y237498D01*
X172953Y236912D01*
X172816Y236221D01*
X172953Y235529D01*
X173345Y234943D01*
X173418Y234894D01*
Y200895D01*
X173418Y200895D01*
X173509Y200434D01*
X173770Y200044D01*
X175831Y197983D01*
X176221Y197722D01*
X176682Y197631D01*
X197613D01*
X197935Y197148D01*
X198521Y196756D01*
X199213Y196619D01*
X199904Y196756D01*
X200490Y197148D01*
X200882Y197734D01*
X201019Y198425D01*
X200882Y199117D01*
X200762Y199296D01*
X201029Y199796D01*
X207980D01*
X208172Y199510D01*
X208758Y199118D01*
X209449Y198981D01*
X210140Y199118D01*
X210726Y199510D01*
X211118Y200096D01*
X211255Y200787D01*
X211118Y201479D01*
X210726Y202065D01*
X210140Y202456D01*
X209449Y202594D01*
X208758Y202456D01*
X208381Y202204D01*
X194656D01*
X194607Y202278D01*
X194021Y202669D01*
X193330Y202807D01*
X192639Y202669D01*
X192053Y202278D01*
X191661Y201692D01*
X191524Y201000D01*
X191615Y200539D01*
X191286Y200039D01*
X177181D01*
X175826Y201394D01*
Y234894D01*
X175899Y234943D01*
X176291Y235529D01*
X176428Y236221D01*
X176291Y236912D01*
X175899Y237498D01*
X175313Y237889D01*
X174622Y238027D01*
D02*
G37*
G36*
X112156Y190801D02*
Y189302D01*
X113656D01*
X113605Y189556D01*
X113127Y190272D01*
X112410Y190751D01*
X112156Y190801D01*
D02*
G37*
G36*
X110975D02*
X110721Y190751D01*
X110004Y190272D01*
X109526Y189556D01*
X109475Y189302D01*
X110975D01*
Y190801D01*
D02*
G37*
G36*
X190039Y193103D02*
Y188554D01*
X193666D01*
Y188963D01*
X193522Y190055D01*
X193101Y191072D01*
X192431Y191945D01*
X191557Y192615D01*
X190540Y193036D01*
X190039Y193103D01*
D02*
G37*
G36*
X119961Y190053D02*
Y188554D01*
X121460D01*
X121410Y188808D01*
X120931Y189524D01*
X120215Y190003D01*
X119961Y190053D01*
D02*
G37*
G36*
X118780D02*
X118525Y190003D01*
X117809Y189524D01*
X117330Y188808D01*
X117280Y188554D01*
X118780D01*
Y190053D01*
D02*
G37*
G36*
X188858Y193103D02*
X188357Y193036D01*
X187340Y192615D01*
X186467Y191945D01*
X185797Y191072D01*
X185375Y190055D01*
X185232Y188963D01*
Y188554D01*
X188858D01*
Y193103D01*
D02*
G37*
G36*
X127485Y189355D02*
Y187855D01*
X128984D01*
X128934Y188109D01*
X128455Y188826D01*
X127739Y189304D01*
X127485Y189355D01*
D02*
G37*
G36*
X126303D02*
X126049Y189304D01*
X125333Y188826D01*
X124854Y188109D01*
X124804Y187855D01*
X126303D01*
Y189355D01*
D02*
G37*
G36*
X102956Y188157D02*
Y186658D01*
X104456D01*
X104405Y186912D01*
X103927Y187628D01*
X103211Y188107D01*
X102956Y188157D01*
D02*
G37*
G36*
X101775D02*
X101521Y188107D01*
X100805Y187628D01*
X100326Y186912D01*
X100276Y186658D01*
X101775D01*
Y188157D01*
D02*
G37*
G36*
X113656Y188120D02*
X112156D01*
Y186621D01*
X112410Y186671D01*
X113127Y187150D01*
X113605Y187866D01*
X113656Y188120D01*
D02*
G37*
G36*
X110975D02*
X109475D01*
X109526Y187866D01*
X110004Y187150D01*
X110721Y186671D01*
X110975Y186621D01*
Y188120D01*
D02*
G37*
G36*
X121460Y187373D02*
X119961D01*
Y185873D01*
X120215Y185923D01*
X120931Y186402D01*
X121410Y187118D01*
X121460Y187373D01*
D02*
G37*
G36*
X118780D02*
X117280D01*
X117330Y187118D01*
X117809Y186402D01*
X118525Y185923D01*
X118780Y185873D01*
Y187373D01*
D02*
G37*
G36*
X128984Y186674D02*
X127485D01*
Y185174D01*
X127739Y185225D01*
X128455Y185703D01*
X128934Y186420D01*
X128984Y186674D01*
D02*
G37*
G36*
X126303D02*
X124804D01*
X124854Y186420D01*
X125333Y185703D01*
X126049Y185225D01*
X126303Y185174D01*
Y186674D01*
D02*
G37*
G36*
X236221Y208698D02*
X234367Y208552D01*
X232559Y208118D01*
X230842Y207407D01*
X229257Y206435D01*
X227843Y205228D01*
X226636Y203814D01*
X225664Y202229D01*
X224953Y200512D01*
X224519Y198704D01*
X224373Y196850D01*
X224519Y194997D01*
X224953Y193189D01*
X225664Y191472D01*
X226636Y189887D01*
X227843Y188473D01*
X229257Y187266D01*
X230842Y186294D01*
X232559Y185583D01*
X234367Y185149D01*
X236221Y185003D01*
X238074Y185149D01*
X239882Y185583D01*
X241599Y186294D01*
X243184Y187266D01*
X244598Y188473D01*
X245805Y189887D01*
X246777Y191472D01*
X247488Y193189D01*
X247922Y194997D01*
X248068Y196850D01*
X247922Y198704D01*
X247488Y200512D01*
X246777Y202229D01*
X245805Y203814D01*
X244598Y205228D01*
X243184Y206435D01*
X241599Y207407D01*
X239882Y208118D01*
X238074Y208552D01*
X236221Y208698D01*
D02*
G37*
G36*
X104456Y185476D02*
X102956D01*
Y183977D01*
X103211Y184027D01*
X103927Y184506D01*
X104405Y185222D01*
X104456Y185476D01*
D02*
G37*
G36*
X101775D02*
X100276D01*
X100326Y185222D01*
X100805Y184506D01*
X101521Y184027D01*
X101775Y183977D01*
Y185476D01*
D02*
G37*
G36*
X143479Y197835D02*
X133687D01*
X133779Y197138D01*
X134275Y195938D01*
X135066Y194908D01*
X136096Y194118D01*
X137295Y193621D01*
X138294Y193490D01*
X138376Y193479D01*
Y192974D01*
X138294Y192964D01*
X137398Y192846D01*
X136294Y192389D01*
X135347Y191661D01*
X134619Y190714D01*
X134162Y189610D01*
X134006Y188425D01*
X134162Y187241D01*
X134619Y186137D01*
X135347Y185189D01*
X136294Y184462D01*
X137398Y184005D01*
X138583Y183849D01*
X139767Y184005D01*
X140871Y184462D01*
X141819Y185189D01*
X142546Y186137D01*
X143003Y187241D01*
X143159Y188425D01*
X143003Y189610D01*
X142546Y190714D01*
X141819Y191661D01*
X140871Y192389D01*
X139767Y192846D01*
X138871Y192964D01*
X138790Y192974D01*
Y193479D01*
X138871Y193490D01*
X139870Y193621D01*
X141069Y194118D01*
X142100Y194908D01*
X142890Y195938D01*
X143387Y197138D01*
X143479Y197835D01*
D02*
G37*
G36*
X221699Y192781D02*
X217199D01*
X216599Y192661D01*
X216090Y192321D01*
X215751Y191813D01*
X215631Y191213D01*
Y184713D01*
X215751Y184113D01*
X216090Y183605D01*
X216599Y183265D01*
X217199Y183145D01*
X221699D01*
X222299Y183265D01*
X222807Y183605D01*
X223147Y184113D01*
X223266Y184713D01*
Y191213D01*
X223147Y191813D01*
X222807Y192321D01*
X222299Y192661D01*
X221699Y192781D01*
D02*
G37*
G36*
X209449Y192783D02*
X208460Y192653D01*
X207539Y192271D01*
X206748Y191664D01*
X206140Y190873D01*
X205759Y189952D01*
X205629Y188963D01*
Y186963D01*
X205759Y185974D01*
X206140Y185053D01*
X206748Y184262D01*
X207539Y183655D01*
X208460Y183273D01*
X209449Y183143D01*
X210437Y183273D01*
X211359Y183655D01*
X212150Y184262D01*
X212757Y185053D01*
X213139Y185974D01*
X213269Y186963D01*
Y188963D01*
X213139Y189952D01*
X212757Y190873D01*
X212150Y191664D01*
X211359Y192271D01*
X210437Y192653D01*
X209449Y192783D01*
D02*
G37*
G36*
X199449D02*
X198460Y192653D01*
X197539Y192271D01*
X196748Y191664D01*
X196141Y190873D01*
X195759Y189952D01*
X195629Y188963D01*
Y186963D01*
X195759Y185974D01*
X196141Y185053D01*
X196748Y184262D01*
X197539Y183655D01*
X198460Y183273D01*
X199449Y183143D01*
X200437Y183273D01*
X201359Y183655D01*
X202150Y184262D01*
X202757Y185053D01*
X203139Y185974D01*
X203269Y186963D01*
Y188963D01*
X203139Y189952D01*
X202757Y190873D01*
X202150Y191664D01*
X201359Y192271D01*
X200437Y192653D01*
X199449Y192783D01*
D02*
G37*
G36*
X193666Y187373D02*
X190039D01*
Y182824D01*
X190540Y182890D01*
X191557Y183311D01*
X192431Y183981D01*
X193101Y184854D01*
X193522Y185872D01*
X193666Y186963D01*
Y187373D01*
D02*
G37*
G36*
X188858D02*
X185232D01*
Y186963D01*
X185375Y185872D01*
X185797Y184854D01*
X186467Y183981D01*
X187340Y183311D01*
X188357Y182890D01*
X188858Y182824D01*
Y187373D01*
D02*
G37*
%LPD*%
D11*
X68522Y228661D02*
Y262677D01*
X84979Y228661D02*
Y232481D01*
Y258858D02*
X85648Y258189D01*
Y233150D02*
Y258189D01*
X84979Y258858D02*
Y262677D01*
Y232481D02*
X85648Y233150D01*
X169504Y191920D02*
X172653D01*
X166354D02*
X169504D01*
X163205D02*
X166354D01*
Y197835D02*
Y226139D01*
X163205Y191920D02*
Y194685D01*
X166354Y197835D01*
X161338Y285236D02*
Y291806D01*
X178436Y248777D02*
Y291085D01*
X179157Y291806D01*
Y292126D01*
X181322Y251730D02*
Y295276D01*
X198987Y198651D02*
X199213Y198425D01*
X198345Y198651D02*
X198987D01*
X176682Y198835D02*
X198161D01*
X198345Y198651D01*
X174622Y200895D02*
Y236221D01*
Y200895D02*
X176682Y198835D01*
X209236Y201000D02*
X209449Y200787D01*
X193330Y201000D02*
X209236D01*
X193303Y207060D02*
X193330Y207087D01*
X181322Y207060D02*
X193303D01*
X169504Y184833D02*
Y187008D01*
X166354Y184833D02*
Y187008D01*
X162998Y185039D02*
X163205Y184833D01*
X158268Y185039D02*
X162998D01*
D17*
X168110Y273228D02*
D03*
X161417D02*
D03*
X186683Y275781D02*
D03*
X193376D02*
D03*
D18*
X186614Y353740D02*
D03*
Y347047D02*
D03*
X234646Y319213D02*
D03*
Y312520D02*
D03*
D60*
X94965Y188425D02*
Y210547D01*
X71260Y269685D02*
X76378Y264567D01*
X68504Y275197D02*
Y330900D01*
X164633Y284330D02*
Y335866D01*
Y284330D02*
X168464Y280499D01*
X151983Y222211D02*
X162426D01*
X166354Y226139D01*
X186897Y256086D02*
Y275781D01*
X168464Y280499D02*
X175277D01*
X161338Y273373D02*
X168464Y280499D01*
X94965Y184833D02*
Y188425D01*
X69888Y332283D02*
X77953D01*
X68504Y272441D02*
Y275197D01*
Y330900D02*
X69888Y332283D01*
X77953D02*
X95276Y349606D01*
X96659Y353740D02*
X186614D01*
X95276Y352356D02*
X96659Y353740D01*
X95276Y349606D02*
Y352356D01*
X186850Y353976D02*
Y363779D01*
X186614Y353740D02*
X186850Y353976D01*
X186614Y353740D02*
X186811D01*
X188189Y352362D01*
X216850D01*
X234646Y319213D02*
Y336411D01*
X233262Y337795D02*
X234646Y336411D01*
X231417Y337795D02*
X233262D01*
X216850Y352362D02*
X231417Y337795D01*
X234882Y319449D02*
X245477D01*
X234646Y319213D02*
X234882Y319449D01*
X90551Y214961D02*
X94965Y210547D01*
X90551Y214961D02*
Y217262D01*
X84979Y222835D02*
X90551Y217262D01*
X78684Y222835D02*
X84979D01*
X76378Y225141D02*
Y264567D01*
Y225141D02*
X78684Y222835D01*
X68504Y272441D02*
X71260Y269685D01*
D64*
X236221Y196850D02*
D03*
D65*
X245477Y329449D02*
D03*
D66*
Y319449D02*
D03*
Y309449D02*
D03*
Y299449D02*
D03*
Y289449D02*
D03*
X186850Y363779D02*
D03*
X196850D02*
D03*
X206850D02*
D03*
X216850D02*
D03*
D67*
X176850D02*
D03*
D68*
X84979Y262677D02*
D03*
Y228661D02*
D03*
D69*
X68522D02*
D03*
Y262677D02*
D03*
D70*
X82892Y234291D02*
D03*
Y257047D02*
D03*
D71*
X138583Y188425D02*
D03*
Y198425D02*
D03*
D72*
Y208425D02*
D03*
D73*
X199449Y187963D02*
D03*
X209449D02*
D03*
X189449D02*
D03*
D74*
X219449D02*
D03*
D75*
X236221Y354331D02*
D03*
X78740D02*
D03*
Y196850D02*
D03*
D76*
X86014Y317852D02*
D03*
X135269Y259044D02*
D03*
X122664Y232784D02*
D03*
X236221Y257480D02*
D03*
X218935Y337485D02*
D03*
X128347Y321994D02*
D03*
X96063Y295276D02*
D03*
X114961Y343307D02*
D03*
X98425Y203937D02*
D03*
X111566Y188711D02*
D03*
X102366Y186067D02*
D03*
X164633Y335866D02*
D03*
X126894Y187265D02*
D03*
X126303Y208979D02*
D03*
X67659Y211861D02*
D03*
X99215Y278689D02*
D03*
X137795Y250169D02*
D03*
X120472Y266717D02*
D03*
X78942Y297852D02*
D03*
X76378Y324838D02*
D03*
X119685Y305276D02*
D03*
Y333881D02*
D03*
X155779Y317364D02*
D03*
Y336894D02*
D03*
X218755Y281907D02*
D03*
X227127Y295838D02*
D03*
X227127Y320528D02*
D03*
X223823Y247990D02*
D03*
X216445Y214719D02*
D03*
X236028Y235982D02*
D03*
X240492Y214228D02*
D03*
X247403Y222211D02*
D03*
X247051Y246851D02*
D03*
Y268111D02*
D03*
X144882Y229017D02*
D03*
X137795D02*
D03*
X88581Y258465D02*
D03*
Y232874D02*
D03*
X80904Y217560D02*
D03*
X110040Y214223D02*
D03*
X119370Y187963D02*
D03*
X197614Y208782D02*
D03*
X221511Y232628D02*
D03*
X215201D02*
D03*
X214951Y244447D02*
D03*
X165748Y365354D02*
D03*
X166104Y359610D02*
D03*
X171968Y306457D02*
D03*
X166354Y226139D02*
D03*
X151983Y222211D02*
D03*
X186897Y256086D02*
D03*
X175277Y280499D02*
D03*
X161338Y291806D02*
D03*
Y285236D02*
D03*
X70866Y269291D02*
D03*
X68504Y275197D02*
D03*
X94965Y184833D02*
D03*
Y188425D02*
D03*
X179157Y292126D02*
D03*
X178436Y248777D02*
D03*
X181322Y251730D02*
D03*
Y295276D02*
D03*
X106104Y233268D02*
D03*
X104530Y259646D02*
D03*
X68504Y272441D02*
D03*
X193376Y275781D02*
D03*
X186897D02*
D03*
X168195Y273189D02*
D03*
X161338Y273373D02*
D03*
X174622Y236221D02*
D03*
X199213Y198425D02*
D03*
X209449Y200787D02*
D03*
X193330Y201000D02*
D03*
Y207087D02*
D03*
X181322Y207060D02*
D03*
D77*
X169504Y187008D02*
D03*
X166354D02*
D03*
X158268Y185039D02*
D03*
D78*
X163205Y184833D02*
D03*
X166354D02*
D03*
X169504D02*
D03*
X172653D02*
D03*
Y191920D02*
D03*
X169504D02*
D03*
X166354D02*
D03*
X163205D02*
D03*
M02*
