G04*
G04 #@! TF.GenerationSoftware,Altium Limited,Altium Designer,20.2.7 (254)*
G04*
G04 Layer_Color=16711935*
%FSLAX25Y25*%
%MOIN*%
G70*
G04*
G04 #@! TF.SameCoordinates,FBE84B92-D195-4989-AC34-508FE9173FC9*
G04*
G04*
G04 #@! TF.FilePolarity,Negative*
G04*
G01*
G75*
G04:AMPARAMS|DCode=33|XSize=47.37mil|YSize=43.43mil|CornerRadius=8.43mil|HoleSize=0mil|Usage=FLASHONLY|Rotation=270.000|XOffset=0mil|YOffset=0mil|HoleType=Round|Shape=RoundedRectangle|*
%AMROUNDEDRECTD33*
21,1,0.04737,0.02657,0,0,270.0*
21,1,0.03051,0.04343,0,0,270.0*
1,1,0.01686,-0.01329,-0.01526*
1,1,0.01686,-0.01329,0.01526*
1,1,0.01686,0.01329,0.01526*
1,1,0.01686,0.01329,-0.01526*
%
%ADD33ROUNDEDRECTD33*%
G04:AMPARAMS|DCode=34|XSize=47.37mil|YSize=43.43mil|CornerRadius=8.43mil|HoleSize=0mil|Usage=FLASHONLY|Rotation=180.000|XOffset=0mil|YOffset=0mil|HoleType=Round|Shape=RoundedRectangle|*
%AMROUNDEDRECTD34*
21,1,0.04737,0.02657,0,0,180.0*
21,1,0.03051,0.04343,0,0,180.0*
1,1,0.01686,-0.01526,0.01329*
1,1,0.01686,0.01526,0.01329*
1,1,0.01686,0.01526,-0.01329*
1,1,0.01686,-0.01526,-0.01329*
%
%ADD34ROUNDEDRECTD34*%
%ADD48C,0.22847*%
%ADD49R,0.06706X0.06706*%
%ADD50C,0.06706*%
%ADD51R,0.06706X0.06706*%
%ADD52O,0.09068X0.04737*%
%ADD53O,0.07099X0.04737*%
%ADD54C,0.03950*%
%ADD55C,0.08300*%
G04:AMPARAMS|DCode=56|XSize=83mil|YSize=83mil|CornerRadius=13.38mil|HoleSize=0mil|Usage=FLASHONLY|Rotation=0.000|XOffset=0mil|YOffset=0mil|HoleType=Round|Shape=RoundedRectangle|*
%AMROUNDEDRECTD56*
21,1,0.08300,0.05625,0,0,0.0*
21,1,0.05625,0.08300,0,0,0.0*
1,1,0.02675,0.02813,-0.02813*
1,1,0.02675,-0.02813,-0.02813*
1,1,0.02675,-0.02813,0.02813*
1,1,0.02675,0.02813,0.02813*
%
%ADD56ROUNDEDRECTD56*%
%ADD57O,0.06800X0.08800*%
G04:AMPARAMS|DCode=58|XSize=68mil|YSize=88mil|CornerRadius=11.5mil|HoleSize=0mil|Usage=FLASHONLY|Rotation=180.000|XOffset=0mil|YOffset=0mil|HoleType=Round|Shape=RoundedRectangle|*
%AMROUNDEDRECTD58*
21,1,0.06800,0.06500,0,0,180.0*
21,1,0.04500,0.08800,0,0,180.0*
1,1,0.02300,-0.02250,0.03250*
1,1,0.02300,0.02250,0.03250*
1,1,0.02300,0.02250,-0.03250*
1,1,0.02300,-0.02250,-0.03250*
%
%ADD58ROUNDEDRECTD58*%
%ADD59C,0.25997*%
%ADD79R,0.09449X0.03150*%
G04:AMPARAMS|DCode=80|XSize=45.4mil|YSize=27.69mil|CornerRadius=6.46mil|HoleSize=0mil|Usage=FLASHONLY|Rotation=90.000|XOffset=0mil|YOffset=0mil|HoleType=Round|Shape=RoundedRectangle|*
%AMROUNDEDRECTD80*
21,1,0.04540,0.01476,0,0,90.0*
21,1,0.03248,0.02769,0,0,90.0*
1,1,0.01292,0.00738,0.01624*
1,1,0.01292,0.00738,-0.01624*
1,1,0.01292,-0.00738,-0.01624*
1,1,0.01292,-0.00738,0.01624*
%
%ADD80ROUNDEDRECTD80*%
D33*
X168110Y273228D02*
D03*
X161417D02*
D03*
X186683Y275781D02*
D03*
X193376D02*
D03*
D34*
X186614Y353740D02*
D03*
Y347047D02*
D03*
X234646Y319213D02*
D03*
Y312520D02*
D03*
D48*
X236221Y196850D02*
D03*
D49*
X245477Y329449D02*
D03*
D50*
Y319449D02*
D03*
Y309449D02*
D03*
Y299449D02*
D03*
Y289449D02*
D03*
X186850Y363779D02*
D03*
X196850D02*
D03*
X206850D02*
D03*
X216850D02*
D03*
D51*
X176850D02*
D03*
D52*
X84979Y262677D02*
D03*
Y228661D02*
D03*
D53*
X68522D02*
D03*
Y262677D02*
D03*
D54*
X82892Y234291D02*
D03*
Y257047D02*
D03*
D55*
X138583Y188425D02*
D03*
Y198425D02*
D03*
D56*
Y208425D02*
D03*
D57*
X199449Y187963D02*
D03*
X209449D02*
D03*
X189449D02*
D03*
D58*
X219449D02*
D03*
D59*
X236221Y354331D02*
D03*
X78740D02*
D03*
Y196850D02*
D03*
D79*
X167929Y184833D02*
D03*
Y191920D02*
D03*
D80*
X163205Y184833D02*
D03*
X166354D02*
D03*
X169504D02*
D03*
X172653D02*
D03*
Y191920D02*
D03*
X169504D02*
D03*
X166354D02*
D03*
X163205D02*
D03*
M02*
